<svg width="498" height="357" viewBox="0 0 498 357" fill="none" xmlns="http://www.w3.org/2000/svg">
<path d="M1.62471 347.282H38.6275C39.4939 347.282 40.252 346.609 40.252 345.801V345.263C40.252 344.455 39.53 343.781 38.6275 343.781H1.62471C0.758316 343.781 0.000198364 344.455 0.000198364 345.263V345.801C0.000198364 346.609 0.722214 347.282 1.62471 347.282ZM93.139 343.781C92.2418 343.781 91.5144 344.565 91.5144 345.532C91.5144 346.499 92.2418 347.282 93.139 347.282H151.982C152.88 347.282 153.607 346.499 153.607 345.532C153.607 344.565 152.88 343.781 151.982 343.781H93.139Z" fill="#DE3190"/>
<path d="M92.9597 343.792C93.0173 343.785 93.0757 343.782 93.1349 343.782H151.727C151.766 343.569 151.785 343.3 151.78 342.953C151.739 342.681 151.734 342.37 151.657 342.06C151.194 340.201 150.632 338.967 148.99 337.869C147.347 336.772 145.67 335.792 143.923 334.93C137.48 331.666 135.278 331.708 131.041 328.714C129.288 327.463 127.676 326.015 126.17 324.448C125.166 323.403 123.117 321.706 120.022 319.357L92.9597 320.028V343.792ZM1.4881 343.787C1.53191 343.783 1.5761 343.782 1.62056 343.782H38.5003L35.2315 321.758L10.9713 318.767L1.4881 343.787Z" fill="#474961"/>
<path d="M81.9396 104.781C80.7048 103.28 79.3244 101.893 77.8064 100.645C73.3943 98.8588 64.9748 96.9699 58.9672 99.0321C51.9416 101.444 47.605 108.039 47.605 108.039C47.605 108.039 46.5753 106.883 35.8293 139.224C28.6653 160.785 21.7138 190.002 14.9748 226.876C14.3297 231.004 10.6062 254.292 3.80441 296.739C3.79884 296.774 3.79372 296.809 3.78902 296.844C3.50335 298.97 4.87135 300.943 6.84454 301.251L44.4724 307.121C46.2836 307.404 48.0044 306.181 48.4771 304.276C53.1701 285.365 55.7077 275.028 56.0897 273.265C56.9117 269.743 57.7202 265.756 58.5569 261.188L65.1414 226.888C65.2058 226.556 65.3306 225.477 65.5157 223.652C68.5874 211.513 71.2139 201.134 73.3952 192.514C75.1487 199.769 77.0461 207.547 79.0876 215.849C80.0788 262.403 80.8196 288.877 81.3098 295.271C81.3856 296.259 81.6263 299.9 82.0319 306.192C82.168 308.305 83.8471 309.912 85.8098 309.808L124.601 307.762C126.447 307.664 127.927 306.079 128.029 304.09C129.744 270.546 128.609 238.991 124.623 209.427C118.436 163.541 109.087 144.79 103.511 127.14C103.449 126.929 99.0249 119.38 90.2392 104.493C87.1857 104.512 84.4191 104.608 81.9396 104.781Z" fill="#FFCB3D"/>
<path opacity="0.2" d="M87.3262 114.766C89.3728 120.754 89.7223 127.405 88.0978 133.836C85.822 142.846 83.5462 151.855 81.2703 160.865C81.2703 160.865 78.629 171.302 73.3464 192.178C75.1126 199.528 77.0262 207.419 79.0875 215.85C80.1047 262.257 80.8585 288.658 81.3487 295.052C81.6823 299.403 81.932 303.099 82.0979 306.142C82.2142 308.274 83.9043 309.906 85.8839 309.799L124.71 307.685C126.557 307.584 128.035 305.995 128.133 304.005C129.778 270.515 128.608 238.989 124.623 209.427C118.436 163.541 109.198 144.707 103.622 127.057C103.572 126.887 95.603 120.383 87.3262 114.766Z" fill="#8C2A00"/>
<path d="M90.4835 41.2504C89.7034 40.941 88.9287 40.6789 88.1756 40.4569L88.3252 37.5394C88.347 37.1147 88.0482 36.7499 87.6545 36.7204L70.7185 35.4498C70.3208 35.4205 69.976 35.7435 69.9476 36.1719L69.8402 37.8195C60.6019 36.6032 55.2088 36.3254 53.6609 36.9862C39.303 43.1157 36.9289 69.7274 37.0048 77.8229C37.0251 79.9939 40.2447 81.9426 46.6635 83.6689C45.964 91.0275 45.5519 95.1847 45.3146 97.3442C45.3146 97.3442 45.318 97.7266 45.2377 98.2921C45.0339 99.9542 93.8116 116.224 93.8116 116.224C93.8486 116.189 93.8825 116.192 93.8825 116.192C93.8825 116.192 94.5754 116.066 95.4316 115.612C95.8566 115.423 96.2878 115.157 96.7283 114.778C99.9902 112.028 100.516 105.162 100.584 103.487C100.628 102.956 100.662 102.539 100.662 102.539C100.796 100.041 101.124 94.9821 101.771 85.5454C104.084 86.6198 106.606 87.7124 109.336 88.8231L109.235 50.001C109.228 47.225 107.699 44.7158 105.339 43.6043C100.084 41.1302 95.1325 40.3455 90.4835 41.2504Z" fill="#DE3190"/>
<path d="M93.054 320.2L99.481 320.041L120.022 319.355L118.969 307.957L92.7821 309.328L93.054 320.2ZM38.6103 306.123L13.0715 302.148L10.9713 318.766L35.2315 321.757L38.6103 306.123ZM71.2449 21.1553V35.535L85.2275 36.5634L85.0319 33.4281C87.0294 33.9768 86.9141 33.9124 87.1063 33.9577C89.4285 34.3177 91.3597 34.0231 91.7112 33.906C92.9924 33.6457 94.2435 32.3411 95.2717 30.2467C96.6666 27.4515 97.7386 23.2181 98.0493 18.2555C98.1249 17.5485 98.0929 16.8537 98.0609 16.1589L97.5291 9.27323C97.414 7.7341 96.94 6.23531 96.0861 4.9344C95.7385 4.35264 95.4022 3.886 95.0017 3.50419C90.6828 -1.28756 83.9368 0.246373 82.7349 0.575402C82.5951 0.629914 82.4515 0.646049 82.3117 0.70056C81.021 1.23358 79.7757 1.48988 78.5229 1.66944C77.9485 1.73398 77.5346 2.3237 77.5949 2.93773L78.5969 12.7583C78.2511 12.5643 72.8067 10.2268 71.2892 11.4061C70.0371 12.3933 69.5051 18.5583 71.2449 21.1553ZM100.372 108.002L100.002 107.651C99.8353 107.651 99.7394 107.66 99.7083 107.679L69.7768 93.1223L69.1608 87.2553C55.9099 85.7099 46.745 83.8862 41.666 81.7842C41.5774 96.8727 42.6101 105.552 44.764 107.823C49.6476 112.972 75.0768 125.696 100.534 129.131C106.224 131.849 115.636 133.828 128.77 135.068C132.517 132.486 134.53 127.976 134.808 121.537L125.688 118.157C126.057 118.021 126.247 117.919 126.247 117.919C128.22 113.061 103.22 108.762 100.03 107.835L100.372 108.002ZM107.841 87.8866C120.133 93.9836 139.923 98.6197 145.212 91.9775C152.139 83.2801 153.051 59.5986 147.948 20.9329C159.086 18.2745 166.801 15.3848 171.093 12.2638C172.255 11.4191 172.937 9.9983 172.905 8.49222C172.851 6.04631 170.961 4.10991 168.683 4.16717C157.776 4.44127 150.864 4.41871 147.948 4.09947C147.875 4.09148 147.802 4.08402 147.729 4.0771C138.882 3.23982 131.078 10.2609 130.299 19.7592L126.954 60.5003L109.244 51.3207L109.262 88.4698C108.782 88.2749 108.308 88.0805 107.841 87.8866Z" fill="#DB9E75"/>
<path opacity="0.176986" d="M90.7573 41.1772C93.9995 42.5026 97.3058 44.6562 99.5158 48.1551C100.15 49.1698 100.947 50.6965 101.488 52.8487C101.565 53.1616 101.645 53.4365 101.722 53.7494C101.906 54.4163 102.303 55.829 102.623 57.3491C102.961 59.062 103.108 62.2852 103.051 66.7502L103.041 66.8639L102.958 68.7282C102.485 75.4793 102.101 81.0139 101.791 85.5351C104.088 86.604 106.594 87.6906 109.308 88.7949L109.232 49.9866C109.227 47.2176 107.708 44.7121 105.356 43.5947C100.202 41.1453 95.336 40.3394 90.7573 41.1772V41.1772Z" fill="#444444"/>
<path d="M85.0264 33.52L79.4882 32.0314L85.2273 36.6969L85.0264 33.52Z" fill="#482D1F"/>
<path d="M74.3059 22.7594L74.272 22.7558C73.7826 22.5773 72.3504 22.0378 71.3945 20.4322C70.4386 18.8265 70.1082 16.5662 71.1194 14.6608C72.0985 12.798 74.1583 11.5922 75.942 12.0142C76.9454 12.2515 77.6709 12.9875 77.7502 13.0564C78.8479 14.2567 79.1992 15.619 79.1992 15.619L79.3814 16.5547C79.5796 16.2371 79.7622 15.9228 79.9248 15.6151C82.1908 12.4389 84.4531 9.22419 86.7154 6.0095C88.193 6.27125 90.5323 6.43585 93.1287 5.52001C94.0396 5.18365 94.8125 4.55131 95.4966 4.12369C95.2907 3.87432 95.0885 3.66346 94.9185 3.41004C91.7502 -0.399528 85.9171 -0.286991 83.2904 0.320714C82.9711 0.395665 81.8373 0.679276 80.1971 0.981046C79.3071 1.15929 78.589 1.24025 78.162 1.32735C72.8351 2.16164 70.649 1.70719 68.1072 3.55147C67.631 3.87776 66.55 4.70061 65.6768 6.16204C63.2141 10.295 64.3792 15.1482 64.7022 16.5916C65.7786 20.9096 68.3018 23.0875 69.1293 24.1235C70.788 26.2341 72.9422 24.1235 72.9422 24.1235C72.9422 24.1235 73.495 23.5987 74.3059 22.7594Z" fill="#482D1F"/>
<path d="M120.754 123.064C120.464 122.987 120.17 123.178 120.098 123.491C120.026 123.804 120.204 124.12 120.494 124.197C122.316 124.683 123.744 125.011 126.93 125.706C130.102 126.397 131.519 126.723 133.321 127.203C133.612 127.281 133.905 127.09 133.977 126.777C134.049 126.464 133.872 126.148 133.581 126.071C131.759 125.585 130.331 125.256 127.145 124.562C123.973 123.871 122.556 123.544 120.754 123.064ZM116.589 128.867C116.295 128.809 116.013 129.019 115.96 129.336C115.906 129.653 116.101 129.957 116.395 130.015C118.41 130.411 119.964 130.756 123.422 131.554C126.89 132.354 128.452 132.701 130.481 133.1C130.775 133.158 131.057 132.948 131.111 132.631C131.165 132.314 130.97 132.01 130.675 131.952C128.661 131.555 127.106 131.21 123.649 130.413C120.181 129.613 118.618 129.266 116.589 128.867Z" fill="#482D1F"/>
<path d="M95.8984 16.4757C95.8983 17.1443 95.8668 18.2907 96.2034 18.7776C96.7261 19.5046 97.8013 17.5708 97.4752 16.2561C97.2808 15.7423 97.0299 15.5538 96.7392 15.5695C96.3 15.5739 95.9298 15.9979 95.8984 16.4757ZM88.1357 16.9157C88.1001 17.591 88.0686 18.7374 88.4407 19.2176C88.9634 19.9445 90.0386 18.0108 89.7125 16.6961C89.5181 16.1823 89.2672 15.9938 88.9765 16.0095C88.5373 16.0139 88.1671 16.4378 88.1357 16.9157Z" fill="#482D1F"/>
<path d="M92.7114 17.2553L93.3738 21.0627C93.3759 21.0755 93.3319 21.143 93.3148 21.1462C93.1203 21.183 92.9192 21.2069 92.6037 21.2334C92.5424 21.2385 92.4783 21.2437 92.3859 21.251C92.2696 21.2601 92.2059 21.2651 92.1449 21.27C91.936 21.2866 91.7631 21.3014 91.5786 21.3188C91.38 21.3376 91.2331 21.5263 91.2505 21.7403C91.2679 21.9543 91.443 22.1126 91.6416 22.0939C91.8224 22.0768 91.9922 22.0623 92.1981 22.0459C92.2587 22.041 92.3219 22.0361 92.4385 22.0269C92.532 22.0196 92.5971 22.0143 92.6597 22.0091C92.9964 21.9808 93.2177 21.9545 93.4397 21.9125C93.8492 21.835 94.1566 21.3641 94.0841 20.9231L93.421 17.1119C93.3843 16.9007 93.1956 16.7616 92.9997 16.8012C92.8037 16.8408 92.6746 17.0441 92.7114 17.2553Z" fill="#482D1F"/>
<path d="M81.6449 16.9939C81.6151 17.4372 81.6353 17.8915 81.7105 18.3491C82.2024 21.3418 84.8612 23.3391 87.6486 22.8118C89.993 22.3683 91.683 20.28 91.8689 17.8469L93.0502 17.7562C93.5497 20.739 96.2035 22.7273 98.9853 22.201C101.773 21.6736 103.636 18.82 103.144 15.8266C102.652 12.834 99.9931 10.8367 97.2058 11.364C94.7772 11.8234 93.0508 14.0479 92.9713 16.5923L91.8418 16.679C91.8319 16.5986 91.8204 16.5181 91.8071 16.4374C91.3153 13.4447 88.6564 11.4475 85.8691 11.9747C83.8857 12.3499 82.3707 13.9023 81.8386 15.8448L79.4181 15.4722C79.122 15.4267 78.8477 15.6483 78.8054 15.9673C78.7631 16.2864 78.9689 16.5819 79.2649 16.6275L81.6449 16.9939ZM94.0559 16.976C93.964 14.8322 95.3685 12.8964 97.393 12.5134C99.5929 12.0973 101.69 13.6725 102.077 16.0302C102.465 18.3871 100.997 20.6356 98.798 21.0516C96.5982 21.4677 94.5011 19.8925 94.1136 17.5348C94.0957 17.4258 94.0818 17.317 94.0717 17.2086C94.0761 17.1708 94.0772 17.132 94.0746 17.0926C94.072 17.0524 94.0656 17.0134 94.0559 16.976ZM82.7769 18.1456C82.3895 15.7886 83.8571 13.5402 86.0563 13.1242C88.2562 12.708 90.3532 14.2833 90.7407 16.6409C91.1281 18.9979 89.6606 21.2464 87.4613 21.6624C85.2615 22.0785 83.1644 20.5033 82.7769 18.1456Z" fill="#482D1F"/>
<path d="M91.319 24.3965C91.0513 24.3291 90.3968 24.1383 90.2986 23.7635C90.286 23.6872 90.2317 23.5795 90.2965 23.5279C90.4429 23.3036 90.9009 23.4136 91.5722 23.4832C92.76 23.5732 93.6968 23.4746 93.6968 23.4746C93.6968 23.4746 93.4416 24.1522 93.2534 24.3452C92.8957 24.8455 91.7059 24.52 91.319 24.3965Z" fill="#482D1F"/>
<path d="M68.3937 87.2051C68.4699 83.7796 68.529 80.7831 68.5711 78.2157C68.6132 75.6478 68.6723 71.4302 68.7485 65.5632C68.7526 65.241 68.9985 64.9834 69.2975 64.9878C69.5966 64.9924 69.8357 65.2573 69.8315 65.5795C69.7553 71.4478 69.6962 75.6666 69.654 78.2363C69.6119 80.8063 69.5527 83.8052 69.4765 87.233C69.4694 87.5552 69.2212 87.8101 68.9222 87.8026C68.6232 87.7947 68.3866 87.5272 68.3937 87.2051Z" fill="#482D1F"/>
<path d="M300.273 355.141L300.269 355.374C300.293 356.27 301.005 356.983 301.88 357L362.59 356.897C363.467 356.874 364.164 356.148 364.178 355.254L364.182 355.02C364.159 354.125 363.447 353.411 362.571 353.395L301.899 353.499C300.985 353.481 300.288 354.208 300.273 355.141ZM461.811 356.611L461.9 356.631L497.415 326.721C498.064 326.176 498.209 325.126 497.667 324.465L497.559 324.27C497.234 323.842 496.729 323.609 496.223 323.648C495.934 323.648 495.682 323.764 495.429 323.959L460.08 353.405L440.735 353.451C439.905 353.436 439.243 354.162 439.192 355.056L439.189 355.29C439.21 356.185 439.885 356.898 440.715 356.914L461.874 356.845C461.853 356.767 461.832 356.689 461.811 356.611Z" fill="#FF5645"/>
<path d="M300.744 353.969C301.035 353.669 301.439 353.49 301.899 353.498L362.571 353.395C362.667 353.396 362.762 353.407 362.854 353.425L360.418 329.227L332.69 329.142C329.355 331.491 327.185 333.188 326.181 334.233C324.675 335.8 323.063 337.248 321.31 338.499C317.073 341.493 314.871 341.451 308.428 344.715C306.681 345.577 305.004 346.557 303.361 347.654C301.719 348.752 301.157 349.986 300.694 351.845C300.617 352.155 300.612 352.466 300.571 352.738C300.561 353.351 300.63 353.718 300.744 353.969ZM495.432 323.957L482.825 305.34L461.093 323.118L460.443 325.452C457.916 334.995 456.544 340.027 456.328 340.545C456.067 341.152 455.797 341.713 455.513 342.26C453.55 343.12 451.321 343.962 447.916 345.797C446.183 346.692 444.523 347.703 442.898 348.831C441.274 349.959 440.732 351.204 440.299 353.071C440.263 353.228 440.245 353.385 440.231 353.537C440.389 353.478 440.558 353.448 440.735 353.451L460.08 353.405L495.429 323.959C495.43 323.958 495.431 323.957 495.432 323.957Z" fill="#474961"/>
<path d="M389.061 135.939C388.953 135.955 388.845 135.974 388.737 135.996C387.692 136.209 386.716 136.71 385.906 137.452C354.659 166.024 336.178 189.657 330.464 208.35C327.223 218.951 324.363 246.227 321.882 290.177C321.422 298.326 327.18 305.334 334.742 305.83C334.901 305.84 335.061 305.848 335.22 305.852L357.974 306.486C365.431 306.694 371.676 300.442 372.031 292.412L375.064 223.801C380.052 218.12 384.397 213.115 388.101 208.787C388.99 214.009 390.362 219.521 392.578 226.896C396.272 239.186 411.319 263.476 437.72 299.765L438.735 301.222C443.035 307.395 451.02 308.964 457.065 304.823L474.044 293.194C480.438 288.814 482.326 279.679 478.262 272.789C478.093 272.502 477.915 272.222 477.728 271.949L439.916 216.661C439.015 194.742 437.23 175.566 434.563 159.134C430.562 134.484 400.611 135.017 389.276 135.423C389.203 135.591 389.131 135.764 389.061 135.939Z" fill="#3ABF7C"/>
<path opacity="0.176986" d="M389.083 135.934C388.968 135.951 388.852 135.971 388.736 135.994C387.692 136.207 386.716 136.709 385.905 137.45C354.658 166.023 336.178 189.656 330.463 208.349C327.223 218.95 324.362 246.225 321.882 290.176C321.422 298.325 327.179 305.333 334.742 305.828C334.901 305.839 335.06 305.846 335.22 305.851L357.973 306.485C365.431 306.693 371.675 300.44 372.03 292.411L375.064 223.8C380.048 218.122 384.392 213.12 388.094 208.793C386.457 199.15 386.464 190.485 385.829 172.887C385.19 155.187 386.275 142.869 389.083 135.934Z" fill="#444444"/>
<path d="M367.561 44.6399L142.123 27.6529L131.975 184.041C131.697 188.327 134.696 192.045 138.674 192.345L349.706 208.246C353.684 208.546 357.134 205.314 357.413 201.028L367.561 44.6399Z" fill="#F2F6FB"/>
<path d="M355.482 60.9469L348.725 60.4378C348.327 60.4078 347.982 60.731 347.954 61.1596L347.768 64.0289C347.74 64.4576 348.04 64.8294 348.438 64.8593L355.195 65.3685C355.593 65.3985 355.938 65.0753 355.966 64.6467L356.152 61.7773C356.18 61.3487 355.88 60.9769 355.482 60.9469ZM181.28 47.8205L151.979 45.6127C151.581 45.5827 151.236 45.9059 151.209 46.3345L151.022 49.2038C150.994 49.6325 151.294 50.0042 151.692 50.0342L180.993 52.2421C181.391 52.2721 181.736 51.9489 181.764 51.5202L181.95 48.6509C181.978 48.2223 181.678 47.8505 181.28 47.8205ZM236.615 51.9901L207.314 49.7822C206.916 49.7522 206.571 50.0754 206.543 50.5041L206.357 53.3734C206.329 53.802 206.629 54.1738 207.027 54.2038L236.328 56.4117C236.726 56.4416 237.071 56.1185 237.098 55.6898L237.285 52.8205C237.313 52.3919 237.013 52.0201 236.615 51.9901ZM201.774 49.3648L186.819 48.2379C186.422 48.208 186.077 48.5311 186.049 48.9598L185.863 51.8291C185.835 52.2577 186.135 52.6295 186.533 52.6595L201.488 53.7864C201.885 53.8164 202.23 53.4932 202.258 53.0645L202.444 50.1952C202.472 49.7666 202.172 49.3948 201.774 49.3648Z" fill="#D8DEED"/>
<path d="M294.673 73.9268L337.603 83.2253C338.752 83.4742 339.539 84.7587 339.362 86.0943L326.162 185.273C325.984 186.609 324.908 187.49 323.759 187.241L280.829 177.942C279.68 177.693 278.892 176.409 279.07 175.073L292.27 75.8943C292.448 74.5587 293.523 73.6778 294.673 73.9268Z" fill="#D8DEED"/>
<path d="M305.273 181.597C303.322 181.221 301.975 179.296 302.263 177.298C302.551 175.3 304.365 173.985 306.316 174.36C308.266 174.736 309.614 176.66 309.326 178.659C309.038 180.657 307.223 181.972 305.273 181.597Z" fill="#F2F6FB"/>
<path d="M309.333 81.8998L314.81 82.6811C315.364 82.76 315.757 83.203 315.689 83.6704C315.621 84.1379 315.117 84.4529 314.564 84.374L309.086 83.5927C308.533 83.5138 308.14 83.0709 308.208 82.6034C308.276 82.1359 308.779 81.8209 309.333 81.8998Z" fill="#F2F6FB"/>
<path d="M294.476 86.1902L334.742 94.7725L324.004 174.247L283.738 165.665L294.476 86.1902Z" fill="#F2F6FB"/>
<path d="M307.233 137.196L317.422 138.986C317.673 139.03 317.789 138.881 317.682 138.653L312.244 127.086C312.137 126.859 311.912 126.815 311.738 126.991L305.669 133.207L304.021 129.678C303.915 129.451 303.686 129.401 303.504 129.572L297.606 135.139C297.426 135.309 297.482 135.483 297.734 135.53L302.136 136.344L307.233 137.196ZM304.149 127.253C305.045 127.41 305.871 126.86 305.995 126.024C306.118 125.188 305.492 124.383 304.596 124.226C303.7 124.068 302.873 124.618 302.75 125.454C302.626 126.29 303.253 127.095 304.149 127.253Z" fill="#D8DEED"/>
<path d="M262.222 101.683L169.389 94.6882C168.991 94.6582 168.646 94.9814 168.618 95.41L168.145 102.701C168.117 103.129 168.417 103.501 168.815 103.531L261.648 110.526C262.046 110.556 262.391 110.233 262.419 109.804L262.892 102.514C262.92 102.085 262.62 101.713 262.222 101.683ZM261.29 116.053L204.321 111.761C203.923 111.731 203.578 112.054 203.551 112.482L203.078 119.773C203.05 120.202 203.35 120.574 203.747 120.604L260.716 124.896C261.114 124.926 261.459 124.603 261.486 124.174L261.96 116.884C261.987 116.455 261.687 116.083 261.29 116.053ZM260.357 130.423L181.87 124.509C181.472 124.479 181.127 124.802 181.099 125.231L180.626 132.522C180.598 132.95 180.898 133.322 181.296 133.352L259.783 139.266C260.181 139.296 260.526 138.973 260.554 138.544L261.027 131.254C261.055 130.825 260.755 130.453 260.357 130.423Z" fill="#E1E5F0"/>
<path d="M186.717 81.5534L263.155 87.3132C263.553 87.3431 263.852 87.7149 263.825 88.1436L263.352 95.4344C263.324 95.863 262.979 96.1862 262.581 96.1562L186.143 90.3965C185.745 90.3666 185.445 89.9948 185.473 89.5661L185.946 82.2753C185.974 81.8467 186.319 81.5235 186.717 81.5534Z" fill="#D8DEED"/>
<path d="M252.754 153.176L215.153 150.343C212.874 150.171 211.962 150.374 211.048 150.815C210.135 151.256 209.396 151.949 208.864 152.862C208.331 153.775 208.018 154.72 207.859 157.176L207.664 160.17C207.505 162.625 207.693 163.608 208.102 164.592C208.512 165.576 209.154 166.373 210.002 166.946C210.849 167.52 211.726 167.858 214.005 168.029L251.606 170.863C253.885 171.034 254.797 170.832 255.711 170.391C256.624 169.95 257.363 169.257 257.895 168.344C258.428 167.431 258.741 166.486 258.9 164.03L259.095 161.036C259.254 158.581 259.066 157.598 258.657 156.614C258.247 155.63 257.605 154.833 256.757 154.259C255.91 153.686 255.033 153.348 252.754 153.176Z" fill="#474BFF"/>
<path d="M368.241 34.1623C368.519 29.8758 365.52 26.1579 361.539 25.8579L150.513 9.95701C146.533 9.65714 143.081 12.8906 142.803 17.1755L142.073 28.4288L367.511 45.4156L368.241 34.1623Z" fill="#E1E5F0"/>
<path d="M356.134 39.489C354.046 39.3317 352.471 37.3798 352.617 35.1295C352.763 32.8792 354.575 31.1825 356.663 31.3398C358.751 31.4972 360.326 33.449 360.18 35.6994C360.034 37.9497 358.223 39.6464 356.134 39.489Z" fill="#FF5645"/>
<path d="M343.53 38.5391C341.441 38.3818 339.867 36.43 340.013 34.1797C340.159 31.9294 341.97 30.2328 344.059 30.3901C346.147 30.5475 347.721 32.4993 347.575 34.7495C347.429 36.9998 345.618 38.6965 343.53 38.5391Z" fill="#FFCB3D"/>
<path d="M330.565 37.5623C328.477 37.405 326.902 35.4532 327.048 33.2029C327.194 30.9526 329.006 29.256 331.094 29.4133C333.183 29.5707 334.757 31.5225 334.611 33.7727C334.465 36.023 332.654 37.7197 330.565 37.5623Z" fill="#3ABF7C"/>
<path d="M435.216 104.743L439.209 105.538C439.359 105.568 439.511 105.581 439.662 105.576C440.858 105.541 441.801 104.467 441.768 103.179C441.449 90.6421 440.276 82.4626 438.25 78.6402C437.657 77.5213 436.893 76.6196 436.009 75.9212C432.395 72.2258 426.247 70.1428 418.914 68.7982L416.888 68.4131C413.754 67.8402 410.735 67.8832 407.931 68.4266C404.434 68.5706 400.128 69.4453 396.212 72.2268C395.591 72.6618 394.266 73.595 392.804 75.1343C392.804 75.1343 389.935 78.1048 386.191 88.2166C385.757 89.4155 385.127 91.407 384.299 94.191C383.995 95.214 384.519 96.3089 385.468 96.6365C385.533 96.6589 385.599 96.6773 385.666 96.6916L390.205 97.6665L389.009 113.559C388.976 113.987 388.949 114.377 388.88 114.798C388.589 116.797 388.579 119.323 389.776 121.644C391.491 125.051 394.214 129.913 408.46 132.462C421.711 134.822 425.564 131.209 428.174 128.703C430.041 126.925 430.825 124.15 431.174 122.242C431.243 121.82 431.341 121.444 431.446 121.029L435.216 104.743Z" fill="#FF5645"/>
<path opacity="0.176986" d="M407.994 68.4209C400.965 69.7641 395.287 74.252 392.55 80.0685C391.655 81.9525 391.198 84.0775 391.072 86.1868L390.208 97.6671L385.683 96.7177C385.616 96.7036 385.55 96.6855 385.485 96.6633C384.534 96.3399 384.007 95.2473 384.307 94.2229C385.128 91.4191 385.756 89.4172 386.191 88.2171C389.935 78.1053 392.804 75.1349 392.804 75.1349C394.265 73.5955 395.591 72.6624 396.212 72.2274C400.19 69.4019 404.488 68.5441 407.994 68.4209Z" fill="#444444"/>
<path d="M359.1 306.513C358.697 306.54 358.29 306.548 357.88 306.537L335.126 305.903C334.967 305.898 334.807 305.891 334.648 305.881C333.3 305.792 332.009 305.497 330.8 305.025L333.094 329.342H360.418L359.1 306.513ZM452.477 306.858L461.093 323.118L482.825 305.34L475.071 292.39C474.715 292.691 474.341 292.977 473.95 293.245L456.971 304.874C455.555 305.844 454.033 306.5 452.477 306.858ZM372.227 126.176L366.981 126.804C364.746 125.535 344.386 114.152 343.059 119.673C343.059 119.673 343.147 119.874 343.354 120.219L333.874 116.722C328.646 124.607 333.071 136.933 333.142 136.976C345.239 142.695 354.32 145.733 360.386 146.091C361.087 146.133 361.713 146.085 362.264 145.947C362.274 146.019 362.283 146.091 362.293 146.163C381.431 148.637 401.495 147.721 422.484 143.416C427.534 142.38 433.121 129.714 439.244 105.419C439.185 105.412 439.126 105.403 439.067 105.392L415.506 100.699C415.296 100.657 415.098 100.584 414.916 100.484L409.112 121.765L391.271 123.899C390.687 123.051 390.262 122.233 389.885 121.485C388.689 119.164 388.699 116.638 388.989 114.639C389.058 114.218 389.085 113.828 389.119 113.4L390.344 97.1214L385.793 96.2567C385.696 96.2384 385.602 96.2117 385.51 96.1769C385.385 96.13 385.269 96.07 385.161 95.9989L380.293 106.838C376.252 104.428 364.481 88.6684 364.481 88.6684C364.481 88.6684 363.855 97.6146 362.604 115.507L372.227 126.176ZM410.729 64.1402L410.315 67.8383C402.989 68.1609 399.66 71.2298 398.538 72.5679C398.538 72.5679 406.267 74.0888 421.726 77.1304C425.894 73.5288 432.099 72.7121 435.954 75.8449C433.814 73.611 430.117 71.6883 424.864 70.0769C423.489 69.6554 422.181 69.3013 420.936 69.0077L422.282 55.2138C422.36 55.166 422.439 55.1155 422.517 55.0618C423.925 54.0588 424.987 52.1908 424.785 49.998C424.615 47.9756 423.21 45.1928 421.499 44.8598C420.538 44.6631 417.858 45.5412 418.047 44.6293C418.173 44.0214 418.913 40.7982 420.265 34.9598C420.379 34.3485 420.048 33.7291 419.49 33.568C418.225 33.2432 416.974 33.1639 415.733 32.4431C415.594 32.4028 415.463 32.325 415.324 32.2847C414.176 31.7921 407.784 28.9397 402.903 33.0881C402.486 33.4108 402.077 33.8563 401.657 34.3394C400.668 35.4632 400.015 36.8857 399.711 38.4088L398.318 45.2153C398.219 45.9118 398.086 46.5982 398.057 47.3149C397.527 56.062 399.514 62.7977 402.387 63.8688C402.727 64.0071 404.6 64.5884 406.956 64.5839C407.184 64.5691 406.982 64.6315 410.228 64.1997C410.4 64.1799 410.566 64.16 410.729 64.1402Z" fill="#F2A98A"/>
<path opacity="0.2" d="M372.503 126.388L362.604 115.562C363.855 97.6327 364.48 88.6682 364.48 88.6682C364.48 88.6682 376.252 104.428 380.293 106.838L385.066 96.3509C385.195 96.4468 385.338 96.526 385.493 96.5846C385.586 96.6194 385.68 96.6461 385.777 96.6644L390.328 97.5292L389.103 113.808C389.069 114.236 389.042 114.626 388.973 115.047C388.683 117.046 388.673 119.572 389.869 121.893C390.223 122.597 390.621 123.362 391.153 124.157L372.503 126.388Z" fill="#8C2A00"/>
<path d="M344.654 126.5C342.869 125.947 341.489 125.468 338.419 124.362C335.334 123.251 333.944 122.768 332.138 122.209C331.851 122.12 331.551 122.299 331.468 122.609C331.386 122.919 331.552 123.242 331.839 123.331C333.625 123.884 335.005 124.363 338.075 125.469C341.16 126.58 342.55 127.062 344.355 127.621C344.643 127.71 344.943 127.531 345.025 127.222C345.108 126.912 344.942 126.589 344.654 126.5ZM345.599 134.509C343.655 133.764 342.14 133.224 338.762 132.053C335.394 130.886 333.886 130.349 331.956 129.609C331.674 129.501 331.364 129.66 331.264 129.963C331.164 130.267 331.311 130.601 331.593 130.709C333.537 131.454 335.052 131.993 338.43 133.164C341.798 134.332 343.306 134.869 345.236 135.608C345.518 135.716 345.827 135.558 345.928 135.254C346.028 134.95 345.881 134.617 345.599 134.509Z" fill="#482D1F"/>
<path d="M432.863 45.0247C432.892 43.522 432.668 41.8817 431.951 40.2667C431.267 38.6596 430.275 37.6886 429.852 37.2846C427.522 35.0815 425.278 35.239 420.006 33.5958C418.899 33.2361 417.27 32.7253 415.373 31.936C415.224 31.9333 415.094 31.8555 414.955 31.8152C413.806 31.3226 407.509 29.1419 402.884 33.1628C402.865 33.238 402.167 33.6405 402.174 33.7633C402.174 33.7633 406.985 44.9382 417.039 47.2169C417.308 46.9044 418.021 46.1643 419.09 45.6953C419.213 45.6504 420.086 45.2982 421.046 45.4949C422.757 45.8278 424.146 47.7591 424.315 49.7815C424.536 51.8993 423.483 53.7297 422.11 54.7427C420.737 55.7558 419.258 55.6913 418.777 55.6731L418.212 55.4975C417.724 56.504 417.384 57.5883 417.778 58.4156C418.539 60.0137 419.956 60.9363 422.028 61.1835C423.945 63.7973 427.079 65.6214 430.715 65.8954C436.98 66.3674 442.363 62.0591 442.739 56.2725C443.098 50.7313 438.735 45.8438 432.863 45.0247ZM397.854 43.1585C398.488 43.4625 399.576 43.8974 400.646 43.8036C402.311 43.7205 400.966 42.3656 399.518 42.028C398.811 41.8642 398.194 42.0889 397.806 42.2989C397.496 42.4915 397.524 42.9826 397.854 43.1585ZM404.618 45.1117C405.288 45.4258 406.376 45.8607 407.48 45.7769C409.136 45.7315 407.8 44.339 406.352 44.0014C405.61 43.8275 404.994 44.0522 404.605 44.2622C404.261 44.4447 404.288 44.9359 404.618 45.1117Z" fill="#482D1F"/>
<path d="M399.75 46.807C399.792 46.3359 399.527 45.897 399.109 45.7762C398.83 45.6956 398.549 45.7755 398.313 46.2714C397.77 47.4034 398.421 49.4441 399.043 48.8986C399.504 48.5484 399.661 47.466 399.75 46.807ZM406.013 48.3738C406.055 47.9027 405.79 47.4638 405.372 47.343C405.093 47.2625 404.812 47.3423 404.576 47.8382C404.033 48.9702 404.684 51.0109 405.306 50.4654C405.767 50.1152 405.958 49.0429 406.013 48.3738Z" fill="#482D1F"/>
<path d="M402.382 55.4605C402.645 55.4558 403.293 55.4015 403.501 55.0184C403.52 54.9433 403.582 54.8407 403.566 54.7555C403.483 54.4898 403.001 54.4716 402.355 54.3655C401.211 54.1561 400.333 53.7816 400.333 53.7816C400.333 53.7816 400.425 54.6136 400.552 54.8518C400.752 55.5536 401.97 55.4625 402.382 55.4605Z" fill="#482D1F"/>
<path d="M401.491 47.6162L400.082 51.4896L400.07 51.5309C399.968 51.941 400.134 52.397 400.496 52.5748C400.564 52.6022 400.602 52.6164 400.641 52.6304C401.003 52.7627 401.267 52.8431 402.217 53.1174C402.409 53.173 402.607 53.0498 402.659 52.8423C402.711 52.6348 402.596 52.4215 402.404 52.3659C401.47 52.0964 401.214 52.0183 400.872 51.8935C400.837 51.8805 400.801 51.8673 400.766 51.8538C400.774 51.8561 400.755 51.8041 400.764 51.7473L402.173 47.8737L402.188 47.8196L402.67 45.5825C402.715 45.3732 402.594 45.1642 402.4 45.1157C402.206 45.0671 402.012 45.1974 401.967 45.4067L401.491 47.6162Z" fill="#482D1F"/>
<path d="M414.445 100.328C415.323 96.6869 416.26 92.9021 417.256 88.9735C417.335 88.6626 417.633 88.4795 417.921 88.5645C418.21 88.6495 418.38 88.9704 418.301 89.2812C417.306 93.2052 416.37 96.9852 415.493 100.621C415.418 100.933 415.122 101.12 414.833 101.039C414.543 100.958 414.37 100.64 414.445 100.328Z" fill="#482D1F"/>
</svg>
