<svg width="585" height="546" viewBox="0 0 585 546" fill="none" xmlns="http://www.w3.org/2000/svg">
<path d="M395.818 308.193C408.793 307.992 422.134 307.942 435.841 308.044C456.617 308.2 453.545 310.153 464.232 308.2C470.739 307.011 474.429 304.702 476.321 305.024C477.536 305.231 478.009 306.524 478.009 309.897C478.009 315.647 475.639 327.634 470.899 345.858L442.237 413.298L431.561 444.495C428.22 454.258 419.685 460.79 410.079 460.935L341.945 461.965L382.544 313.896C383.493 310.434 386.448 308.076 389.779 308.122L395 308.194C395.272 308.198 395.545 308.198 395.818 308.193Z" fill="#A339FF"/>
<path d="M444.269 471.478C444.094 473.565 442.476 475.2 440.505 475.2H433.827L450.696 543.436C450.687 543.691 449.387 544.257 447.641 544.764C446.835 544.998 446.02 545.193 445.463 545.271C444.906 545.348 444.546 545.348 444.517 545.23L427.205 475.2H32.5884L15.2758 545.23C15.1505 545.446 13.7638 545.232 12.0178 544.725C11.2119 544.491 10.4158 544.218 9.8979 543.984C9.38004 543.749 9.0685 543.554 9.09757 543.436L25.9666 475.2H21.2651C19.1778 475.2 17.4856 473.366 17.4856 471.103C17.4856 468.841 19.1778 467.007 21.2651 467.007H437.694L486.348 313.855C487.028 311.716 489.179 310.578 491.152 311.315C493.126 312.052 494.175 314.383 493.495 316.522L444.269 471.478Z" fill="#D8DEED"/>
<path d="M573.371 104.62H356.482C350.06 104.62 344.853 110.263 344.853 117.224V170.795C344.853 177.756 350.06 183.399 356.482 183.399H573.371C579.793 183.399 585 177.756 585 170.795V117.224C585 110.263 579.793 104.62 573.371 104.62Z" fill="#E1E5F0"/>
<path d="M367.216 142.125H488.706C489.348 142.125 489.869 142.689 489.869 143.385V149.97C489.869 150.666 489.348 151.231 488.706 151.231H367.216C366.573 151.231 366.053 150.666 366.053 149.97V143.385C366.053 142.689 366.573 142.125 367.216 142.125ZM367.216 156.922H499.199C499.841 156.922 500.362 157.486 500.362 158.182V164.767C500.362 165.463 499.841 166.028 499.199 166.028H367.216C366.573 166.028 366.053 165.463 366.053 164.767V158.182C366.053 157.486 366.573 156.922 367.216 156.922Z" fill="#F2F6FB"/>
<path d="M501.297 127.327H367.216C366.573 127.327 366.053 127.892 366.053 128.588V135.173C366.053 135.869 366.573 136.433 367.216 136.433H501.297C501.939 136.433 502.46 135.869 502.46 135.173V128.588C502.46 127.892 501.939 127.327 501.297 127.327Z" fill="#F2F6FB"/>
<path d="M573.371 15.1257H356.482C350.06 15.1257 344.853 20.7691 344.853 27.7305V81.3008C344.853 88.2622 350.06 93.9055 356.482 93.9055H573.371C579.793 93.9055 585 88.2622 585 81.3008V27.7305C585 20.7691 579.793 15.1257 573.371 15.1257Z" fill="#F2F6FB"/>
<path d="M548.629 167.166C537.039 167.166 527.643 156.974 527.643 144.401C527.643 131.828 537.039 121.636 548.629 121.636C560.219 121.636 569.615 131.828 569.615 144.401C569.615 156.974 560.219 167.166 548.629 167.166ZM387.038 77.2978C375.448 77.2978 366.053 67.1056 366.053 54.5328C366.053 41.9601 375.448 31.7678 387.038 31.7678C398.629 31.7678 408.024 41.9601 408.024 54.5328C408.024 67.1056 398.629 77.2978 387.038 77.2978Z" fill="#474BFF"/>
<path fill-rule="evenodd" clip-rule="evenodd" d="M387.028 54.2252C384.17 54.2252 381.853 51.746 381.853 48.6878C381.853 45.6295 384.17 43.1503 387.028 43.1503C389.886 43.1503 392.202 45.6295 392.202 48.6878C392.202 51.746 389.886 54.2252 387.028 54.2252ZM387.028 56.9939C392.208 56.9939 396.407 61.4874 396.407 67.0305H377.649C377.649 61.4874 381.848 56.9939 387.028 56.9939ZM548.618 144.093C545.76 144.093 543.444 141.614 543.444 138.556C543.444 135.498 545.76 133.019 548.618 133.019C551.476 133.019 553.793 135.498 553.793 138.556C553.793 141.614 551.476 144.093 548.618 144.093ZM548.618 146.862C553.798 146.862 557.997 151.356 557.997 156.899H539.239C539.239 151.356 543.438 146.862 548.618 146.862Z" fill="white"/>
<path d="M419.68 49.9799H541.17C541.813 49.9799 542.333 50.5442 542.333 51.2403V57.8254C542.333 58.5215 541.813 59.0858 541.17 59.0858H419.68C419.038 59.0858 418.517 58.5215 418.517 57.8254V51.2403C418.517 50.5442 419.038 49.9799 419.68 49.9799ZM419.68 64.7771H562.156C562.798 64.7771 563.319 65.3414 563.319 66.0375V72.6226C563.319 73.3187 562.798 73.883 562.156 73.883H419.68C419.038 73.883 418.517 73.3187 418.517 72.6226V66.0375C418.517 65.3414 419.038 64.7771 419.68 64.7771Z" fill="#E1E5F0"/>
<path d="M511.79 35.1826H419.68C419.038 35.1826 418.517 35.7469 418.517 36.443V43.0281C418.517 43.7242 419.038 44.2886 419.68 44.2886H511.79C512.432 44.2886 512.953 43.7242 512.953 43.0281V36.443C512.953 35.7469 512.432 35.1826 511.79 35.1826Z" fill="#E1E5F0"/>
<path d="M42.4851 311.744L42.1892 311.945C41.0859 312.766 40.7837 314.383 41.4924 315.612L91.3976 400.273C92.1556 401.469 93.6472 401.796 94.7814 401.028L95.0772 400.828C96.1806 400.006 96.4827 398.389 95.774 397.16L45.8996 312.553C45.1601 311.27 43.6686 310.943 42.4851 311.744ZM170.531 465.743L76.9145 465.743C75.4694 465.743 74.2979 467.013 74.2979 468.579C74.2979 470.145 75.4694 471.415 76.9145 471.415L170.531 471.415C171.976 471.415 173.148 470.145 173.148 468.579C173.148 467.013 171.976 465.743 170.531 465.743Z" fill="#FFCB3D"/>
<path d="M45.4672 311.834C45.6459 312.004 45.8061 312.206 45.9411 312.44L95.8155 397.048C96.0587 397.47 96.1829 397.937 96.1965 398.403L125.015 379.734L103.989 337.791L91.9642 332.633C88.6791 331.811 85.468 330.641 82.3617 329.178C74.9103 325.53 73.08 322.236 63.3545 315.594C60.7413 313.797 58.0911 312.173 55.2436 310.683C53.5795 310.176 50.4053 309.427 47.6686 310.389C47.2125 310.549 46.818 310.816 46.442 310.997C46.0736 311.246 45.7505 311.53 45.4672 311.834ZM76.6162 465.654C76.7274 465.639 76.8408 465.63 76.956 465.63L170.573 465.63C170.701 465.63 170.828 465.641 170.951 465.66L170.951 423.517L131.173 423.517C123.662 429.106 119.112 432.761 117.522 434.484C115.138 437.068 112.522 439.4 109.731 441.48C102.928 446.395 99.3806 446.332 89.0304 451.752C86.2394 453.202 83.5646 454.778 80.8899 456.605C78.2151 458.433 77.3429 460.387 76.6451 463.412C76.5288 463.916 76.5288 464.42 76.4707 464.861C76.4707 465.153 76.5229 465.416 76.6162 465.654Z" fill="#474961"/>
<path opacity="0.176986" d="M45.4656 311.832C45.6452 312.002 45.8061 312.205 45.9416 312.441L95.816 397.048C96.0588 397.469 96.183 397.936 96.1969 398.4L125.012 379.734L103.986 337.791L91.9608 332.633C88.6757 331.811 85.4646 330.641 82.3583 329.178C74.9069 325.53 73.0766 322.236 63.3511 315.595C60.7379 313.797 58.0877 312.174 55.2402 310.684C53.5761 310.176 50.402 309.427 47.6653 310.389C47.2091 310.549 46.8146 310.816 46.4386 310.997C46.071 311.246 45.7485 311.529 45.4656 311.832Z" fill="#444444"/>
<path d="M109.632 359.098L101.309 331.421C99.9107 326.77 101.794 321.702 105.776 319.4L123.56 309.116C132.374 294.204 144.554 284.438 161.549 291.914C162.073 292.145 162.615 292.392 163.175 292.655L162.681 292.347C191.193 275.047 208.801 265.403 215.506 263.415C222.211 261.427 229.019 264.31 235.93 272.064L308.19 381.518C352.173 384.364 374.222 398.4 374.337 423.624C374.451 448.849 361.985 464.237 336.939 469.79C312.238 472.028 291.94 471.255 276.045 467.472C258.036 468.523 242.616 465.947 229.786 459.745C209.166 449.778 189.887 427.858 171.946 393.986L171.051 424.078H110.327C107.115 424.078 104.512 421.256 104.512 417.775C104.512 417.636 104.516 417.496 104.525 417.356C105.962 393.997 107.665 374.578 109.632 359.098Z" fill="#DE3190"/>
<path opacity="0.176986" d="M276.171 467.465C258.108 468.535 242.646 465.962 229.786 459.745C209.166 449.778 189.886 427.858 171.946 393.986L171.051 424.078H110.326C107.115 424.078 104.512 421.256 104.512 417.776C104.512 417.636 104.516 417.496 104.525 417.356C107.706 365.665 112.184 333.265 117.959 320.156C126.99 299.654 140.617 282.706 161.549 291.914C162.289 292.24 163.065 292.598 163.875 292.988L202.897 317.33L207.271 338.336C217.548 399.17 230.663 437.293 246.616 452.705C253.681 459.53 263.533 464.45 276.171 467.465Z" fill="#444444"/>
<path d="M373.393 303.327C378.503 303.654 384.468 305.236 389.85 309.77C396.19 315.077 398.747 321.134 403.374 333.345C407.215 343.487 410.52 352.463 406.728 357.729C403.953 361.583 399.091 361.583 395.824 361.343C390.983 360.315 386.479 359.93 382.093 359.771L371.658 384.384C370.599 387.611 363.221 407.853 361.049 410.351C354.845 417.543 339.085 410.398 313.77 388.918C307.382 382.724 305.6 375.311 308.425 366.679C310.048 361.161 311.564 356.041 312.973 351.319C309.736 350.845 305.043 349.57 303.088 345.736C300.11 339.887 305.05 331.647 310.617 322.497C317.264 311.452 320.845 306.038 327.965 302.088C332.347 299.671 336.758 298.82 340.78 298.801C348.256 297.07 359.868 296.662 373.393 303.327Z" fill="#FFCB3D"/>
<path opacity="0.176986" d="M312.77 351.42C309.559 350.898 305.174 349.574 303.302 345.901C300.324 340.052 305.445 331.93 310.831 322.663C317.387 311.381 321.059 305.797 328.179 301.847C332.294 299.577 336.435 298.742 340.255 298.695C337.25 299.425 334.949 300.36 333.505 301.102C329.854 302.959 328.836 304.539 326.164 309.703C324.663 312.606 320.198 326.511 312.77 351.42Z" fill="#444444"/>
<path d="M276.563 319.011L276.562 319.085L317.067 319.682C318.753 319.701 320.159 318.193 320.177 316.366L320.261 311.196C320.279 309.369 318.888 307.845 317.202 307.825L276.779 307.275L276.779 307.232L272.442 310.323C270.549 311.633 270.496 314.53 272.346 315.849L276.563 319.011Z" fill="#474BFF"/>
<path d="M362.879 287.943C363.846 291.235 365.404 295.53 367.553 300.827C364.87 299.842 361.972 299.09 358.859 298.571C354.189 297.792 352.092 297.72 349.764 297.714L349.331 293.834C345.746 295.173 345.951 295.052 345.631 295.203C343.095 295.879 340.525 296.048 337.973 295.84C332.994 295.242 327.546 285.087 325.444 270.768C325.269 269.559 325.208 268.42 325.147 267.28L325.062 255.789C325.015 253.136 325.602 250.645 326.756 248.438C327.205 247.58 327.771 246.729 328.336 245.878C334.81 237.221 345.98 238.612 348.059 238.983C348.291 238.996 348.52 239.072 348.81 239.089C350.935 239.714 353.019 239.959 355.167 240.081C356.155 240.137 356.873 240.935 356.821 242.005L356.55 258.461C356.556 259.535 361.35 258.528 362.401 258.461C365.2 258.368 368.922 260.852 369.934 264.002C370.705 267.328 370.194 271.908 368.162 274.19C367.425 274.99 365.68 279.566 362.928 287.918C362.919 287.923 362.902 287.932 362.879 287.943ZM310.42 319.605L313.572 319.651C314.983 322.494 316.32 325.168 317.462 327.426C318.701 328.751 319.576 329.682 319.694 329.825C347.27 361.759 361.076 377.734 361.111 377.751C361.241 377.745 361.526 375.813 362.215 368.557C362.267 367.096 362.42 363.546 362.673 359.196C373.879 360.202 383.813 358.791 395.825 361.343C397.578 361.472 399.844 361.478 401.985 360.912C401.165 368.457 399.873 378.578 397.661 390.422C391.009 425.983 385.097 429.684 382.487 430.77C380.26 431.697 373.422 433.778 361.112 424.388C356.174 419.521 351.194 414.29 346.226 408.719C332.226 393.05 320.336 377.022 310.221 361.243C308.424 366.361 307.421 370.065 307.21 372.354C307.006 374.578 307.534 377.492 308.58 381.518C308.608 381.627 308.479 381.627 308.191 381.518L300.025 369.287C300.916 367.715 302.668 362.396 305.282 353.33C301.371 346.895 297.749 340.519 294.395 334.244L282.583 319.297C281.509 317.882 281.605 315.79 282.934 314.569L284.115 313.552C284.647 313.064 285.276 312.81 285.909 312.768L285.108 311.755C284.035 310.34 284.13 308.247 285.46 307.026L286.641 306.009C287.504 305.216 288.611 305.006 289.59 305.351C289.398 304.221 289.736 303.019 290.623 302.205L291.804 301.188C293.133 299.967 295.069 300.211 296.167 301.569L297.398 303.127C296.472 298.784 296.802 294.67 300.641 293.311C300.641 293.311 303.829 299.863 307.685 307.717L300.953 307.625L310.42 319.605Z" fill="#F2A98A"/>
<path d="M381.692 260.767C381.905 261.974 382.074 263.125 382.295 264.278C383.102 264.451 383.964 264.689 384.93 265.185C385.611 265.54 390.279 267.761 392.22 272.163C395 278.506 392.01 288.56 383.038 294.677C382.558 294.965 382.143 295.131 382.143 295.131C380.6 295.737 379.142 295.781 377.626 295.821C377.336 295.804 376.984 295.848 376.984 295.848C373.812 295.625 370.433 295.386 366.847 295.131C364.845 294.782 363.568 292.927 363.015 289.568C362.864 288.652 362.801 287.529 362.777 286.265C362.623 283.933 362.347 279.673 362.153 276.261C364.087 275.992 365.88 275.021 367.234 273.521C369.382 271.244 370.071 267.813 369.117 264.666C368.105 261.516 365.198 259.016 362.399 259.109C361.348 259.176 360.339 259.56 359.38 260.137C358.17 261.078 357.125 262.218 356.471 263.695L353.615 270.98L353.666 271.027C353.627 271.033 353.589 271.037 353.554 271.04C348.343 271.627 346.056 250.292 334.937 246.631C332.357 245.791 329.56 246.082 327.968 246.496C332.754 236.478 348.011 238.605 348.301 238.621C351.767 239.197 354.99 240.134 356.848 240.24C366.01 241.012 369.613 239.955 374.137 242.736C375.833 243.779 377.398 245.13 378.536 246.899C381.589 251.523 381.911 257.017 381.692 260.767ZM332.579 264.817C332.005 264.658 331.87 263.83 332.298 263.413C332.903 262.942 333.856 262.491 335.015 262.62C337.506 262.888 339.975 264.795 337.216 265.27C335.569 265.618 333.726 265.198 332.579 264.817ZM322.72 264.005C322.149 263.783 322.072 262.958 322.613 262.61C323.273 262.206 324.165 261.815 325.434 262.076C327.857 262.529 330.199 264.682 327.332 264.961C325.578 265.113 323.863 264.448 322.72 264.005Z" fill="#482D1F"/>
<path d="M327.453 267.387C327.426 267.041 327.664 266.736 327.984 266.707C328.305 266.679 328.585 266.937 328.612 267.284L328.897 271.023L328.898 271.102L328.633 277.775C328.652 277.852 328.704 277.904 328.78 277.916C328.98 277.906 329.184 277.912 329.409 277.93C329.584 277.945 329.717 277.961 330.025 278.002C330.918 278.122 331.309 278.123 331.812 277.948C332.118 277.842 332.446 278.024 332.544 278.356C332.641 278.687 332.473 279.042 332.167 279.148C331.455 279.395 330.935 279.394 329.883 279.253C329.592 279.215 329.471 279.2 329.319 279.187C329.127 279.171 328.961 279.167 328.805 279.177L328.741 279.177C328.063 279.139 327.545 278.585 327.472 277.884L327.469 277.786L327.735 271.088L327.453 267.387Z" fill="#482D1F"/>
<path d="M333.166 283.632C333.574 283.577 334.624 283.345 334.868 282.656C334.87 282.53 334.989 282.343 334.933 282.216C334.764 281.898 332.962 281.864 332.962 281.864C330.577 281.882 329.997 281.745 329.818 282.056C329.757 282.244 329.753 282.496 330.15 283.071C330.598 284.151 332.524 283.746 333.166 283.632Z" fill="#482D1F"/>
<path d="M349.134 293.824L353.94 291.951L349.739 297.513L349.134 293.824Z" fill="#482D1F"/>
<path d="M326.576 272.175C325.818 273.395 323.984 270.387 324.491 268.333C324.649 267.459 325.184 267.237 325.594 267.197C326.232 267.233 326.905 267.776 326.923 268.598C327.046 269.678 327.135 271.45 326.576 272.175ZM336.016 272.494C335.201 273.71 333.424 270.706 333.931 268.652C334.09 267.778 334.625 267.555 335.034 267.516C335.673 267.552 336.345 268.095 336.364 268.916C336.486 269.996 336.633 271.772 336.016 272.494Z" fill="#482D1F"/>
<path d="M245.69 282.078C244.185 283.264 243.851 285.552 244.944 287.184L294.81 361.574C295.904 363.206 298.015 363.569 299.521 362.383C301.026 361.198 301.36 358.909 300.267 357.277L250.401 282.887C249.307 281.255 247.196 280.893 245.69 282.078Z" fill="#474961"/>
<path opacity="0.2" d="M305.351 353.564C302.725 362.679 300.965 368.025 300.071 369.602L308.236 381.833C308.524 381.942 308.654 381.942 308.626 381.833C307.58 377.807 307.051 374.893 307.256 372.669C307.469 370.354 308.492 366.594 310.327 361.388L305.351 353.564Z" fill="#8C2A00"/>
<path d="M361.88 344.127C361.843 344.186 361.769 344.305 361.667 344.479C361.494 344.774 361.306 345.109 361.11 345.48C360.356 346.904 359.713 348.406 359.298 349.865C358.191 353.753 358.908 356.262 362.162 357.177C362.629 357.308 362.909 357.824 362.788 358.329C362.667 358.834 362.191 359.138 361.724 359.007C357.315 357.768 356.267 354.101 357.631 349.308C358.089 347.697 358.784 346.075 359.596 344.54C359.806 344.142 360.009 343.781 360.196 343.462C360.31 343.269 360.395 343.13 360.444 343.053C360.718 342.623 361.261 342.516 361.658 342.812C362.054 343.109 362.154 343.698 361.88 344.127Z" fill="#482D1F"/>
<path d="M106.451 0H312.872C319.295 0 324.502 5.64335 324.502 12.6048V187.181C324.502 189.269 322.94 190.962 321.013 190.962H98.3101C96.3833 190.962 94.8213 189.269 94.8213 187.181V12.6048C94.8213 5.64335 100.028 0 106.451 0Z" fill="#F2F6FB"/>
<path d="M304.922 42.0764H110.488C109.203 42.0764 108.162 43.2051 108.162 44.5974V95.0689C108.162 96.4612 109.203 97.5898 110.488 97.5898H304.922C306.207 97.5898 307.248 96.4612 307.248 95.0689V44.5974C307.248 43.2051 306.207 42.0764 304.922 42.0764Z" fill="#A339FF"/>
<path d="M214.742 65.0599C216.06 65.0599 217.128 63.8915 217.128 62.4503C217.128 61.009 216.06 59.8407 214.742 59.8407C213.424 59.8407 212.355 61.009 212.355 62.4503C212.355 63.8915 213.424 65.0599 214.742 65.0599Z" fill="#F2F6FB"/>
<path d="M214.882 80.8622C214.882 80.8622 214.363 80.8622 213.714 80.8622H193.73C193.085 80.8622 192.838 80.3803 193.175 79.794L202.923 62.8236C203.262 62.2336 203.827 62.2315 204.18 62.8122L212.672 76.8849" fill="#F2F6FB"/>
<path d="M207.766 80.8776C207.766 80.8776 208.038 80.4022 208.382 79.8031L213.89 70.195C214.23 69.6016 214.799 69.5831 215.163 70.1558L221.112 79.5238C221.475 80.0956 221.253 80.5764 220.612 80.598L215.68 80.7636" fill="#F2F6FB"/>
<path d="M109.325 107.582H178.834C179.477 107.582 179.997 108.147 179.997 108.843V115.204C179.997 115.9 179.477 116.464 178.834 116.464H109.325C108.683 116.464 108.162 115.9 108.162 115.204V108.843C108.162 108.147 108.683 107.582 109.325 107.582ZM109.325 122.016H158.31C158.952 122.016 159.473 122.58 159.473 123.276V129.637C159.473 130.334 158.952 130.898 158.31 130.898H109.325C108.683 130.898 108.162 130.334 108.162 129.637V123.276C108.162 122.58 108.683 122.016 109.325 122.016ZM109.325 136.449H168.572C169.214 136.449 169.735 137.014 169.735 137.71V144.071C169.735 144.767 169.214 145.331 168.572 145.331H109.325C108.683 145.331 108.162 144.767 108.162 144.071V137.71C108.162 137.014 108.683 136.449 109.325 136.449ZM109.325 150.883H148.048C148.69 150.883 149.211 151.447 149.211 152.143V158.504C149.211 159.201 148.69 159.765 148.048 159.765H109.325C108.683 159.765 108.162 159.201 108.162 158.504V152.143C108.162 151.447 108.683 150.883 109.325 150.883ZM201.685 122.016H273.246C273.889 122.016 274.409 122.58 274.409 123.276V129.637C274.409 130.334 273.889 130.898 273.246 130.898H201.685C201.042 130.898 200.522 130.334 200.522 129.637V123.276C200.522 122.58 201.042 122.016 201.685 122.016ZM201.685 136.449H282.482C283.125 136.449 283.645 137.014 283.645 137.71V144.071C283.645 144.767 283.125 145.331 282.482 145.331H201.685C201.042 145.331 200.522 144.767 200.522 144.071V137.71C200.522 137.014 201.042 136.449 201.685 136.449ZM201.685 150.883H291.718C292.361 150.883 292.881 151.447 292.881 152.143V158.504C292.881 159.201 292.361 159.765 291.718 159.765H201.685C201.042 159.765 200.522 159.201 200.522 158.504V152.143C200.522 151.447 201.042 150.883 201.685 150.883ZM201.685 165.316H264.01C264.653 165.316 265.173 165.881 265.173 166.577V172.938C265.173 173.634 264.653 174.198 264.01 174.198H201.685C201.042 174.198 200.522 173.634 200.522 172.938V166.577C200.522 165.881 201.042 165.316 201.685 165.316ZM201.685 107.582H291.718C292.361 107.582 292.881 108.147 292.881 108.843V115.204C292.881 115.9 292.361 116.464 291.718 116.464H201.685C201.042 116.464 200.522 115.9 200.522 115.204V108.843C200.522 108.147 201.042 107.582 201.685 107.582Z" fill="#E1E5F0"/>
<path d="M94.8213 10.7999C94.8213 4.83528 99.2807 0 104.783 0H314.54C320.042 0 324.502 4.83397 324.502 10.7999V21.5998H94.8213V10.7999Z" fill="#E1E5F0"/>
<path d="M108.185 15.709C110.562 15.709 112.489 13.621 112.489 11.0454C112.489 8.46974 110.562 6.38177 108.185 6.38177C105.808 6.38177 103.881 8.46974 103.881 11.0454C103.881 13.621 105.808 15.709 108.185 15.709Z" fill="#FF5645"/>
<path d="M122.229 15.709C124.606 15.709 126.533 13.621 126.533 11.0454C126.533 8.46974 124.606 6.38177 122.229 6.38177C119.852 6.38177 117.925 8.46974 117.925 11.0454C117.925 13.621 119.852 15.709 122.229 15.709Z" fill="#FFCB3D"/>
<path d="M136.726 15.709C139.102 15.709 141.029 13.621 141.029 11.0454C141.029 8.46974 139.102 6.38177 136.726 6.38177C134.349 6.38177 132.422 8.46974 132.422 11.0454C132.422 13.621 134.349 15.709 136.726 15.709Z" fill="#3ABF7C"/>
</svg>
