<svg width="570" height="424" viewBox="0 0 570 424" fill="none" xmlns="http://www.w3.org/2000/svg">
<path d="M466.05 0H348.506C344.149 0 340.617 3.75532 340.617 8.38774V100.653C340.617 105.285 344.149 109.041 348.506 109.041H466.05C470.407 109.041 473.939 105.285 473.939 100.653V8.38774C473.939 3.75532 470.407 0 466.05 0Z" fill="#F2F6FB"/>
<path d="M361.284 86.6231L381.186 54.4271C383.075 51.3703 387.216 51.0552 389.487 53.7948L397.517 63.4551C401.18 67.8555 407.823 67.1808 410.625 62.1308L429.774 27.5595C431.69 24.0963 436.268 23.8579 438.525 27.0921L458.837 56.5445C459.31 57.2305 460.215 57.3778 460.859 56.8734C461.503 56.3691 461.641 55.4041 461.168 54.7181L440.851 25.2588C437.358 20.2543 430.253 20.6243 427.282 25.9922L408.134 60.5622C406.332 63.8106 402.043 64.2463 399.681 61.4094L391.653 51.7515C388.121 47.4908 381.707 47.9788 378.771 52.7307L358.869 84.9265C358.429 85.6375 358.614 86.5937 359.281 87.0621C359.948 87.5306 360.845 87.3341 361.284 86.6231Z" fill="#E1E5F0"/>
<path d="M369.412 75.4033C371.808 75.4033 373.751 73.3326 373.751 70.7782C373.751 68.2238 371.808 66.1531 369.412 66.1531C367.015 66.1531 365.073 68.2238 365.073 70.7782C365.073 73.3326 367.015 75.4033 369.412 75.4033Z" fill="#3ABF7C"/>
<path d="M417.797 50.4558C420.193 50.4558 422.136 48.3851 422.136 45.8307C422.136 43.2763 420.193 41.2056 417.797 41.2056C415.401 41.2056 413.458 43.2763 413.458 45.8307C413.458 48.3851 415.401 50.4558 417.797 50.4558Z" fill="#FFCB3D"/>
<path d="M217.55 0H88.5664C87.2593 0 86.1997 1.1266 86.1997 2.51632V106.524C86.1997 107.914 87.2593 109.041 88.5664 109.041H217.55C218.857 109.041 219.917 107.914 219.917 106.524V2.51632C219.917 1.1266 218.857 0 217.55 0Z" fill="#F2F6FB"/>
<path d="M192.797 58.5847H197.453C199.211 58.5847 199.849 58.7794 200.492 59.1449C201.135 59.5104 201.639 60.0468 201.983 60.7302C202.327 61.4136 202.51 62.0916 202.51 63.961V109.04H187.74V63.961C187.74 62.0916 187.923 61.4136 188.267 60.7302C188.611 60.0468 189.115 59.5104 189.758 59.1449C190.401 58.7794 191.039 58.5847 192.797 58.5847Z" fill="#D8DEED"/>
<path d="M175.917 70.6382H180.838C182.596 70.6382 183.233 70.8328 183.876 71.1983C184.519 71.5639 185.023 72.1002 185.367 72.7837C185.711 73.4671 185.894 74.145 185.894 76.0145V109.041H170.861V76.0145C170.861 74.145 171.044 73.4671 171.388 72.7837C171.731 72.1002 172.236 71.5639 172.879 71.1983C173.522 70.8328 174.159 70.6382 175.917 70.6382Z" fill="#D8DEED"/>
<path d="M159.302 33.0767H163.958C165.716 33.0767 166.354 33.2713 166.997 33.6368C167.64 34.0023 168.144 34.5387 168.488 35.2221C168.832 35.9056 169.015 36.5835 169.015 38.453V109.041H154.245V38.453C154.245 36.5835 154.428 35.9056 154.772 35.2221C155.116 34.5387 155.62 34.0023 156.263 33.6368C156.906 33.2713 157.543 33.0767 159.302 33.0767Z" fill="#E1E5F0"/>
<path d="M142.422 42.8875H147.079C148.837 42.8875 149.475 43.0821 150.117 43.4476C150.76 43.8131 151.265 44.3495 151.608 45.0329C151.952 45.7164 152.135 46.3943 152.135 48.2637V109.041H137.366V48.2637C137.366 46.3943 137.549 45.7164 137.893 45.0329C138.236 44.3495 138.741 43.8131 139.384 43.4476C140.026 43.0821 140.664 42.8875 142.422 42.8875Z" fill="#D8DEED"/>
<path d="M125.807 65.8728H130.463C132.221 65.8728 132.859 66.0675 133.502 66.433C134.144 66.7985 134.649 67.3348 134.993 68.0183C135.336 68.7017 135.52 69.3796 135.52 71.2491V109.041H120.75V71.2491C120.75 69.3796 120.933 68.7017 121.277 68.0183C121.621 67.3348 122.125 66.7985 122.768 66.433C123.411 66.0675 124.048 65.8728 125.807 65.8728Z" fill="#D8DEED"/>
<path d="M108.927 54.3802H113.584C115.342 54.3802 115.979 54.5749 116.622 54.9404C117.265 55.3059 117.77 55.8423 118.113 56.5257C118.457 57.2092 118.64 57.8871 118.64 59.7565V109.041H103.871V59.7565C103.871 57.8871 104.054 57.2092 104.397 56.5257C104.741 55.8423 105.246 55.3059 105.888 54.9404C106.531 54.5749 107.169 54.3802 108.927 54.3802Z" fill="#D8DEED"/>
<path d="M555.865 330.734V330.812C555.865 331.819 555.037 332.658 554.09 332.658H524.309L534.802 353.124C542.296 367.718 549.751 382.271 557.206 396.866L569.552 420.938C569.986 421.777 569.631 422.868 568.803 423.371L568.645 423.455C567.817 423.958 566.752 423.664 566.357 422.868L520.168 332.658H489.401L443.212 422.868C442.817 423.664 441.752 423.916 440.924 423.455L440.766 423.371C439.938 422.868 439.583 421.777 440.017 420.938L452.363 396.866C459.857 382.271 467.312 367.718 474.767 353.124L485.26 332.658H445.776C444.79 332.658 444.001 331.819 444.001 330.812V330.603C444.001 329.596 444.829 328.757 445.776 328.757H472.598C490.072 328.757 507.585 328.757 525.099 328.757H552.383L555.707 300.155C557.995 280.696 560.244 261.194 562.531 241.693L566.279 209.484C566.397 208.351 567.304 207.513 568.29 207.638L568.487 207.68C569.434 207.806 570.105 208.855 569.986 209.903L555.905 330.519C555.894 330.592 555.881 330.664 555.865 330.734Z" fill="#D8DEED"/>
<path d="M173.945 261.072C173.552 261.81 172.806 262.31 171.952 262.31H115.27C114.008 262.31 113.022 261.219 113.022 259.877C113.022 258.535 114.048 257.445 115.27 257.445H170.404L189.623 202.463C190.057 201.205 191.359 200.576 192.542 201.037C193.725 201.499 194.317 202.882 193.883 204.141L174.121 260.674C174.073 260.815 174.014 260.948 173.945 261.072Z" fill="#474961"/>
<path d="M14.1348 330.314V330.393C14.1348 331.399 14.9631 332.238 15.9098 332.238H45.691L35.1982 352.704C27.7037 367.299 20.2487 381.852 12.7937 396.446L0.447571 420.519C0.0136719 421.358 0.368683 422.448 1.19701 422.951L1.35478 423.035C2.18312 423.539 3.24813 423.245 3.64258 422.448L49.8321 332.238H80.5988L126.788 422.448C127.183 423.245 128.248 423.497 129.076 423.035L129.234 422.951C130.062 422.448 130.417 421.358 129.983 420.519L117.637 396.446C110.143 381.852 102.688 367.299 95.2327 352.704L84.7399 332.238H124.224C125.21 332.238 125.999 331.399 125.999 330.393V330.183C125.999 329.177 125.171 328.338 124.224 328.338H97.4021C79.9282 328.338 62.4149 328.338 44.9015 328.338H17.6174L14.2926 299.736C12.0048 280.276 9.75646 260.775 7.46868 241.273L3.72146 209.064C3.60313 207.932 2.6959 207.093 1.70979 207.219L1.51256 207.261C0.565903 207.387 -0.10466 208.435 0.0136719 209.484L14.0954 330.099C14.1056 330.173 14.1188 330.244 14.1348 330.314Z" fill="#D8DEED"/>
<path d="M253.208 332.49H222.007C221.061 332.49 220.232 331.651 220.232 330.644V330.435C220.232 329.428 221.061 328.589 222.086 328.589H250.999C268.512 328.589 286.026 328.589 303.499 328.589H330.322C331.268 328.589 332.097 329.428 332.097 330.435V330.644C332.097 331.651 331.308 332.49 330.322 332.49H292.257L302.75 352.956C310.205 367.55 317.66 382.103 325.155 396.698L337.501 420.771C337.935 421.609 337.58 422.7 336.751 423.203L336.593 423.287C335.765 423.748 334.7 423.497 334.306 422.7L288.116 332.49H257.349L211.16 422.7C210.766 423.497 209.701 423.79 208.872 423.287L208.714 423.203C207.886 422.7 207.531 421.609 207.965 420.771L220.311 396.698C227.766 382.103 235.221 367.55 242.716 352.956L253.208 332.49ZM220.351 316.055V291.67C220.351 273.073 220.351 254.518 220.351 235.963V213.803C220.351 210.329 223 207.513 226.267 207.513H290.641C293.908 207.513 296.557 210.329 296.557 213.803V316.127C296.557 319.601 293.908 322.418 290.641 322.418C290.639 322.418 290.636 322.418 290.634 322.418L226.261 322.346C222.996 322.342 220.351 319.527 220.351 316.055Z" fill="#D8DEED"/>
<path d="M347.204 423.581H284.526C283.54 423.581 282.751 422.742 282.751 421.693C282.751 420.645 283.54 419.806 284.526 419.806H347.204C348.19 419.806 348.979 420.645 348.979 421.693C348.979 422.742 348.19 423.581 347.204 423.581ZM232.341 423.581C231.355 423.581 230.566 422.855 230.566 421.984V421.403C230.566 420.532 231.395 419.806 232.341 419.806H272.772C273.758 419.806 274.547 420.532 274.547 421.403V421.984C274.547 422.855 273.719 423.581 272.772 423.581H232.341Z" fill="#A339FF"/>
<path d="M347.824 419.923C347.631 419.847 347.422 419.806 347.204 419.806H284.526C284.241 419.806 283.972 419.876 283.734 420.002C283.685 419.82 283.659 419.628 283.659 419.429L285.039 396.237C284.96 394.978 285.868 394.014 287.011 393.972L312.138 393.804C312.571 393.804 312.966 393.93 313.321 394.224C317.818 399.34 322.117 402.192 325.233 403.869C327.639 405.17 335.686 408.776 339.315 410.538C341.169 411.418 342.944 412.467 344.679 413.599C344.798 413.683 344.876 413.725 344.995 413.851C345.902 414.732 347.283 416.325 347.795 418.212C347.874 418.464 347.874 418.674 347.914 418.925C347.953 419.135 347.914 419.345 347.914 419.555V419.596C347.892 419.709 347.862 419.818 347.824 419.923ZM272.999 419.819C272.925 419.811 272.849 419.806 272.772 419.806H232.341C232.34 419.806 232.338 419.806 232.336 419.806L241.492 393.846L269.735 397.914L272.999 419.819Z" fill="#474961"/>
<path d="M283.04 321.468C281.676 322.52 280.487 323.436 279.472 324.215L278.965 333.12C278.728 337.829 278.452 341.965 278.136 345.609C277.9 348.475 274.863 380.947 273.758 392.863C273.521 395.566 271.825 397.859 269.498 398.596C265.988 399.743 239.639 398.432 238.653 397.941C237.39 397.327 236.72 397.04 236.049 396.344C233.683 393.969 233.84 390.202 233.801 388.809C233.564 378.286 232.854 346.633 232.854 324.48C232.854 324.407 232.854 324.334 232.854 324.262C230.253 321.888 227.955 318.318 226.155 313.886C223.418 307.189 221.748 298.48 221.702 289.026C221.702 288.909 221.702 283.219 221.702 271.957C221.702 271.913 221.702 271.913 221.702 271.869C221.748 268.762 224.531 266.311 227.825 266.311H264.237C269.293 266.486 274.302 266.661 279.358 266.836C287.228 267.057 298.424 267.382 312.947 267.81C318.625 267.978 323.755 271.459 326.288 276.865C327.495 279.441 328.229 281.558 328.489 283.216C330.05 286.149 330.914 289.576 330.834 293.225C330.834 293.307 330.834 293.348 330.834 293.43C330.203 327.055 322.827 374.957 322.314 391.156C322.275 391.769 322.117 393.119 321.289 394.551C318.725 398.928 312.729 397.946 298.727 398.315C286.814 398.642 282.002 399.624 279.556 396.024C278.215 394.06 278.255 391.81 278.294 390.788C279.401 367.502 281.08 343.967 283.04 321.468Z" fill="#474BFF"/>
<path opacity="0.176986" d="M283.027 321.622C281.659 322.678 280.471 323.592 279.463 324.365L280.977 297.781C281.016 295.939 281.213 284.801 273.364 277.717C267.644 272.598 260.702 272.27 256.087 272.066C248.987 271.738 243.465 273.867 242.4 274.277C241.059 274.809 240.388 275.096 239.718 275.464C232.065 279.723 232.657 300.197 232.736 303.923C232.814 308.56 232.853 315.738 232.854 324.088C230.33 321.716 228.098 318.212 226.342 313.886C223.605 307.189 221.935 298.479 221.889 289.026C221.889 288.909 221.889 283.219 221.889 271.957C221.889 271.913 221.889 271.913 221.889 271.869C221.935 268.762 224.718 266.311 228.012 266.311H264.424C269.48 266.486 274.489 266.661 279.545 266.836C287.415 267.057 298.611 267.382 313.134 267.81C318.812 267.978 323.942 271.459 326.475 276.865C327.804 279.701 328.559 281.981 328.74 283.705C325.735 277.656 319.81 273.573 313.005 273.713C309.692 273.794 306.418 273.876 303.105 273.958C294.23 274.203 286.854 281.526 285.907 291.098C284.906 300.965 283.936 311.183 283.027 321.622Z" fill="#444444"/>
<path d="M273.038 179.485C276.124 179.546 280.98 180.167 285.778 183.131C286.604 183.634 287.825 184.47 289.164 185.684C290.306 186.729 293.653 190.202 296.843 199.992C297.985 203.422 301.332 210.116 303.262 213.798C303.892 215.011 303.144 216.517 301.805 216.643C297.584 216.965 292.378 218.807 287.459 218.817C287.864 226.643 288.15 235.978 288.258 246.389C288.258 246.389 288.888 258.781 285.266 262.797C284.639 263.503 272.874 262.768 260.378 263.19C246.978 263.643 232.702 265.111 229.381 261.409C224.01 255.422 227.08 253.801 232.01 219.696C231.238 219.781 230.519 219.856 229.879 219.918C224.9 220.421 214.471 220.086 209.453 219.876C208.12 219.834 207.257 218.241 207.806 216.899C209.453 212.831 212.354 205.493 213.216 201.761C215.686 191.11 218.783 187.21 219.842 186.036C221.057 184.694 222.277 183.781 223.018 183.143C225.5 181.002 233.328 179.458 246.501 178.51C252.179 176.454 258.662 177.044 262.859 177.442C265.793 177.725 269.493 178.075 273.038 179.485Z" fill="#A339FF"/>
<path opacity="0.176986" d="M273.167 179.497C276.268 179.605 280.918 180.299 285.514 183.141C286.343 183.644 287.566 184.483 288.907 185.699C290.051 186.748 293.403 190.229 296.598 200.042C297.742 203.481 301.332 210.1 303.264 213.791C303.895 215.007 303.146 216.517 301.805 216.643C300.572 216.737 299.184 217.01 297.865 217.242C297.342 217.334 295.899 217.513 295.256 217.657C292.148 218.354 290.336 218.817 287.438 218.817C287.424 218.817 287.409 218.817 287.394 218.817C286.769 206.749 285.862 198.262 284.882 194.933C284.211 192.668 283.239 190.068 283.239 190.068C282.766 188.6 282.003 187.091 280.464 185.036C278.391 182.297 275.828 180.592 273.167 179.497ZM263.882 183.969C263.172 188.415 261.871 189.727 261.871 189.727C258.873 187.882 248.183 182.124 249.169 178.978C249.248 178.769 249.406 178.349 250.432 177.678C254.297 175.162 259.031 176.378 260.687 176.882C260.687 176.882 268.3 175.959 269.759 180.698C271.219 185.437 269.483 188.792 269.483 188.792C268.221 187.981 266.354 186.374 263.882 183.969Z" fill="#444444"/>
<path d="M288.209 252.619L287.438 218.817L297.89 217.242L301.083 258.691C301.357 258.842 301.623 258.991 301.881 259.138C304.141 260.426 306.015 262.771 307.501 266.173C307.576 266.345 307.614 266.532 307.611 266.721C307.602 267.416 307.064 267.971 306.411 267.961L223.346 266.683C203.516 262.502 208.91 233.904 212.793 220.009C218.243 220.19 225.941 220.336 230.014 219.926C233.863 219.554 240.547 218.734 244.478 218.108L237.43 240.56C256.356 241.559 274.943 247.164 288.209 252.619ZM266.087 174.152L265.909 181.888C258.363 184.847 253.01 180.294 253.01 180.294C253.01 180.294 253.294 174.529 253.86 162.997C253.768 162.789 253.679 162.568 253.593 162.334C252.883 160.447 250.328 154.251 250.88 152.112C250.981 151.66 248.874 144.938 251.96 141.548C254.891 138.328 263.018 138.419 263.345 138.44C264.725 138.481 266.106 138.44 267.605 138.104C267.763 138.104 267.92 138.062 268.078 138.062C269.419 137.936 276.953 137.559 280.819 143.514C281.174 144.017 281.489 144.563 281.765 145.234C282.357 146.785 282.633 148.463 282.515 150.14L281.963 157.605C281.884 158.36 281.765 159.115 281.608 159.828C280.464 165.113 278.61 169.432 276.638 172.158C275.178 174.213 273.6 175.387 272.22 175.429C271.825 175.471 269.695 175.429 267.21 174.633C267.049 174.575 267.09 174.616 266.087 174.152Z" fill="#F2A98A"/>
<path d="M245.467 218.038C245.336 218.357 244.988 218.503 244.688 218.365C244.389 218.226 244.251 217.855 244.382 217.537C245.145 215.67 245.452 214.626 246.044 211.901C246.117 211.562 246.435 211.351 246.753 211.429C247.072 211.507 247.27 211.845 247.197 212.184C246.59 214.979 246.262 216.094 245.467 218.038ZM237.847 239.682C238.173 239.65 238.461 239.904 238.492 240.25C238.523 240.596 238.284 240.902 237.959 240.935C237.882 240.943 237.731 240.961 237.518 240.991C237.159 241.042 236.758 241.11 236.326 241.195C235.093 241.439 233.861 241.78 232.716 242.231C232.04 242.497 231.415 242.795 230.852 243.125C230.565 243.292 230.205 243.181 230.048 242.877C229.89 242.572 229.995 242.19 230.281 242.022C230.899 241.661 231.577 241.338 232.305 241.051C233.519 240.573 234.815 240.215 236.109 239.958C236.562 239.869 236.983 239.798 237.361 239.744C237.494 239.725 237.613 239.71 237.716 239.697C237.779 239.69 237.823 239.685 237.847 239.682Z" fill="#482D1F"/>
<path opacity="0.2" d="M301.015 258.734C297.759 256.925 293.365 254.797 288.138 252.643L287.367 218.817L297.818 217.242L301.015 258.734Z" fill="#8C2A00"/>
<path d="M266.098 174.164L265.988 178.449L260.542 171.501C260.62 171.541 260.699 171.583 260.781 171.625C261.57 172.045 262.556 172.506 263.818 173.093C264.924 173.617 265.634 173.95 266.098 174.164Z" fill="#482D1F"/>
<path d="M261.724 154.218L261.688 153.412C261.688 153.412 261.531 151.902 260.545 150.392C260.466 150.308 259.795 149.386 258.77 148.924C256.916 148.169 254.47 149.05 253.129 150.853C251.709 152.699 251.709 155.173 252.458 157.06C253.208 158.948 254.667 159.828 255.18 160.08L257.468 160.835L257.478 160.83C255.479 163.947 253.738 166.664 253.738 166.664C253.738 166.664 250.447 163.435 248.987 160.877C248.277 159.619 245.753 156.557 245.319 151.734C245.201 150.14 244.727 144.73 248.119 140.746C249.303 139.362 250.644 138.691 251.196 138.398C254.312 136.93 256.6 137.81 262.596 137.936C263.069 137.936 263.858 137.978 264.883 137.936C266.737 137.894 268.039 137.81 268.394 137.81C271.352 137.685 277.782 138.649 280.622 143.304C280.78 143.64 280.977 143.933 281.135 144.185C280.306 144.479 279.399 145.024 278.295 145.234C275.297 145.737 272.733 145.108 271.195 144.521C268.197 147.54 265.16 150.518 262.162 153.537C262.025 153.75 261.878 153.978 261.724 154.218Z" fill="#DE6903"/>
<path d="M279.685 158.917C279.804 158.414 280.277 158.037 280.75 158.12C281.066 158.162 281.302 158.414 281.421 159.001C281.539 160.469 280.04 162.314 279.606 161.434C279.33 160.847 279.567 159.63 279.685 158.917ZM271.352 157.773C271.47 157.27 271.944 156.893 272.417 156.976C272.733 157.018 272.969 157.27 273.088 157.857C273.206 159.325 271.707 161.17 271.273 160.29C270.958 159.702 271.194 158.486 271.352 157.773Z" fill="#482D1F"/>
<path d="M276.993 159.204L277.032 163.397C277.032 163.413 276.972 163.477 276.953 163.477C276.737 163.477 276.517 163.462 276.173 163.427C276.106 163.42 276.036 163.412 275.935 163.401C275.809 163.388 275.739 163.38 275.673 163.373C275.445 163.349 275.256 163.329 275.055 163.311C274.838 163.291 274.646 163.462 274.627 163.692C274.609 163.923 274.769 164.126 274.986 164.146C275.184 164.165 275.369 164.183 275.594 164.208C275.66 164.215 275.728 164.222 275.856 164.236C275.957 164.247 276.028 164.254 276.097 164.261C276.464 164.299 276.707 164.316 276.953 164.316C277.408 164.316 277.821 163.876 277.821 163.393L277.782 159.195C277.779 158.964 277.601 158.778 277.383 158.78C277.165 158.782 276.99 158.972 276.993 159.204Z" fill="#482D1F"/>
<path d="M274.231 166.538C273.955 166.412 273.285 166.077 273.245 165.658C273.245 165.574 273.206 165.448 273.285 165.406C273.482 165.196 273.955 165.406 274.665 165.616C275.927 165.951 276.953 166.035 276.953 166.035C276.953 166.035 276.559 166.706 276.322 166.874C275.849 167.335 274.626 166.748 274.231 166.538Z" fill="#482D1F"/>
<path d="M275.982 159.663C275.353 162.22 273.165 164.106 270.563 164.106C267.469 164.106 264.962 161.44 264.962 158.151C264.962 157.422 265.085 156.723 265.311 156.077L262.184 154.646C261.872 154.542 261.697 154.19 261.794 153.858C261.891 153.526 262.223 153.341 262.535 153.444L265.835 154.955C266.83 153.296 268.575 152.196 270.563 152.196C273.656 152.196 276.164 154.862 276.164 158.151C276.164 158.24 276.162 158.329 276.159 158.417L277.389 158.553C277.923 155.856 280.174 153.831 282.87 153.831C285.963 153.831 288.471 156.497 288.471 159.786C288.471 163.075 285.963 165.742 282.87 165.742C279.782 165.742 277.278 163.085 277.268 159.804L275.982 159.663ZM266.557 156.167C266.293 156.77 266.145 157.442 266.145 158.151C266.145 160.745 268.123 162.848 270.563 162.848C273.003 162.848 274.981 160.745 274.981 158.151C274.981 155.557 273.003 153.454 270.563 153.454C268.888 153.454 267.43 154.445 266.681 155.906C266.678 155.92 266.675 155.933 266.671 155.947C266.646 156.03 266.607 156.104 266.557 156.167ZM278.464 159.429C278.456 159.547 278.452 159.666 278.452 159.786C278.452 162.381 280.43 164.484 282.87 164.484C285.309 164.484 287.287 162.381 287.287 159.786C287.287 157.192 285.309 155.089 282.87 155.089C280.623 155.089 278.769 156.872 278.488 159.179C278.492 159.22 278.492 159.263 278.488 159.306C278.484 159.349 278.476 159.39 278.464 159.429Z" fill="#482D1F"/>
<path d="M78.3076 423.204C78.2686 423.177 78.2302 423.149 78.1927 423.119L38.5904 391.749C37.8015 391.12 37.6437 389.904 38.2354 389.065C38.8271 388.226 39.971 388.058 40.7599 388.687L79.9386 419.722H101.268C102.254 419.722 103.082 420.603 103.082 421.651C103.082 422.7 102.254 423.58 101.268 423.58H79.376C78.9749 423.58 78.6063 423.442 78.3076 423.204ZM204.415 423.58H141.738C140.752 423.58 139.963 422.742 139.963 421.693C139.963 420.645 140.752 419.806 141.738 419.806H204.415C205.401 419.806 206.19 420.645 206.19 421.693C206.19 422.742 205.401 423.58 204.415 423.58Z" fill="#DE3190"/>
<path d="M204.814 419.958C204.629 419.889 204.429 419.851 204.221 419.851H141.544C141.378 419.851 141.218 419.875 141.067 419.919C140.941 419.645 140.87 419.337 140.87 419.009L140.278 395.817C140.2 394.559 141.107 393.594 142.251 393.552L169.349 393.385C169.783 393.385 170.177 393.511 170.532 393.804C175.029 398.921 179.328 401.772 182.445 403.45C184.851 404.75 192.897 408.357 196.526 410.118C198.38 410.999 200.155 412.047 201.891 413.18C202.009 413.264 202.088 413.306 202.206 413.431C203.114 414.312 204.494 415.906 205.007 417.793C205.086 418.045 205.086 418.254 205.125 418.506C205.165 418.716 205.125 418.925 205.125 419.135V419.177C205.069 419.464 204.961 419.728 204.814 419.958ZM101.872 419.97C101.629 419.841 101.358 419.767 101.074 419.767H79.7444L40.7144 388.85L55.4333 366.67L79.1789 384.997C80.4806 389.694 81.8217 394.391 83.1628 399.13C83.8728 401.605 84.5828 404.037 85.2928 406.47C87.5017 407.392 89.395 408.231 90.7361 408.86C93.3 410.034 95.4695 411.125 97.8362 412.76C97.8362 412.76 99.8873 414.102 101.031 416.032C101.386 416.661 101.702 417.374 101.899 418.129C101.978 418.464 101.978 418.8 102.017 419.093C102.005 419.369 101.946 419.677 101.872 419.97Z" fill="#474961"/>
<path d="M151.815 267.733L162.588 267.583C165.822 267.373 169.885 269.512 172.922 271.945C173.553 272.448 174.106 272.993 174.618 273.58C175.092 274.125 175.565 274.713 175.959 275.342C177.695 277.984 178.602 281.129 178.563 284.358C178.484 291.362 177.695 296.814 177.182 298.618C173.829 309.647 165.231 351.041 173.869 368.949C173.869 368.949 178.247 377.966 177.301 384.718C176.936 387.431 175.534 390.606 175.095 391.551C175.105 391.565 175.115 391.579 175.125 391.593C171.828 396.65 130.877 404.079 99.4137 393.091C95.1163 391.59 88.8426 389.862 81.6637 386.465C81.3481 386.339 81.0326 386.171 80.7565 385.962C75.9048 382.648 71.0531 379.377 66.2014 376.064L54.0131 367.76C51.6859 366.167 51.0153 362.979 52.5142 360.673L62.4148 345.323L68.3314 336.139C69.9881 333.538 71.7237 330.854 73.4987 328.128C74.3433 328.157 72.8181 328.087 68.9231 327.919C55.3443 327.331 37.6436 324.563 30.9381 313.114C27.5458 307.285 26.9542 301.162 26.6781 298.352C25.1397 281.954 32.8344 273.507 35.3558 270.84C37.0368 269.062 41.2691 266.209 48.0527 262.282L92.2164 265.052L134.835 266.73C134.907 266.692 143.756 265.999 151.815 267.733Z" fill="#FFCB3D"/>
<path opacity="0.2" d="M151.678 267.735L162.588 267.583C165.822 267.373 169.885 269.512 172.922 271.944C173.553 272.448 174.106 272.993 174.618 273.58C175.092 274.125 175.565 274.712 175.96 275.341C177.695 277.984 178.602 281.129 178.563 284.358C178.484 291.362 177.695 296.814 177.182 298.617C173.83 309.647 165.231 351.041 173.869 368.949C173.869 368.949 178.247 377.965 177.301 384.718C176.93 387.473 175.49 390.705 175.075 391.593C171.52 386.538 157.451 363.465 163.026 324.02C163.184 323.014 166.644 301.271 166.644 295.274C166.644 273.615 161.71 270.533 153.153 268.116C152.667 267.979 152.175 267.852 151.678 267.735Z" fill="#8C2A00"/>
<path d="M91.6161 300.112C89.67 303.242 87.6204 306.283 82.644 313.521C77.6508 320.783 75.5949 323.834 73.6294 326.995C73.3892 327.381 73.489 327.901 73.8524 328.157C74.2159 328.412 74.7053 328.306 74.9456 327.92C76.8917 324.79 78.9413 321.749 83.9177 314.511C88.9109 307.248 90.9669 304.198 92.9323 301.037C93.1726 300.651 93.0727 300.13 92.7093 299.875C92.3458 299.619 91.8564 299.725 91.6161 300.112Z" fill="#482D1F"/>
<path d="M71.6674 185.829C74.7446 185.607 78.6948 186.213 82.0975 189.695C85.4108 193.05 83.8331 195.986 88.8031 204.961C91.2881 209.406 93.6547 212.342 92.787 215.11C92.4714 216.144 91.5379 217.109 89.9864 218.004C86.5416 218.479 84.4247 218.759 83.6358 218.842C83.4234 218.863 83.1802 218.888 82.93 218.915L82.2947 230.746L82.2553 231.166L81.1508 252.009L80.9142 256.077C80.9142 256.413 80.8747 256.707 80.8353 257.042C80.7958 257.419 80.7564 257.755 80.7169 258.132C80.5986 259.097 80.4014 260.02 80.1647 260.942C80.0464 261.32 79.9675 261.697 79.8097 262.075L39.4974 261.739L35.1795 218.916C31.9832 218.799 28.584 218.675 24.9819 218.542C23.0622 217.787 21.9052 216.907 21.5107 215.9C20.4457 213.174 23.4435 209.987 26.5596 205.206C32.8313 195.644 30.8985 192.834 35.0008 189.101C40.4376 184.152 45.9824 183.414 49.7391 183.684C49.8224 183.658 49.906 183.632 49.9897 183.607C51.9619 183.02 54.0919 182.769 56.2613 182.894L64.9391 183.482C67.3318 183.617 69.5954 184.466 71.6674 185.829Z" fill="#DE3190"/>
<path opacity="0.176986" d="M71.5244 185.84C74.6215 185.589 78.6419 186.159 82.0975 189.695C85.4109 193.05 83.8331 195.986 88.8031 204.961C91.2881 209.406 93.6548 212.342 92.787 215.11C92.4714 216.144 91.5379 217.109 89.9864 218.004C86.5416 218.479 84.4248 218.759 83.6359 218.842C83.3736 218.868 83.0645 218.901 82.7532 218.934L83.3423 207.963C82.6718 200.037 78.6879 191.524 72.929 186.868C72.4716 186.5 72.0031 186.156 71.5244 185.84Z" fill="#444444"/>
<path d="M81.4353 243.325L82.0802 231.156L82.1196 230.736L82.7571 218.864L89.3055 218.011L91.3433 244.227C95.6898 244.605 100.063 244.963 104.463 245.299C109.235 245.677 114.008 246.012 118.702 246.306C119.35 245.904 124.756 245.375 130.984 246.306C132.898 246.592 135.707 247.428 139.41 248.813C146.432 250.998 151.143 252.55 153.544 253.469C157.146 254.846 153.544 257.42 148.522 257.42C147.512 257.42 133.118 257.983 128.935 258.608C129.006 258.598 129.08 258.587 129.157 258.577L131.622 259.289C132.891 259.619 134.103 260.12 135.29 260.831C136.349 261.463 137.408 262.095 138.467 262.728C138.757 262.927 139.019 263.253 139.159 263.667C139.609 264.909 139.474 267.154 138.467 267.149L77.3116 265.151C78.3378 265.07 79.3622 264.986 80.3864 264.898C70.9882 265.634 61.5698 266.088 50.897 266.017C44.6647 265.975 43.087 265.765 41.1936 264.717C33.0681 260.229 31.4903 247.228 30.1886 235.863C29.6521 231.458 29.2507 225.664 29.5121 218.77C42.0523 219.23 51.8661 219.584 58.9535 219.834C58.9512 220.173 58.9479 220.498 58.9437 220.807C58.9042 225.169 58.7859 229.195 59.1409 235.15C59.2987 237.624 59.3381 239.679 59.417 241.022C66.6713 241.851 74.0123 242.619 81.4353 243.325ZM68.4523 181.191L67.9154 183.403C69.7614 184.14 71.3628 185.517 73.1042 186.921C72.8676 188.011 72.4337 188.766 71.9209 189.311C68.8048 192.624 58.8384 189.814 49.1745 183.524C49.9704 183.287 52.1177 182.356 55.9459 182.244C56.2545 182.236 56.6157 182.235 57.0297 182.244C57.9513 180.218 58.8363 178.386 59.803 176.12C59.7883 176.111 59.7778 176.105 59.772 176.1L60.7581 168.468C60.7187 168.006 60.837 168.384 60.4425 168.216C59.4564 167.839 58.5887 167.126 57.9181 166.203C56.7742 164.525 56.5375 162.177 57.3264 160.08C58.2337 158.109 60.4031 156.683 62.2964 157.018C63.0064 157.144 63.6376 157.48 64.2292 157.983L64.2687 158.025C64.4659 158.235 64.742 158.318 64.9787 158.36C65.6492 158.402 66.2409 157.941 66.3198 157.228L67.4242 146.324C67.4637 145.611 67.069 145.304 67.7395 145.346C68.7125 145.43 70.3212 145.43 72.5655 145.346C72.7627 145.346 74.2842 145.346 74.442 145.346C75.3846 145.513 82.6104 145.108 86.2787 151.399C86.5942 152.028 86.9098 152.615 87.1465 153.244C87.7381 154.796 87.9354 156.515 87.7381 158.235L86.7915 165.825C86.6731 166.58 86.5154 167.335 86.3181 168.09C83.7937 177.359 79.3365 183.566 75.9442 183.524C74.2087 183.44 72.4731 183.104 70.8559 182.433C70.6437 182.32 70.7803 182.41 68.4523 181.191Z" fill="#DB9E75"/>
<path opacity="0.2" d="M81.243 243.546L81.8959 231.225L81.9353 230.806L82.5739 218.914L89.3053 218.011L91.1924 244.452C87.86 244.162 84.5434 243.86 81.243 243.546ZM129.143 258.624L131.381 259.266C132.651 259.597 133.905 260.033 135.093 260.744C136.151 261.376 137.408 262.095 138.467 262.727C138.757 262.927 139.019 263.253 139.159 263.667C139.608 264.909 139.474 267.154 138.467 267.149L77.1597 265.218C85.3876 264.57 93.4994 263.689 102.315 262.797C105.037 262.546 127.428 259.232 128.69 258.687C128.829 258.666 128.981 258.645 129.143 258.624Z" fill="#8C2A00"/>
<path d="M54.4279 242.067C54.1028 242.102 53.8125 241.85 53.7794 241.505C53.7464 241.159 53.9832 240.85 54.3083 240.815L59.3572 240.27C59.6823 240.235 59.9726 240.487 60.0056 240.832C60.0386 241.178 59.8019 241.487 59.4768 241.522L54.4279 242.067ZM58.8041 220.085C58.482 220.026 58.2658 219.701 58.3211 219.359C58.3764 219.016 58.6823 218.786 59.0043 218.845C59.0173 218.847 59.0536 218.853 59.1101 218.859C59.6202 218.911 60.2111 218.857 60.7554 218.618C61.7461 218.185 62.3665 217.231 62.4551 215.489C62.5693 213.242 62.4826 211.455 62.2705 210.097C62.2204 209.775 62.1671 209.507 62.1146 209.29C62.0849 209.167 62.0635 209.092 62.0543 209.065C61.9452 208.737 62.1064 208.378 62.4145 208.262C62.7225 208.146 63.0606 208.317 63.1697 208.645C63.2419 208.861 63.3414 209.273 63.4379 209.891C63.6644 211.341 63.7555 213.22 63.6367 215.557C63.5238 217.778 62.6238 219.161 61.2059 219.782C60.4558 220.11 59.6817 220.181 58.996 220.111C58.9097 220.102 58.8448 220.093 58.8041 220.085Z" fill="#482D1F"/>
<path d="M68.6077 181.007L64.5449 179.12L67.4244 185.369L68.6077 181.007Z" fill="#482D1F"/>
<path d="M67.0928 164.828L66.0042 160.709C65.6492 159.702 65.0575 158.822 64.3081 158.109C63.7164 157.605 63.0853 157.27 62.3753 157.144C60.482 156.809 58.3125 158.235 57.4053 160.206C56.5375 162.177 56.7348 164.525 57.997 166.203C58.7714 167.314 59.8499 168.103 61.1205 168.449C60.5714 171.699 59.772 176.184 59.772 176.184C59.772 176.184 58.8028 175.706 56.8643 174.749C52.17 171.959 49.6194 166.754 49.2123 159.133C41.5715 162.263 34.269 160.078 31.4114 155.425C29.242 151.86 29.7192 147.11 29.8731 146.45C31.4114 139.85 36.697 138.859 36.697 138.859C36.697 138.859 44.3097 134.707 52.4353 147.372C52.466 147.42 52.4967 147.469 52.5274 147.518C53.4125 146.546 54.5054 145.837 55.6698 145.317C58.9436 143.891 61.2709 144.898 67.5031 145.192C68.7653 145.275 70.6587 145.317 73.0253 145.234C73.2226 145.234 73.3803 145.234 73.5381 145.234C74.9581 145.192 82.6362 145.149 86.3045 151.44C86.2651 151.566 86.2098 151.683 86.1209 151.86C86.1209 151.86 78.504 165.845 67.0928 164.828ZM82.1764 163.561C81.3876 163.645 80.0859 163.687 79.0603 163.225C77.2853 162.512 79.1787 161.632 80.8353 161.799C81.6242 161.841 82.1764 162.303 82.5314 162.68C82.7681 163.016 82.5709 163.519 82.1764 163.561ZM88.8426 164.441C88.0142 164.609 86.7915 164.777 85.687 164.399C83.8331 163.854 85.6081 162.764 87.3042 162.806C88.172 162.848 88.7242 163.183 89.1187 163.561C89.3948 163.854 89.237 164.358 88.8426 164.441Z" fill="#482D1F"/>
<path d="M85.2927 168.803C85.0166 168.258 85.2927 167.125 85.4899 166.412C85.6082 165.909 86.121 165.616 86.5549 165.7C86.831 165.783 87.1466 165.993 87.1466 166.58C87.2255 168.006 85.6477 169.726 85.2927 168.803ZM78.8238 167.838C78.5083 167.293 78.8238 166.161 79.021 165.448C79.1394 164.945 79.6521 164.651 80.086 164.735C80.3621 164.819 80.6777 165.028 80.6777 165.616C80.7566 167.042 79.2183 168.761 78.8238 167.838Z" fill="#482D1F"/>
<path d="M85.3154 165.568C85.3777 165.346 85.2589 165.112 85.0502 165.046C84.8414 164.98 84.6217 165.106 84.5594 165.328L83.8889 167.719L83.8774 167.772L83.2068 172.218C83.2043 172.234 83.1704 172.257 83.0999 172.246C82.6902 172.142 82.2147 172.017 81.708 171.878C81.497 171.82 81.2819 171.955 81.2275 172.179C81.173 172.404 81.2999 172.632 81.5108 172.69C82.0229 172.831 82.5038 172.957 82.9537 173.07C83.465 173.149 83.9087 172.843 83.9854 172.353L84.6522 167.932L85.3154 165.568Z" fill="#482D1F"/>
<path d="M68.6074 181.217L65.5308 179.581L66.8719 187.298L68.6074 181.217Z" fill="#482D1F"/>
<path d="M80.3619 175.975C80.0858 175.891 79.4153 175.639 79.3364 175.136C79.3364 175.052 79.2969 174.926 79.3364 174.842C79.4547 174.633 80.7169 174.842 80.7169 174.842C82.2947 175.136 82.7286 175.094 82.8075 175.346C82.8469 175.472 82.8075 175.639 82.4525 175.975C82.0186 176.604 80.7564 176.143 80.3619 175.975Z" fill="#482D1F"/>
<path d="M430.333 420.225H484.747C485.733 420.225 486.522 421.064 486.522 422.113C486.522 423.161 485.733 424 484.747 424H422.07H375.92C374.933 424 374.145 423.161 374.145 422.113C374.145 421.064 374.933 420.225 375.92 420.225H430.333Z" fill="#FF5645"/>
<path d="M376.314 420.226H375.92C375.806 420.226 375.694 420.237 375.586 420.258C375.475 420.058 375.392 419.836 375.346 419.597V419.555C375.346 419.345 375.306 419.135 375.346 418.925C375.385 418.674 375.385 418.464 375.464 418.213C375.728 417.24 376.409 416.1 377.507 414.792C378.13 414.05 378.862 413.42 379.674 412.927C381.485 411.826 382.909 411.03 383.945 410.538C387.573 408.776 395.62 405.17 398.026 403.869C401.142 402.192 405.442 399.34 409.938 394.224C410.293 393.93 410.688 393.804 411.122 393.804L433.745 393.972C434.889 393.972 435.796 394.978 435.718 396.237L437.619 407.596C439.622 406.675 441.423 405.788 443.646 404.415C445.5 403.282 448.103 401.437 451.022 398.669C452.639 397.159 454.296 395.649 455.913 394.14L480.329 393.804L485.353 420.266C485.439 420.285 485.523 420.311 485.604 420.342L485.628 420.471C485.377 420.32 485.087 420.231 484.777 420.226C484.767 420.226 484.757 420.226 484.747 420.226H430.333H421.285H376.314Z" fill="#474961"/>
<path opacity="0.176986" d="M430.452 420.226H430.333H375.92C375.806 420.226 375.694 420.237 375.586 420.258C375.475 420.058 375.392 419.836 375.346 419.597V419.555C375.346 419.345 375.306 419.135 375.346 418.925C375.385 418.674 375.385 418.464 375.464 418.213C375.728 417.24 376.409 416.1 377.507 414.792C378.13 414.05 378.862 413.42 379.674 412.927C381.485 411.826 382.909 411.03 383.945 410.538C387.573 408.776 395.62 405.17 398.026 403.869C401.142 402.192 405.442 399.34 409.938 394.224C410.293 393.93 410.688 393.804 411.122 393.804L433.745 393.972C434.889 393.972 435.796 394.978 435.718 396.237L437.636 407.697C435.538 408.658 433.199 409.675 429.919 411.335C428.026 412.299 426.212 413.39 424.437 414.606C423.569 415.445 422.07 417.164 421.597 419.177C421.518 419.513 421.518 419.848 421.478 420.142C421.478 420.17 421.493 420.198 421.522 420.226H430.57H430.452ZM485.628 420.471C485.377 420.32 485.087 420.231 484.777 420.226L484.984 420.226C485.202 420.226 485.411 420.267 485.604 420.342L485.628 420.471Z" fill="#444444"/>
<path d="M428.819 268.058C429.498 267.943 430.141 267.906 430.747 267.946L502.891 267.653L535.946 267.569C537.287 267.653 542.945 269.493 544.246 271.069C545.508 271.782 553.578 280.654 552.236 297.135C552 299.903 551.487 306.068 548.174 311.94C544.703 318.063 538.865 322.55 531.725 325.109C525.414 327.373 518.038 328.17 510.386 327.289C494.214 324.186 478.081 321.124 461.909 318.021V318.65L461.987 318.944C461.987 318.944 463.96 322.886 465.656 326.954C467.352 330.98 469.719 350.02 469.719 350.146C473.584 356.688 477.489 365.537 480.487 376.693C481.67 381.181 482.301 384.703 482.538 386.045C483.014 388.924 483.393 392.399 483.673 396.472C483.677 396.533 483.679 396.595 483.679 396.656C483.679 398.046 482.62 399.172 481.313 399.172C480.929 399.172 480.628 399.172 480.408 399.172L445.342 399.13L434.557 399.073C434.197 399.175 433.819 399.229 433.431 399.229L404.636 399.103H402.309C400.021 399.103 398.089 397.174 397.97 394.741C397.694 389.834 397.339 383.376 396.905 375.911C395.722 357.08 395.091 351.083 394.381 336.572C394.262 334.14 394.144 331.959 394.065 329.904C393.75 320.132 392.921 310.99 391.304 299.037C390.397 292.411 389.963 288.301 389.924 284.82C389.884 281.591 390.791 278.403 392.527 275.761C393.395 274.461 394.381 273.329 395.564 272.364C398.601 269.89 400.777 268.206 408.397 268.086C414.426 267.992 421.402 268.021 428.819 268.058Z" fill="#3ABF7C"/>
<path opacity="0.176986" d="M429.031 268.024C428.933 268.039 428.835 268.054 428.736 268.072C425.975 268.575 422.859 270.295 420.452 272.266C419.269 273.23 418.244 274.363 417.415 275.663C415.68 278.263 414.772 281.367 414.772 284.554V284.764C414.812 288.245 415.246 292.355 416.114 298.981C417.731 310.933 418.559 320.034 418.875 329.848C418.954 331.861 419.072 334.083 419.19 336.516C419.861 350.985 420.531 356.982 421.715 375.854C422.188 383.319 422.543 389.736 422.78 394.685C422.898 397.117 424.831 399.046 427.119 399.046H429.446L434.429 399.073C434.108 399.152 433.774 399.194 433.431 399.194L404.636 399.068H402.309C400.021 399.068 398.089 397.139 397.97 394.707C397.694 389.8 397.339 383.341 396.905 375.876C395.722 357.046 395.091 351.049 394.381 336.538C394.263 334.105 394.144 331.925 394.065 329.87C393.75 320.098 392.921 310.955 391.304 299.003C390.397 292.376 389.963 288.266 389.924 284.786C389.884 281.556 390.791 278.369 392.527 275.727C393.395 274.427 394.381 273.294 395.564 272.33C398.601 269.855 400.777 268.172 408.397 268.052C414.484 267.956 421.534 267.987 429.031 268.024L429.031 268.024Z" fill="#444444"/>
<path d="M461.712 317.087C461.223 316.576 460.713 316.041 460.18 315.48C460.036 315.328 460.036 315.328 459.892 315.176C458.389 313.593 457.159 312.288 454.774 309.753C454.466 309.425 453.967 309.425 453.659 309.753C453.351 310.081 453.351 310.612 453.659 310.939C456.045 313.476 457.276 314.782 458.781 316.368C458.926 316.52 458.926 316.52 459.07 316.672C459.604 317.234 460.115 317.771 460.606 318.283C460.916 318.608 461.416 318.604 461.721 318.274C462.027 317.943 462.023 317.412 461.712 317.087Z" fill="#482D1F"/>
<path d="M513.494 181.032C515.817 180.194 518.348 179.799 520.976 179.947C531.429 180.493 539.476 189.342 538.963 199.701C538.711 204.765 536.445 209.253 532.97 212.441L541.705 246.39C543.046 251.758 542.573 257.21 540.601 261.907C540.324 262.578 540.009 263.249 539.693 263.878C539.338 264.549 538.944 265.22 538.549 265.849C538.116 266.52 537.642 267.191 537.129 267.82H494.174C493.819 267.191 493.464 266.562 493.149 265.849C492.833 265.22 492.557 264.549 492.321 263.878C492.084 263.249 491.887 262.578 491.689 261.907C491.65 261.781 491.611 261.655 491.571 261.53L480.404 220.143L472.255 221.097C471.545 221.181 470.875 220.678 470.796 219.965L470.441 217.029C470.426 216.898 470.432 216.77 470.455 216.647C469.115 215.782 467.889 214.743 466.851 213.548C465.352 211.829 464.208 209.816 463.538 207.509C460.856 198.367 466.812 188.595 476.831 185.743C480.863 184.595 484.947 184.732 488.562 185.9C490.095 184.768 491.774 183.897 493.583 183.356L502.221 180.63C506.199 180.003 510.024 180.148 513.494 181.032Z" fill="#FF5645"/>
<path opacity="0.176986" d="M480.345 220.15L472.255 221.098C471.545 221.181 470.875 220.678 470.796 219.965L470.441 217.029C470.426 216.898 470.432 216.77 470.455 216.647C469.115 215.782 467.889 214.743 466.851 213.549C465.352 211.829 464.208 209.816 463.538 207.509C460.856 198.367 466.812 188.595 476.831 185.743C480.886 184.589 484.992 184.733 488.622 185.92C480.461 191.867 476.412 205.198 479.109 215.571L480.345 220.15Z" fill="#444444"/>
<path d="M473.506 187.592C473.506 187.592 472.756 190.779 476.74 189.898C480.724 189.018 481.868 188.598 481.868 188.598L480.842 185.704L473.506 187.592Z" fill="#482D1F"/>
<path d="M487.24 179.266C487.111 179.302 486.982 179.337 486.854 179.37L487.258 179.308L487.24 179.266ZM497.798 172.5L498.789 172.074L503.562 180.84L495.694 183.46L503.404 222.401C503.404 222.401 504.06 219.59 504.899 214.523C504.939 214.536 504.98 214.548 505.022 214.558L526.834 219.717C526.926 219.738 527.018 219.75 527.109 219.751C526.346 222.99 525.532 226.885 524.665 230.914C522.417 241.315 522.062 246.138 518.472 253.016C514.37 260.859 510.583 261.068 509.084 261.655C505.732 263.039 502.379 262.83 500.288 262.284C497.78 261.639 493.185 260.598 489.286 253.061L491.571 261.53C491.611 261.655 491.65 261.781 491.689 261.907C491.887 262.578 492.084 263.249 492.321 263.878C492.557 264.549 492.833 265.22 493.149 265.849C493.464 266.562 493.819 267.191 494.174 267.82H499.227L433.761 267.908C433.577 267.909 433.409 267.842 433.274 267.731C422.417 260.755 417.039 255.43 417.142 251.756C420.426 251.224 425.113 250.495 431.203 249.567C434.988 248.991 438.831 249.003 442.612 249.602L454.501 251.486C463.396 248.455 475.266 244.474 478.229 243.788L473.14 220.994L480.404 220.143L483.819 232.801C481.824 217.813 482.34 202.196 480.537 187.16L476.385 187.256C473.939 188.305 468.812 190.066 468.259 186.334C468.259 186.334 475.044 183.356 479.817 181.175L480.172 180.84C480.487 180.546 480.763 180.378 481.158 180.252C481.237 180.211 481.315 180.211 481.394 180.211L483.288 179.917L483.553 179.876C482.924 179.909 482.486 179.892 482.328 179.875C479.033 179.623 475.189 173.207 473.463 163.938C473.306 163.183 473.267 162.429 473.188 161.674L472.874 154.167C472.796 152.489 473.11 150.811 473.855 149.344C474.169 148.715 474.483 148.127 474.836 147.666C478.876 141.879 486.329 142.508 487.662 142.675C487.819 142.675 487.976 142.717 488.133 142.717C489.624 143.095 490.957 143.221 492.369 143.179C492.997 143.179 493.507 143.724 493.546 144.395L493.742 155.131C493.782 156.138 498.567 154.209 498.567 154.167C500.864 152.321 503.745 162.261 502.568 163.729C501.705 164.735 499.273 166.161 498.567 166.413C498.136 166.58 497.822 166.958 497.743 167.377C498.012 169.501 498.03 171.209 497.798 172.5Z" fill="#DB9E75"/>
<path opacity="0.2" d="M473.139 221.029L480.403 220.178L491.57 261.564C491.61 261.69 491.649 261.816 491.688 261.942C491.886 262.613 492.083 263.284 492.32 263.913C492.556 264.584 492.832 265.255 493.148 265.884C493.463 266.597 493.818 267.226 494.173 267.855H499.226L433.76 267.943C433.576 267.943 433.408 267.877 433.273 267.765C422.416 260.79 417.038 255.465 417.141 251.79C420.425 251.259 425.112 250.53 431.202 249.602C434.987 249.026 438.83 249.037 442.611 249.637L454.5 251.521C463.395 248.49 475.265 244.509 478.228 243.823L473.139 221.029Z" fill="#8C2A00"/>
<path d="M415.356 257.486C419.59 251.947 428.303 247.46 442.888 257.793C445.111 259.316 444.359 264.307 441.912 264.364L416.696 264.815C414.801 264.882 413.945 259.35 415.356 257.486Z" fill="#474961"/>
<path d="M509.915 152.754C514.974 156.286 519.805 161.476 518.945 164.902C518.275 167.67 515.75 169.138 513.186 170.648C511.116 171.855 507.292 173.724 501.786 174.116C501.786 174.12 501.787 174.125 501.787 174.129C500.485 174.339 499.223 174.548 497.921 174.758C497.251 174.842 496.62 174.339 496.58 173.626C496.777 172.116 496.975 170.606 497.172 169.096C497.349 168.343 497.536 167.392 497.649 166.372C498.279 166.21 499.684 165.778 500.761 164.441C501.945 162.973 502.576 160.75 501.787 158.612C501.077 156.557 499.105 154.963 497.211 155.131C496.146 155.215 495.318 155.844 495.2 155.928C494.344 156.617 493.632 157.559 493.244 158.125C491.387 157.359 488.507 155.723 486.127 152.489C485.575 151.762 484.931 150.685 484.195 149.259C480.266 150.207 476.966 149.969 474.294 148.546C474.878 147.365 475.787 146.297 477.023 145.342C478.876 143.909 479.08 143.735 481.419 143.037C482.883 142.6 485.651 142.461 487.632 142.675H487.705C489.954 142.927 491.807 143.01 493.03 143.01C499.026 143.136 501.353 142.297 504.39 143.891C504.942 144.185 506.244 144.94 507.388 146.365C509.009 148.38 509.673 150.713 509.915 152.754ZM474.185 167.175C475.678 172.84 477.266 174.925 477.064 174.925C476.861 174.925 476.336 175.219 472.273 174.003C470.262 173.416 468.368 172.829 467.5 171.109C466.278 168.677 469.921 163.651 473.156 160.296C473.156 162.78 473.543 164.653 474.185 167.175ZM471.809 158.863C471.415 158.779 471.257 158.276 471.533 157.983C471.888 157.647 472.48 157.228 473.269 157.186C474.886 157.102 476.661 158.108 474.925 158.695C473.821 159.115 472.559 158.989 471.809 158.863ZM479.461 158.863C479.067 158.779 478.909 158.276 479.225 157.983C479.58 157.647 480.171 157.228 481 157.186C482.617 157.102 484.392 158.15 482.656 158.695C481.473 159.115 480.25 158.989 479.461 158.863Z" fill="#482D1F"/>
<path d="M474.768 162.093C474.847 162.806 474.926 163.98 474.571 164.483C474.058 165.238 472.835 163.309 473.111 161.967C473.23 161.38 473.506 161.212 473.821 161.212C474.295 161.212 474.689 161.59 474.768 162.093ZM481.789 161.841C481.907 162.554 481.986 163.729 481.592 164.232C481.079 164.987 479.856 163.057 480.132 161.715C480.251 161.128 480.527 160.961 480.842 160.961C481.316 160.961 481.71 161.338 481.789 161.841Z" fill="#482D1F"/>
<path d="M502.955 222.621C502.863 222.288 503.042 221.938 503.355 221.839C503.668 221.741 503.997 221.931 504.09 222.264L507.995 236.314C508.088 236.647 507.909 236.997 507.595 237.095C507.282 237.194 506.953 237.004 506.86 236.67L502.955 222.621ZM529.669 215.392C529.679 215.466 529.676 215.543 529.66 215.62L528.99 218.763C528.761 219.856 527.736 220.532 526.706 220.289C526.387 220.214 526.186 219.877 526.257 219.538C526.328 219.199 526.644 218.985 526.963 219.061C527.361 219.155 527.749 218.898 527.835 218.487L528.411 215.785C528.306 215.726 528.216 215.633 528.159 215.511C528.013 215.2 528.131 214.822 528.424 214.667C530.108 213.771 531.675 212.592 533.009 211.213C533.244 210.971 533.618 210.977 533.846 211.226C534.074 211.475 534.068 211.874 533.834 212.116C532.603 213.387 531.189 214.498 529.669 215.392ZM505.295 209.79C505.293 209.818 505.289 209.846 505.283 209.874L504.613 213.017C504.525 213.44 504.766 213.853 505.15 213.944C505.469 214.02 505.67 214.356 505.599 214.695C505.528 215.034 505.212 215.248 504.893 215.172C503.865 214.929 503.229 213.84 503.458 212.742L504.129 209.596C504.155 209.474 504.213 209.369 504.291 209.287C503.826 208.689 503.475 208.165 503.183 207.632C502.921 207.154 502.701 206.664 502.468 206.051C502.31 205.634 502.212 205.354 501.862 204.331C501.75 204.004 501.909 203.643 502.216 203.524C502.523 203.406 502.863 203.574 502.974 203.901C503.319 204.907 503.415 205.182 503.566 205.58C503.778 206.14 503.974 206.577 504.205 206.998C504.514 207.561 504.904 208.125 505.469 208.821C505.683 209.084 505.656 209.481 505.408 209.708C505.373 209.741 505.335 209.768 505.295 209.79ZM489.988 178.539C488.528 179.252 487.537 180.513 485.26 180.756C483.445 181.217 481.907 180.672 481.118 180.252C481.197 180.21 481.276 180.21 481.355 180.21L483.248 179.917C484.155 179.917 485.613 179.749 487.309 179.246L489.988 178.539Z" fill="#482D1F"/>
<path d="M479.777 170.313C480.053 170.229 480.724 169.977 480.842 169.516C480.842 169.432 480.882 169.306 480.842 169.223C480.685 168.971 480.172 169.097 479.462 169.181C478.199 169.306 477.174 169.181 477.174 169.181C477.174 169.181 477.489 170.019 477.687 170.229C478.121 170.9 479.383 170.481 479.777 170.313Z" fill="#482D1F"/>
<path d="M476.819 162.443L476.821 162.382L476.818 162.412L476.819 162.443ZM476.348 166.869L476.345 166.916C476.345 167.374 476.64 167.799 477.069 167.875C477.148 167.883 477.192 167.886 477.236 167.889C477.653 167.918 477.953 167.922 479.027 167.922C479.245 167.922 479.422 167.735 479.422 167.503C479.422 167.271 479.245 167.084 479.027 167.084C477.972 167.084 477.681 167.079 477.287 167.052C477.246 167.049 477.205 167.046 477.164 167.043C477.173 167.043 477.14 166.994 477.135 166.932L477.605 162.475L477.607 162.414L477.528 159.94C477.521 159.708 477.338 159.527 477.121 159.535C476.903 159.543 476.733 159.737 476.74 159.968L476.818 162.412L476.348 166.869Z" fill="#482D1F"/>
<path d="M541.389 262.117H37.683C36.1581 262.117 34.9219 263.431 34.9219 265.052C34.9219 266.674 36.1581 267.988 37.683 267.988H541.389C542.914 267.988 544.15 266.674 544.15 265.052C544.15 263.431 542.914 262.117 541.389 262.117Z" fill="#D8DEED"/>
<path d="M350.98 255.827L354.774 239.554H326.299C323.341 239.554 320.895 237.163 320.895 234.269V188.179C320.856 185.243 323.262 182.853 326.259 182.853H412.919C415.877 182.853 418.323 185.243 418.323 188.137V234.269C418.323 237.163 415.877 239.554 412.919 239.554H378.217L376.652 255.827H386.926C388.503 255.827 389.726 257.169 389.726 258.804C389.726 260.482 388.464 261.782 386.926 261.782H342.945C341.367 261.782 340.144 260.44 340.144 258.804C340.065 257.169 341.367 255.827 342.945 255.827H350.98Z" fill="#474961"/>
<path fill-rule="evenodd" clip-rule="evenodd" d="M379.393 227.693L379.51 255.869H376.682L379.393 227.693Z" fill="white"/>
<path d="M340.222 7.12964H210.45C206.093 7.12964 202.561 10.885 202.561 15.5174V117.428C202.561 122.061 206.093 125.816 210.45 125.816H340.222C344.579 125.816 348.111 122.061 348.111 117.428V15.5174C348.111 10.885 344.579 7.12964 340.222 7.12964Z" fill="#F2F6FB"/>
<path d="M288.871 95.3821C303.067 86.0732 308.076 66.9435 300.06 52.6547C292.043 38.3659 274.037 34.3288 259.841 43.6377C245.645 52.9466 240.636 72.0763 248.652 86.3651C256.669 100.654 274.675 104.691 288.871 95.3821ZM284.219 87.09C274.561 93.4232 262.32 90.6789 256.875 80.9731C251.43 71.2674 254.835 58.263 264.493 51.9298C274.151 45.5966 286.392 48.3409 291.837 58.0467C297.282 67.7524 293.877 80.7568 284.219 87.09Z" fill="#E1E5F0"/>
<path d="M257.515 39.4916C241.05 50.2884 235.239 72.4809 244.541 89.0614C253.843 105.642 274.732 110.325 291.197 99.5285C307.662 88.7317 313.473 66.5392 304.171 49.9587L295.948 55.3507C302.679 67.3481 298.472 83.4152 286.545 91.2363C274.618 99.0575 259.494 95.6667 252.764 83.6694C246.033 71.672 250.24 55.6049 262.167 47.7837L257.515 39.4916Z" fill="#474BFF"/>
<path d="M257.408 36.7023C240.42 47.9702 234.408 71.1581 243.988 88.4957C253.567 105.833 275.106 110.747 292.093 99.4795L286.505 89.3657C274.979 97.0109 260.375 93.679 253.884 81.9313C247.394 70.1837 251.47 54.4614 262.996 46.8161L257.408 36.7023Z" fill="#D8DEED"/>
<path d="M202.561 13.842C202.561 10.1349 205.387 7.12964 208.874 7.12964H341.799C345.285 7.12964 348.111 10.134 348.111 13.842V20.5543H202.561V13.842Z" fill="#E1E5F0"/>
<path d="M211.03 16.8931C212.536 16.8931 213.757 15.5954 213.757 13.9946C213.757 12.3938 212.536 11.0961 211.03 11.0961C209.524 11.0961 208.303 12.3938 208.303 13.9946C208.303 15.5954 209.524 16.8931 211.03 16.8931Z" fill="#FF5645"/>
<path d="M219.929 16.8931C221.436 16.8931 222.657 15.5954 222.657 13.9946C222.657 12.3938 221.436 11.0961 219.929 11.0961C218.423 11.0961 217.202 12.3938 217.202 13.9946C217.202 15.5954 218.423 16.8931 219.929 16.8931Z" fill="#FFCB3D"/>
<path d="M229.116 16.8931C230.622 16.8931 231.843 15.5954 231.843 13.9946C231.843 12.3938 230.622 11.0961 229.116 11.0961C227.61 11.0961 226.389 12.3938 226.389 13.9946C226.389 15.5954 227.61 16.8931 229.116 16.8931Z" fill="#3ABF7C"/>
</svg>
