<svg width="40" height="40" viewBox="0 0 40 40" fill="none" xmlns="http://www.w3.org/2000/svg">
<path fill-rule="evenodd" clip-rule="evenodd" d="M24.4606 0.929527C35.0406 3.46219 41.5642 14.0921 39.0315 24.672C36.4989 35.252 25.869 41.7756 15.289 39.2429C4.70906 36.7103 -1.81456 26.0804 0.718101 15.5004C3.25076 4.92049 13.8806 -1.60314 24.4606 0.929527ZM21.6106 17.0471H24.5622H24.883L24.5622 20.5119H21.4823V29.9441H17.5683V20.5119H14.8734V17.0471H17.44C17.44 16.7262 17.44 14.1597 17.6324 13.5822C18.7712 9.38666 23.9971 10.3419 24.7854 10.486C24.841 10.4962 24.8745 10.5023 24.883 10.5023V13.518V13.6464C24.883 13.6464 21.8031 13.2614 21.6106 15.1221V17.0471Z" fill="white"/>
</svg>
