<svg width="40" height="40" viewBox="0 0 40 40" fill="none" xmlns="http://www.w3.org/2000/svg">
<path fill-rule="evenodd" clip-rule="evenodd" d="M24.4019 0.550703C34.9898 3.0508 41.5463 13.6607 39.0462 24.2486C36.5461 34.8365 25.9362 41.393 15.3483 38.8929C4.76038 36.3928 -1.79608 25.7828 0.704023 15.195C3.20412 4.60705 13.814 -1.9494 24.4019 0.550703ZM15.7712 9.94396C16.7979 9.87979 17.1829 9.87979 19.6212 9.87979V9.75146H20.0062C22.5086 9.75146 22.8295 9.75146 23.8561 9.81562C24.8828 9.87979 25.5886 10.0081 26.2303 10.2648C26.8719 10.5215 27.3853 10.8423 27.9628 11.4198C28.5403 11.9331 28.8611 12.5106 29.1178 13.1523C29.3744 13.7298 29.5028 14.4998 29.5669 15.5264C29.6311 16.5531 29.6311 16.9381 29.6311 19.3764V19.8897C29.6311 22.3922 29.6311 22.713 29.5669 23.7397C29.5028 24.7663 29.3744 25.4722 29.1178 26.1138C28.8611 26.7555 28.5403 27.2688 27.9628 27.8463C27.4494 28.4238 26.8719 28.7446 26.2303 29.0013C25.6528 29.258 24.8828 29.3863 23.8561 29.4505C22.8295 29.5146 22.5086 29.5146 19.8137 29.5146C17.1829 29.5146 16.7979 29.5146 15.7712 29.4505C14.7445 29.3863 14.0387 29.258 13.397 29.0013C12.7554 28.7446 12.2421 28.4238 11.6646 27.8463C11.0871 27.333 10.7662 26.7555 10.5096 26.1138C10.2529 25.5363 10.1246 24.7663 10.0604 23.7397C9.99624 22.713 9.99624 22.3922 9.99624 19.6972C9.99624 17.0664 9.99624 16.6814 10.0604 15.6547C10.1246 14.6281 10.2529 13.9223 10.5096 13.2806C10.7662 12.6389 11.0871 12.1256 11.6646 11.5481C12.1779 10.9706 12.7554 10.6498 13.397 10.3931C13.9745 10.1365 14.7445 10.0081 15.7712 9.94396ZM25.2036 15.5906C25.8453 15.5906 26.3586 15.0773 26.3586 14.4356C26.3586 13.7939 25.7811 13.2806 25.2036 13.2806C24.562 13.2806 24.0486 13.7939 24.0486 14.4356C24.0486 15.0773 24.562 15.5906 25.2036 15.5906ZM16.6054 19.6972C16.6054 21.4939 18.0812 22.9697 19.8778 22.9697C21.6745 22.9697 23.1503 21.4939 23.1503 19.6972C23.1503 17.9006 21.6745 16.4247 19.8778 16.4247C18.0812 16.4247 16.6054 17.9006 16.6054 19.6972ZM24.947 19.6972C24.947 16.8739 22.7011 14.6281 19.8778 14.6281C17.1187 14.6281 14.8087 16.8739 14.8087 19.6972C14.8087 22.5205 17.0545 24.7663 19.8778 24.7663C22.7011 24.7663 24.947 22.5205 24.947 19.6972ZM23.8561 11.6764C22.8295 11.6123 22.5086 11.6123 19.8778 11.6123C17.247 11.6123 16.9262 11.6123 15.8995 11.6764C14.937 11.6764 14.3595 11.8689 14.0387 11.9973C13.5254 12.1256 13.2045 12.3823 12.8837 12.7031C12.5629 13.0881 12.3704 13.4089 12.1779 13.8581C12.0496 14.2431 11.9212 14.7564 11.8571 15.7189C11.7929 16.7456 11.7929 17.0664 11.7929 19.6972C11.7929 22.328 11.7929 22.6489 11.8571 23.6755C11.8571 24.638 12.0496 25.2155 12.1779 25.5363C12.3062 26.0497 12.5629 26.3705 12.8837 26.6913C13.2687 27.0122 13.5895 27.2047 14.0387 27.3972C14.4237 27.5255 14.937 27.6538 15.8995 27.718C16.9262 27.7822 17.247 27.7822 19.8776 27.7822H19.8778H19.8781C22.5087 27.7822 22.8295 27.7822 23.8561 27.718C24.8186 27.718 25.3961 27.5255 25.717 27.3972C26.2303 27.2688 26.5511 27.0122 26.8719 26.6913C27.1928 26.3063 27.3853 25.9855 27.5778 25.5363C27.7061 25.1513 27.8344 24.638 27.8986 23.6755C27.9628 22.6489 27.9628 22.328 27.9628 19.6972C27.9628 17.0664 27.9628 16.7456 27.8986 15.7189C27.8986 14.7564 27.7061 14.1789 27.5778 13.8581C27.4494 13.3448 27.1928 13.0239 26.8719 12.7031C26.4869 12.3823 26.1661 12.1898 25.717 11.9973C25.332 11.8689 24.8186 11.7406 23.8561 11.6764Z" fill="white"/>
</svg>
