<svg width="570" height="466" viewBox="0 0 570 466" fill="none" xmlns="http://www.w3.org/2000/svg">
<path d="M381.416 328.435H474C474.371 328.435 474.671 328.782 474.671 329.211V339.015C474.671 339.444 474.371 339.792 474 339.792H381.416C381.046 339.792 380.746 339.444 380.746 339.015V329.211C380.746 328.782 381.046 328.435 381.416 328.435Z" fill="#E1E5F0"/>
<path d="M362.223 263.983H473.33C474.07 263.983 474.671 264.678 474.671 265.536V319.783C474.671 320.641 474.07 321.336 473.33 321.336H362.223C361.482 321.336 360.882 320.641 360.882 319.783V265.536C360.882 264.678 361.482 263.983 362.223 263.983Z" fill="#F2F6FB"/>
<path d="M407.244 293.724L427.186 305.283C427.351 305.379 427.553 305.301 427.636 305.109C427.659 305.055 427.671 304.996 427.671 304.935V281.817C427.671 281.603 427.521 281.429 427.336 281.429C427.284 281.429 427.232 281.443 427.186 281.47L407.244 293.029C407.078 293.125 407.011 293.358 407.094 293.55C407.127 293.625 407.179 293.686 407.244 293.724Z" fill="#E1E5F0"/>
<mask id="mask0" mask-type="alpha" maskUnits="userSpaceOnUse" x="51" y="230" width="163" height="142">
<path d="M58.0284 230.282H207.212C210.915 230.282 213.917 233.759 213.917 238.048V363.48C213.917 367.769 210.915 371.247 207.212 371.247H58.0284C54.3248 371.247 51.3225 367.769 51.3225 363.48V238.048C51.3225 233.759 54.3248 230.282 58.0284 230.282Z" fill="white"/>
</mask>
<g mask="url(#mask0)">
<path d="M58.0284 230.282H207.212C210.915 230.282 213.917 233.759 213.917 238.048V363.48C213.917 367.769 210.915 371.247 207.212 371.247H58.0284C54.3248 371.247 51.3225 367.769 51.3225 363.48V238.048C51.3225 233.759 54.3248 230.282 58.0284 230.282Z" fill="#F2F6FB"/>
<path d="M78.3256 282.508H129.267C131.119 282.508 132.62 284.246 132.62 286.391V407.467C132.62 409.611 131.119 411.35 129.267 411.35H78.3256C76.4738 411.35 74.9726 409.611 74.9726 407.467V286.391C74.9726 284.246 76.4738 282.508 78.3256 282.508Z" fill="#E1E5F0"/>
<path d="M100.467 290.187H106.387C106.997 290.187 107.492 290.76 107.492 291.467C107.492 292.174 106.997 292.747 106.387 292.747H100.467C99.8566 292.747 99.3618 292.174 99.3618 291.467C99.3618 290.76 99.8566 290.187 100.467 290.187Z" fill="#F2F6FB"/>
<path d="M79.4072 297.013H128.186V395.991H79.4072V297.013Z" fill="#F2F6FB"/>
<path d="M102.957 354.885L103.758 354.897L103.752 354.885H114.03C114.4 354.885 114.542 354.594 114.345 354.229L107.156 340.942C106.961 340.58 106.634 340.579 106.431 340.933L101.194 350.148L99.2646 346.574C99.0676 346.209 98.737 346.199 98.5278 346.549L94.0604 354.018C93.8505 354.369 93.9779 354.664 94.3531 354.678L98.2229 354.816L98.6699 354.822L98.637 354.885C98.637 354.885 98.9365 354.885 99.3068 354.885H102.957ZM98.7381 342.811C99.6865 342.811 100.455 341.918 100.455 340.817C100.455 339.716 99.6865 338.823 98.7381 338.823C97.7896 338.823 97.0208 339.716 97.0208 340.817C97.0208 341.918 97.7896 342.811 98.7381 342.811Z" fill="#E1E5F0"/>
<path d="M205.826 263.828H201.254C200.884 263.828 200.584 264.175 200.584 264.604V266.464C200.584 266.893 200.884 267.241 201.254 267.241H205.826C206.196 267.241 206.496 266.893 206.496 266.464V264.604C206.496 264.175 206.196 263.828 205.826 263.828ZM80.1839 263.828H59.353C58.9826 263.828 58.6824 264.175 58.6824 264.604V266.464C58.6824 266.893 58.9826 267.241 59.353 267.241H80.1839C80.5542 267.241 80.8545 266.893 80.8545 266.464V264.604C80.8545 264.175 80.5542 263.828 80.1839 263.828ZM120.094 263.828H99.2627C98.8923 263.828 98.5921 264.175 98.5921 264.604V266.464C98.5921 266.893 98.8923 267.241 99.2627 267.241H120.094C120.464 267.241 120.764 266.893 120.764 266.464V264.604C120.764 264.175 120.464 263.828 120.094 263.828ZM94.9652 263.828H84.4813C84.111 263.828 83.8107 264.175 83.8107 264.604V266.464C83.8107 266.893 84.111 267.241 84.4813 267.241H94.9652C95.3356 267.241 95.6358 266.893 95.6358 266.464V264.604C95.6358 264.175 95.3356 263.828 94.9652 263.828Z" fill="#E1E5F0"/>
</g>
<path d="M196.988 287.175H153.928C153.557 287.175 153.257 287.523 153.257 287.952V293.245C153.257 293.674 153.557 294.022 153.928 294.022H196.988C197.358 294.022 197.658 293.674 197.658 293.245V287.952C197.658 287.523 197.358 287.175 196.988 287.175ZM196.988 298.301H161.328C160.958 298.301 160.657 298.649 160.657 299.077V304.371C160.657 304.8 160.958 305.147 161.328 305.147H196.988C197.358 305.147 197.658 304.8 197.658 304.371V299.077C197.658 298.649 197.358 298.301 196.988 298.301ZM196.988 320.552H176.128C175.758 320.552 175.458 320.9 175.458 321.329V326.622C175.458 327.051 175.758 327.399 176.128 327.399H196.988C197.358 327.399 197.658 327.051 197.658 326.622V321.329C197.658 320.9 197.358 320.552 196.988 320.552ZM196.988 309.427H153.928C153.557 309.427 153.257 309.774 153.257 310.203V315.497C153.257 315.925 153.557 316.273 153.928 316.273H196.988C197.358 316.273 197.658 315.925 197.658 315.497V310.203C197.658 309.774 197.358 309.427 196.988 309.427Z" fill="#E1E5F0"/>
<path d="M191.785 335.734H163.508C161.955 335.734 161.027 336.004 160.208 336.512C159.388 337.019 158.745 337.764 158.306 338.714C157.868 339.663 157.635 340.737 157.635 342.536V343.789C157.635 345.587 157.868 346.662 158.306 347.611C158.745 348.56 159.388 349.305 160.208 349.813C161.027 350.321 161.955 350.591 163.508 350.591H191.785C193.338 350.591 194.266 350.321 195.085 349.813C195.905 349.305 196.548 348.56 196.986 347.611C197.425 346.662 197.658 345.587 197.658 343.789V342.536C197.658 340.737 197.425 339.663 196.986 338.714C196.548 337.764 195.905 337.019 195.085 336.512C194.266 336.004 193.338 335.734 191.785 335.734Z" fill="#474BFF"/>
<path d="M213.917 238.05C213.917 233.76 210.918 230.282 207.209 230.282H58.3439C54.6387 230.282 51.6351 233.761 51.6351 238.05V246.226H213.917V238.05Z" fill="#E1E5F0"/>
<path d="M204.694 241.878C203.053 241.878 201.723 240.337 201.723 238.435C201.723 236.534 203.053 234.993 204.694 234.993C206.334 234.993 207.664 236.534 207.664 238.435C207.664 240.337 206.334 241.878 204.694 241.878Z" fill="#FF5645"/>
<path d="M195 241.878C193.36 241.878 192.03 240.337 192.03 238.435C192.03 236.534 193.36 234.993 195 234.993C196.641 234.993 197.971 236.534 197.971 238.435C197.971 240.337 196.641 241.878 195 241.878Z" fill="#FFCB3D"/>
<path d="M184.994 241.878C183.354 241.878 182.024 240.337 182.024 238.435C182.024 236.534 183.354 234.993 184.994 234.993C186.635 234.993 187.965 236.534 187.965 238.435C187.965 240.337 186.635 241.878 184.994 241.878Z" fill="#3ABF7C"/>
<path d="M339.999 84.2683H495.229C498.933 84.2683 501.935 87.7456 501.935 92.035V222.515C501.935 226.804 498.933 230.282 495.229 230.282H339.999C336.295 230.282 333.293 226.804 333.293 222.515V92.035C333.293 87.7456 336.295 84.2683 339.999 84.2683Z" fill="#F2F6FB"/>
<path d="M493.599 112.659H488.808C488.437 112.659 488.137 113.007 488.137 113.436V115.431C488.137 115.86 488.437 116.208 488.808 116.208H493.599C493.969 116.208 494.27 115.86 494.27 115.431V113.436C494.27 113.007 493.969 112.659 493.599 112.659ZM363.285 112.659H341.629C341.259 112.659 340.959 113.007 340.959 113.436V115.431C340.959 115.86 341.259 116.208 341.629 116.208H363.285C363.655 116.208 363.955 115.86 363.955 115.431V113.436C363.955 113.007 363.655 112.659 363.285 112.659ZM404.679 112.659H383.023C382.653 112.659 382.353 113.007 382.353 113.436V115.431C382.353 115.86 382.653 116.208 383.023 116.208H404.679C405.049 116.208 405.349 115.86 405.349 115.431V113.436C405.349 113.007 405.049 112.659 404.679 112.659ZM378.616 112.659H367.692C367.322 112.659 367.022 113.007 367.022 113.436V115.431C367.022 115.86 367.322 116.208 367.692 116.208H378.616C378.986 116.208 379.286 115.86 379.286 115.431V113.436C379.286 113.007 378.986 112.659 378.616 112.659Z" fill="#E1E5F0"/>
<path d="M342.3 126.854H492.928C493.669 126.854 494.27 127.549 494.27 128.407V217.57C494.27 218.428 493.669 219.123 492.928 219.123H342.3C341.559 219.123 340.959 218.428 340.959 217.57V128.407C340.959 127.549 341.559 126.854 342.3 126.854Z" fill="#E1E5F0"/>
<path d="M379.957 167.665H455.271C455.642 167.665 455.942 168.013 455.942 168.442V173.986C455.942 174.415 455.642 174.763 455.271 174.763H379.957C379.587 174.763 379.286 174.415 379.286 173.986V168.442C379.286 168.013 379.587 167.665 379.957 167.665Z" fill="#F2F6FB"/>
<path d="M441.922 188.071H393.307C391.176 188.071 390.345 188.341 389.525 188.849C388.705 189.357 388.062 190.102 387.624 191.051C387.185 192 386.952 192.963 386.952 195.431V198.455C386.952 200.923 387.185 201.886 387.624 202.835C388.062 203.784 388.705 204.529 389.525 205.037C390.345 205.545 391.176 205.815 393.307 205.815H441.922C444.052 205.815 444.884 205.545 445.703 205.037C446.523 204.529 447.166 203.784 447.605 202.835C448.043 201.886 448.276 200.923 448.276 198.455V195.431C448.276 192.963 448.043 192 447.605 191.051C447.166 190.102 446.523 189.357 445.703 188.849C444.884 188.341 444.052 188.071 441.922 188.071Z" fill="#474BFF"/>
<path d="M411.378 146.069C410.284 146.069 409.396 145.04 409.396 143.771C409.396 142.501 410.284 141.473 411.378 141.473C412.473 141.473 413.361 142.501 413.361 143.771C413.361 145.04 412.473 146.069 411.378 146.069Z" fill="#F2F6FB"/>
<path d="M411.262 159.984C411.262 159.984 411.56 159.984 411.933 159.984H429.134C429.504 159.984 429.646 159.692 429.447 159.324L421.044 143.818C420.847 143.454 420.521 143.448 420.317 143.803L412.94 156.762" fill="#F2F6FB"/>
<path d="M417.174 159.997C417.174 159.997 417.015 159.704 416.819 159.342L411.929 150.3C411.733 149.938 411.404 149.929 411.193 150.282L405.922 159.079C405.711 159.431 405.84 159.727 406.21 159.741L410.888 159.907" fill="#F2F6FB"/>
<path d="M501.935 92.0365C501.935 87.7462 498.933 84.2683 495.226 84.2683H340.326C336.621 84.2683 333.617 87.7456 333.617 92.0365V100.784H501.935V92.0365Z" fill="#E1E5F0"/>
<path d="M492.368 96.2797C490.666 96.2797 489.287 94.6832 489.287 92.7138C489.287 90.7444 490.666 89.1479 492.368 89.1479C494.069 89.1479 495.449 90.7444 495.449 92.7138C495.449 94.6832 494.069 96.2797 492.368 96.2797Z" fill="#FF5645"/>
<path d="M482.314 96.2797C480.612 96.2797 479.233 94.6832 479.233 92.7138C479.233 90.7444 480.612 89.1479 482.314 89.1479C484.016 89.1479 485.395 90.7444 485.395 92.7138C485.395 94.6832 484.016 96.2797 482.314 96.2797Z" fill="#FFCB3D"/>
<path d="M471.936 96.2797C470.235 96.2797 468.855 94.6832 468.855 92.7138C468.855 90.7444 470.235 89.1479 471.936 89.1479C473.638 89.1479 475.017 90.7444 475.017 92.7138C475.017 94.6832 473.638 96.2797 471.936 96.2797Z" fill="#3ABF7C"/>
<path d="M354.909 418.623C355.747 418.623 356.417 417.951 356.417 417.145V416.607C356.417 415.801 355.713 415.128 354.909 415.128H320.541C319.703 415.128 319.032 415.801 319.032 416.607V417.145C319.032 417.951 319.736 418.623 320.541 418.623H354.909ZM262.703 415.128H205.703C204.869 415.128 204.194 415.911 204.194 416.876C204.194 417.841 204.869 418.623 205.703 418.623H262.703C263.536 418.623 264.212 417.841 264.212 416.876C264.212 415.911 263.536 415.128 262.703 415.128Z" fill="#FF5645"/>
<path d="M205.524 415.141C205.582 415.133 205.642 415.128 205.703 415.128H262.703C262.798 415.128 262.892 415.139 262.982 415.158L260.289 390.275H235.074C232.65 392.275 230.649 393.983 229.073 395.401C228.608 395.819 228.151 396.238 227.7 396.659C225.473 398.738 223.026 400.479 220.418 401.839C217.826 403.191 215.235 404.591 212.643 406.041C211.034 406.935 209.491 407.905 207.949 409.032C207.211 409.808 205.904 411.362 205.501 413.226C205.434 413.536 205.434 413.847 205.401 414.119C205.401 414.483 205.447 414.825 205.524 415.141ZM319.99 415.231C320.16 415.165 320.346 415.128 320.541 415.128H354.477C353.119 411.717 350.088 403.44 345.386 390.295H318.798L319.99 415.231Z" fill="#474961"/>
<path d="M283.021 266.765L309.023 374.863C310.235 379.901 314.197 383.387 318.713 383.387H339.933C345.489 383.387 349.992 378.171 349.992 371.737C349.992 370.748 349.884 369.763 349.669 368.806L321.704 244.181C317.618 218.287 314.183 201.486 311.398 193.778C307.002 181.611 298.338 175.539 294.584 175.231C276.883 173.778 267.753 174.388 267.196 177.059C262.402 178.692 250.122 201.707 239.668 258.03C233.208 292.835 229.726 331.069 229.221 372.733C229.143 379.167 233.583 384.455 239.138 384.546C239.187 384.546 239.235 384.547 239.283 384.547L259.026 384.537C264.344 384.534 268.742 379.737 269.062 373.589L273.566 287.174L283.021 266.765Z" fill="#A339FF"/>
<path d="M222.657 116.147L221.004 143.527C220.914 145.025 221.889 146.324 223.182 146.428L231.878 147.133C233.171 147.237 234.293 146.108 234.383 144.61L236.395 111.295C236.407 111.09 236.399 110.888 236.374 110.693L236.558 110.619L245.788 108.84C249.012 108.218 251.482 105.181 251.824 101.416L251.825 101.406C252.167 97.6342 250.321 94.0527 247.293 92.6109L237.981 88.1777L217.693 72.2739C217.348 72.0034 216.947 71.8441 216.531 71.8126C215.238 71.7144 214.121 72.8492 214.036 74.3473L211.648 116.542C211.628 116.901 211.67 117.262 211.771 117.602C212.192 119.022 213.527 119.778 214.753 119.291L222.657 116.147Z" fill="#474961"/>
<path opacity="0.176986" d="M225.387 107.749L234.083 108.454C235.377 108.558 236.352 109.857 236.261 111.355L234.25 144.67C234.159 146.168 233.038 147.297 231.745 147.192L223.048 146.488C221.755 146.383 220.78 145.084 220.87 143.587L222.882 110.271C222.972 108.774 224.094 107.645 225.387 107.749Z" fill="#444444"/>
<path d="M212.644 72.7411C212.747 71.0295 214.029 69.739 215.507 69.8587C216.985 69.9784 218.099 71.463 217.996 73.1745L215.306 117.724C215.202 119.436 213.921 120.726 212.443 120.606C210.965 120.487 209.851 119.002 209.954 117.291L212.644 72.7411Z" fill="#474BFF"/>
<path d="M271.662 114.378C266.26 117.14 262.354 122.385 260.899 128.315C260.397 130.335 260.303 132.509 260.491 134.606L262.562 161.906C262.594 162.333 262.625 162.722 262.625 163.149C262.657 165.168 263.002 167.654 264.351 169.712C266.297 172.741 269.31 177.012 281.865 176.857C293.54 176.702 296.334 172.43 298.217 169.479C299.567 167.382 299.849 164.508 299.88 162.566C299.88 162.139 299.912 161.751 299.943 161.324L300.839 147.99C301.692 148.801 302.486 149.425 303.207 149.796C305.965 151.21 307.819 148.399 308.77 141.36C311.801 136.835 320.761 130.24 306.137 117.355C300.656 112.526 295.562 112.38 291.675 114.409C289.167 113.204 286.31 112.485 283.227 112.342L283.164 111.309C283.1 110.239 282.299 109.432 281.375 109.507L273.013 110.184C272.089 110.259 271.393 111.187 271.458 112.257L271.551 113.806C271.563 114.008 271.602 114.2 271.662 114.378Z" fill="#FF5645"/>
<path d="M345.386 390.295L343.156 382.8L318.279 383.387L318.798 390.295H345.386ZM242.039 245.735C251.954 198.088 262.83 178.371 267.216 177.04C267.22 177.015 267.224 176.99 267.229 176.965C264.102 174.392 260.384 170.752 256.074 166.045C245.569 186.073 239.945 205.653 239.201 224.785C238.772 235.831 239.718 242.814 242.039 245.735ZM238.975 121.748C238.784 121.641 238.577 121.563 238.358 121.518L223.499 118.484C222.223 118.223 221.006 119.21 220.78 120.689L220.606 121.836C220.502 122.518 220.628 123.186 220.918 123.733C220.507 124.129 220.21 124.69 220.11 125.349L219.935 126.496C219.785 127.483 220.115 128.44 220.732 129.045C219.914 129.334 219.263 130.132 219.104 131.174L218.929 132.321C218.704 133.799 219.557 135.209 220.833 135.47L232.92 137.938C251.988 162.699 265.22 176.934 272.618 180.641C279.321 184.001 289.484 173.629 303.106 149.525C298.961 147.127 292.589 136.954 286.254 130.933C286.174 130.857 286.097 130.779 286.023 130.699L273.021 150.001C250.336 131.133 238.993 121.699 238.993 121.699L238.975 121.748ZM271.974 106.373L272.18 110.651C278.075 110.443 281.351 110.124 282.007 109.693L281.81 102.588L282.007 99.8787L281.837 97.6849L279.114 98.0154L278.977 97.6519C279.013 97.6158 279.015 97.5771 279.015 97.5771C279.139 97.1978 279.459 96.9123 279.726 96.934C280.34 96.789 281.267 96.4748 282.09 95.6461C283.237 94.4544 283.997 92.4527 283.583 90.395C283.198 88.4174 283.072 85.2922 281.464 85.201C280.559 85.1666 279.12 85.1316 279.015 85.201C278.91 85.2703 276.699 86.9567 276.788 86.0297C276.848 85.4117 277.159 82.115 277.722 76.1397C277.759 75.5199 277.39 74.945 276.857 74.8629C275.89 74.7456 274.963 74.5148 274.009 74.1651C272.982 73.9262 272.253 73.7504 272.021 73.6927C270.398 73.2888 267.448 73.1666 264.764 74.1949C263.623 74.7254 262.499 75.5297 261.521 76.6962C261.268 76.9871 261.011 77.3555 260.753 77.724C260.679 77.8348 260.605 77.9456 260.529 78.0951C259.78 79.358 259.321 80.8391 259.228 82.3886L258.709 89.3147C258.7 90.0147 258.658 90.712 258.716 91.4174C259.198 100.137 261.803 106.538 264.553 107.189C264.883 107.294 266.678 107.633 268.851 107.265C269.057 107.203 268.885 107.267 271.827 106.416C271.876 106.401 271.925 106.387 271.974 106.373ZM260.412 392.503L259.683 384.547L237.142 384.244L234.957 390.611L260.412 392.503Z" fill="#F2A98A"/>
<path opacity="0.176986" d="M283.112 266.514L267.294 177.269C267.291 177.184 267.296 177.101 267.309 177.019C262.617 178.246 250.199 201.157 239.643 258.032C233.167 292.922 229.69 331.172 229.213 372.782C229.141 379.029 233.456 384.161 238.85 384.244C238.893 384.244 238.936 384.245 238.98 384.245C241.953 384.245 248.595 384.303 258.903 384.421C264.261 384.482 268.72 379.668 269.043 373.473L273.54 287.175L283.112 266.514Z" fill="#444444"/>
<path opacity="0.2" d="M242.039 245.734C251.953 198.088 262.83 178.371 267.216 177.039C267.22 177.014 267.224 176.99 267.229 176.965C264.102 174.392 260.384 170.752 256.074 166.045C245.569 186.073 239.944 205.653 239.201 224.785C238.772 235.831 239.718 242.814 242.039 245.734Z" fill="#8C2A00"/>
<path d="M272.145 110.17L275.618 105.177L271.864 106.404L272.145 110.17Z" fill="#482D1F"/>
<path d="M275.738 89.5435L276.123 88.7008C276.123 88.7008 276.733 87.5046 277.957 86.7084C278.062 86.639 278.829 86.195 279.734 86.2294C281.342 86.3207 282.851 88.039 283.236 90.0166C283.683 92.0771 282.924 94.0787 281.779 95.2317C280.631 96.4234 279.076 96.5568 278.634 96.6378L278.624 96.6367C277.952 98.2493 277.888 99.9739 278.433 101.81C278.904 103.401 280.215 104.902 281.771 106.12L284.731 105.889L281.916 101.601C282.987 100.602 284.624 98.9935 285.599 97.6432C286.369 96.5767 288.834 94.1681 289.803 89.8088C289.906 89.2895 290.108 88.3375 290.218 87.1387C292.096 88.3364 294.361 88.8067 296.666 88.2879C301.756 87.1421 305.108 81.6052 304.154 75.9208C303.2 70.2365 298.301 66.5574 293.211 67.7032C289.293 68.5853 286.404 72.0696 285.717 76.2201C283.582 74.9923 281.493 75.3135 276.974 74.5999C276.575 74.5287 275.911 74.397 275.046 74.2491C274.68 74.1806 274.382 74.1175 274.083 74.0544C273.055 73.8154 272.327 73.6396 272.095 73.5819C270.472 73.178 267.522 73.0558 264.838 74.0842C263.697 74.6146 262.573 75.4189 261.595 76.5854C261.342 76.8764 260.277 78.2162 260.02 78.5847C259.702 79.8424 260.848 80.3358 261.636 80.6332C264.103 81.5337 267.564 79.5992 268.925 79.3201C271.117 82.5341 273.279 85.7066 275.437 88.9178C275.534 89.1113 275.634 89.3206 275.738 89.5435ZM257.959 87.7272C258.622 87.9229 259.653 88.1411 260.571 87.8857C262.1 87.473 260.671 86.4141 259.298 86.3308C258.628 86.2901 258.11 86.6086 257.795 86.9006C257.517 87.117 257.628 87.6293 257.959 87.7272ZM264.41 88.3075C265.059 88.5564 266.074 88.8572 267.076 88.6476C268.623 88.398 267.265 87.1877 265.9 86.9936C265.201 86.8942 264.665 87.1701 264.333 87.4359C264.005 87.6631 264.085 88.1831 264.41 88.3075Z" fill="#482D1F"/>
<path d="M260.262 90.8804C260.264 90.4128 259.959 89.9921 259.558 89.9514C259.291 89.9244 259.046 90.0554 258.907 90.5482C258.513 91.7557 259.378 93.6754 259.895 93.0651C260.231 92.6314 260.279 91.5448 260.262 90.8804ZM266.238 91.5249C266.24 91.0573 265.935 90.6366 265.534 90.596C265.267 90.5689 265.022 90.6999 264.883 91.1927C264.489 92.4002 265.354 94.3199 265.871 93.7097C266.207 93.2759 266.255 92.1893 266.238 91.5249ZM263.224 99.0147C263.462 98.9514 264.04 98.792 264.16 98.3715C264.163 98.294 264.202 98.1797 264.172 98.1001C264.05 97.8205 263.642 97.9512 263.037 97.9534C261.964 97.9272 261.099 97.758 261.099 97.758C261.099 97.758 261.298 98.5478 261.455 98.7907C261.762 99.4315 262.851 99.1087 263.224 99.0147ZM261.921 91.4609L261.922 91.4354L261.927 91.4104L261.921 91.4609ZM261.203 95.5273C261.12 95.9643 261.393 96.4116 261.771 96.5084C261.814 96.5186 261.852 96.5273 261.89 96.5356C262.125 96.5857 262.345 96.616 262.754 96.6595C262.817 96.6662 263.057 96.6912 263.06 96.6916C263.192 96.7055 263.301 96.7172 263.414 96.7297C263.598 96.7502 263.762 96.5938 263.779 96.3803C263.797 96.1668 263.662 95.9771 263.478 95.9566C263.364 95.9439 263.254 95.9321 263.12 95.9181C263.117 95.9177 262.878 95.8927 262.815 95.8861C262.426 95.8446 262.222 95.8165 262.012 95.7718C261.978 95.7646 261.945 95.757 261.912 95.749C261.886 95.7424 261.858 95.6959 261.859 95.6886L262.584 91.5653L262.59 91.5147L262.727 89.2287C262.739 89.0148 262.6 88.8293 262.415 88.8144C262.231 88.7996 262.07 88.961 262.058 89.1749L261.922 91.4354L261.203 95.5273Z" fill="#482D1F"/>
<path d="M285.606 131.036C285.828 126.242 286.888 121.658 288.786 117.288C288.91 117.001 289.213 116.885 289.461 117.03C289.709 117.174 289.809 117.525 289.684 117.812C287.849 122.038 286.824 126.466 286.61 131.099C286.595 131.42 286.358 131.666 286.081 131.649C285.803 131.632 285.591 131.357 285.606 131.036Z" fill="#482D1F"/>
<path d="M86.1704 100.578H191.788C192.899 100.578 193.8 101.622 193.8 102.908V195.72C193.8 197.007 192.899 198.05 191.788 198.05H86.1704C85.0593 198.05 84.1586 197.007 84.1586 195.72V102.908C84.1586 101.622 85.0593 100.578 86.1704 100.578Z" fill="#F2F6FB"/>
<path d="M106.243 152.947H102.729C101.235 152.947 100.693 153.128 100.146 153.466C99.6 153.804 99.1712 154.301 98.879 154.934C98.5868 155.567 98.4312 156.194 98.4312 157.925V198.05H110.542V157.925C110.542 156.194 110.386 155.567 110.094 154.934C109.801 154.301 109.373 153.804 108.826 153.466C108.28 153.128 107.738 152.947 106.243 152.947Z" fill="#D8DEED"/>
<path d="M120.084 163.722H116.354C114.859 163.722 114.317 163.902 113.771 164.241C113.224 164.579 112.795 165.076 112.503 165.709C112.211 166.341 112.055 166.969 112.055 168.7V198.05H124.382V168.7C124.382 166.969 124.226 166.341 123.934 165.709C123.642 165.076 123.213 164.579 122.667 164.241C122.12 163.902 121.578 163.722 120.084 163.722Z" fill="#D8DEED"/>
<path d="M133.708 130.146H130.194C128.699 130.146 128.157 130.326 127.611 130.664C127.064 131.003 126.636 131.499 126.343 132.132C126.051 132.765 125.895 133.393 125.895 135.124V198.05H138.006V135.124C138.006 133.393 137.85 132.765 137.558 132.132C137.266 131.499 136.837 131.003 136.291 130.664C135.744 130.326 135.202 130.146 133.708 130.146Z" fill="#E1E5F0"/>
<path d="M147.548 138.916H144.034C142.54 138.916 141.998 139.096 141.451 139.434C140.905 139.773 140.476 140.269 140.184 140.902C139.892 141.535 139.736 142.163 139.736 143.894V198.05H151.846V143.894C151.846 142.163 151.691 141.535 151.398 140.902C151.106 140.269 150.677 139.773 150.131 139.434C149.585 139.096 149.043 138.916 147.548 138.916Z" fill="#D8DEED"/>
<path d="M161.172 159.462H157.658C156.164 159.462 155.622 159.642 155.075 159.981C154.529 160.319 154.1 160.816 153.808 161.449C153.515 162.082 153.36 162.709 153.36 164.44V198.05H165.47V164.44C165.47 162.709 165.315 162.082 165.022 161.449C164.73 160.816 164.301 160.319 163.755 159.981C163.209 159.642 162.667 159.462 161.172 159.462Z" fill="#D8DEED"/>
<path d="M175.012 149.189H171.499C170.004 149.189 169.462 149.369 168.916 149.707C168.369 150.046 167.94 150.543 167.648 151.175C167.356 151.808 167.2 152.436 167.2 154.167V198.05H179.311V154.167C179.311 152.436 179.155 151.808 178.863 151.175C178.57 150.543 178.142 150.046 177.595 149.707C177.049 149.369 176.507 149.189 175.012 149.189Z" fill="#D8DEED"/>
</svg>
