<svg width="570" height="455" viewBox="0 0 570 455" fill="none" xmlns="http://www.w3.org/2000/svg">
<path d="M213.86 0H445.51C451.171 0 455.76 4.5717 455.76 10.2112V178.696C455.76 184.335 451.171 188.907 445.51 188.907H213.86C208.2 188.907 203.611 184.335 203.611 178.696V10.2112C203.611 4.5717 208.2 0 213.86 0Z" fill="#F2F6FB"/>
<path d="M455.76 10.2142C455.76 4.57307 451.173 0 445.513 0H213.359C207.7 0 203.112 4.57069 203.112 10.2142V21.3672H455.76V10.2142Z" fill="#E1E5F0"/>
<path d="M441.059 15.5398C438.445 15.5398 436.325 13.4743 436.325 10.9265C436.325 8.37857 438.445 6.31311 441.059 6.31311C443.674 6.31311 445.793 8.37857 445.793 10.9265C445.793 13.4743 443.674 15.5398 441.059 15.5398Z" fill="#FF5645"/>
<path d="M425.611 15.5398C422.997 15.5398 420.877 13.4743 420.877 10.9265C420.877 8.37857 422.997 6.31311 425.611 6.31311C428.226 6.31311 430.345 8.37857 430.345 10.9265C430.345 13.4743 428.226 15.5398 425.611 15.5398Z" fill="#FFCB3D"/>
<path d="M409.665 15.5398C407.051 15.5398 404.931 13.4743 404.931 10.9265C404.931 8.37857 407.051 6.31311 409.665 6.31311C412.28 6.31311 414.399 8.37857 414.399 10.9265C414.399 13.4743 412.28 15.5398 409.665 15.5398Z" fill="#3ABF7C"/>
<path d="M443.273 35.7889H436.154C435.588 35.7889 435.129 36.2461 435.129 36.81V39.2414C435.129 39.8054 435.588 40.2626 436.154 40.2626H443.273C443.839 40.2626 444.298 39.8054 444.298 39.2414V36.81C444.298 36.2461 443.839 35.7889 443.273 35.7889ZM248.431 35.7889H216.097C215.531 35.7889 215.072 36.2461 215.072 36.81V39.2414C215.072 39.8054 215.531 40.2626 216.097 40.2626H248.431C248.997 40.2626 249.456 39.8054 249.456 39.2414V36.81C249.456 36.2461 248.997 35.7889 248.431 35.7889ZM310.322 35.7889H277.988C277.422 35.7889 276.963 36.2461 276.963 36.81V39.2414C276.963 39.8054 277.422 40.2626 277.988 40.2626H310.322C310.888 40.2626 311.347 39.8054 311.347 39.2414V36.81C311.347 36.2461 310.888 35.7889 310.322 35.7889ZM271.354 35.7889H255.065C254.499 35.7889 254.04 36.2461 254.04 36.81V39.2414C254.04 39.8054 254.499 40.2626 255.065 40.2626H271.354C271.92 40.2626 272.379 39.8054 272.379 39.2414V36.81C272.379 36.2461 271.92 35.7889 271.354 35.7889Z" fill="#D8DEED"/>
<path d="M431.812 68.2225H365.094C364.528 68.2225 364.069 68.6796 364.069 69.2436V76.1486C364.069 76.7125 364.528 77.1697 365.094 77.1697H431.812C432.378 77.1697 432.837 76.7125 432.837 76.1486V69.2436C432.837 68.6796 432.378 68.2225 431.812 68.2225ZM431.812 82.7617H376.555C375.989 82.7617 375.53 83.2189 375.53 83.7829V90.6879C375.53 91.2518 375.989 91.709 376.555 91.709H431.812C432.378 91.709 432.837 91.2518 432.837 90.6879V83.7829C432.837 83.2189 432.378 82.7617 431.812 82.7617ZM431.812 111.84H399.478C398.912 111.84 398.453 112.297 398.453 112.861V119.766C398.453 120.33 398.912 120.788 399.478 120.788H431.812C432.378 120.788 432.837 120.33 432.837 119.766V112.861C432.837 112.297 432.378 111.84 431.812 111.84ZM431.812 97.301H365.094C364.528 97.301 364.069 97.7582 364.069 98.3221V105.227C364.069 105.791 364.528 106.248 365.094 106.248H431.812C432.378 106.248 432.837 105.791 432.837 105.227V98.3221C432.837 97.7582 432.378 97.301 431.812 97.301Z" fill="#E1E5F0"/>
<path d="M361.419 139.8H300.243C297.21 139.8 295.902 140.155 294.649 140.823C293.396 141.49 292.413 142.47 291.743 143.718C291.073 144.966 290.717 146.269 290.717 149.291V152.677C290.717 155.699 291.073 157.002 291.743 158.25C292.413 159.498 293.396 160.478 294.649 161.145C295.902 161.813 297.21 162.168 300.243 162.168H361.419C364.452 162.168 365.761 161.813 367.013 161.145C368.266 160.478 369.249 159.498 369.919 158.25C370.589 157.002 370.946 155.699 370.946 152.677V149.291C370.946 146.269 370.589 144.966 369.919 143.718C369.249 142.47 368.266 141.49 367.013 140.823C365.761 140.155 364.452 139.8 361.419 139.8Z" fill="#3ABF7C"/>
<path d="M246.466 90.1159V101.859C246.466 105.311 248.645 108.391 251.909 109.552C259.563 112.274 267.216 113.635 274.87 113.635C282.524 113.635 290.178 112.274 297.832 109.552C301.096 108.391 303.274 105.311 303.274 101.859V90.8363L326.124 82.8013C327.025 82.4842 327.728 81.7673 328.024 80.8615C328.55 79.2529 327.667 77.524 326.053 76.9999L280.376 62.1742C276.468 60.9057 272.247 60.9738 268.382 62.3677L227.724 77.0308C226.892 77.3306 226.231 77.9726 225.908 78.7927C225.288 80.3678 226.067 82.1454 227.648 82.7631L246.466 90.1159Z" fill="#474BFF"/>
<path opacity="0.176986" d="M246.466 90.1161V101.859C246.466 105.312 248.645 108.391 251.909 109.552C259.563 112.274 267.216 113.636 274.87 113.636C282.524 113.636 290.178 112.274 297.832 109.552C301.096 108.391 303.274 105.312 303.274 101.859V90.8365L280.825 98.7308C276.646 100.201 272.075 100.122 267.949 98.5099L246.466 90.1161Z" fill="#444444"/>
<path d="M238.244 100.747V87.5977L275.148 79.3683C275.819 79.2187 276.238 78.5676 276.085 77.914C275.931 77.2604 275.263 76.8518 274.592 77.0013L236.72 85.4466C236.154 85.5729 235.752 86.0639 235.752 86.6301V100.747C234.441 101.235 233.51 102.473 233.51 103.923C233.51 105.172 234.201 106.264 235.232 106.855C235.142 107.014 235.074 107.154 235.028 107.275C232.854 113.036 230.094 119.145 236.399 119.457C240.022 119.636 240.608 115.527 238.157 107.13C239.514 106.665 240.486 105.404 240.486 103.923C240.486 102.473 239.555 101.235 238.244 100.747Z" fill="#474961"/>
<path d="M184.151 8.16665C184.151 5.34825 181.855 3.06348 179.027 3.06348H133.11L114.455 21.6217V80.1583C114.455 82.9778 116.754 85.2636 119.58 85.2636H179.026C181.856 85.2636 184.151 82.9793 184.151 80.1604V8.16665Z" fill="#F2F6FB"/>
<path d="M135.796 48.49L159.032 60.1373C159.209 60.2261 159.425 60.155 159.514 59.9787C159.539 59.9289 159.552 59.8739 159.552 59.8181V36.5235C159.552 36.3261 159.392 36.1661 159.194 36.1661C159.138 36.1661 159.082 36.1791 159.032 36.2042L135.796 47.8515C135.619 47.9402 135.547 48.1551 135.636 48.3314C135.671 48.3999 135.727 48.4556 135.796 48.49Z" fill="#D8DEED"/>
<path d="M133.11 3.06348L114.455 21.6216L131.957 24.7627C134.744 25.2629 136.616 23.4183 136.137 20.6375L133.11 3.06348Z" fill="#D8DEED"/>
<path d="M184.151 109.257C184.151 106.439 181.855 104.154 179.027 104.154H133.11L114.455 122.712V181.249C114.455 184.068 116.754 186.354 119.58 186.354H179.026C181.856 186.354 184.151 184.07 184.151 181.251V109.257Z" fill="#F2F6FB"/>
<path d="M133.11 104.154L114.455 122.712L131.957 125.853C134.744 126.353 136.616 124.509 136.137 121.728L133.11 104.154Z" fill="#D8DEED"/>
<path d="M168.264 160.573V138.898C168.264 138.457 168.074 138.038 167.742 137.748C165.127 135.456 161.934 134.495 158.162 134.865C154.136 135.26 151.467 137.295 150.154 140.971V164.665C150.154 164.947 150.384 165.175 150.667 165.175C150.827 165.175 150.978 165.101 151.075 164.974C152.884 162.609 154.935 161.129 157.226 160.535C159.491 159.949 162.457 160.431 166.126 161.983C166.907 162.314 167.81 161.951 168.142 161.172C168.223 160.983 168.264 160.779 168.264 160.573ZM130.122 160.573C130.122 160.779 130.164 160.983 130.244 161.172C130.576 161.951 131.479 162.314 132.26 161.983C135.929 160.431 138.896 159.949 141.16 160.535C143.452 161.129 145.502 162.609 147.312 164.974C147.409 165.101 147.559 165.175 147.719 165.175C148.002 165.175 148.232 164.947 148.232 164.665V140.971C146.92 137.295 144.251 135.26 140.224 134.865C136.453 134.495 133.259 135.456 130.644 137.748C130.312 138.038 130.122 138.457 130.122 138.898V160.573Z" fill="#D8DEED"/>
<path d="M470.104 361.476H99.8961L73.6321 252.828C68.7655 232.696 49.2222 219.641 28.6804 222.8C27.7531 222.942 26.832 223.123 25.9198 223.342C7.75323 227.701 -3.42694 245.906 0.948242 264.005L30.5334 386.392C35.4 406.524 54.9434 419.579 75.4852 416.42C76.4125 416.278 77.3335 416.097 78.2457 415.878C89.3001 413.225 97.7676 405.446 101.718 395.683H468.282C472.232 405.446 480.7 413.225 491.754 415.878C492.667 416.097 493.587 416.278 494.515 416.42C515.057 419.579 534.6 406.524 539.467 386.392L569.052 264.005C573.427 245.906 562.247 227.701 544.08 223.342C543.168 223.123 542.247 222.942 541.32 222.8C520.778 219.641 501.234 232.696 496.368 252.828L470.104 361.476Z" fill="#E1E5F0"/>
<mask id="mask0" mask-type="alpha" maskUnits="userSpaceOnUse" x="77" y="222" width="416" height="140">
<path d="M441.41 222.603H128.804C100.501 222.603 77.5569 245.461 77.5569 273.659V361.475H492.657V273.659C492.657 245.461 469.713 222.603 441.41 222.603Z" fill="white"/>
</mask>
<g mask="url(#mask0)">
<path d="M441.41 222.603H128.804C100.501 222.603 77.5569 245.461 77.5569 273.659V361.475H492.657V273.659C492.657 245.461 469.713 222.603 441.41 222.603Z" fill="#F2F6FB"/>
</g>
<path d="M505.214 423.764L519.344 448.147C521.537 451.932 526.395 453.228 530.195 451.043C533.994 448.858 535.295 444.018 533.102 440.233L521.833 420.787C525.129 418.217 527.248 414.217 527.248 409.723C527.248 401.969 520.938 395.683 513.155 395.683H58.0824C50.2991 395.683 43.9895 401.969 43.9895 409.723C43.9895 413.941 45.8562 417.725 48.8114 420.298L37.2591 440.233C35.0656 444.018 36.3672 448.858 40.1665 451.043C43.9657 453.228 48.8237 451.932 51.0172 448.147L65.1473 423.764H505.214Z" fill="#D8DEED"/>
<path d="M292.603 450.405C292.388 450.338 292.161 450.303 291.927 450.303H263.485C262.204 450.303 261.127 451.375 261.127 452.651C261.127 453.928 262.204 455 263.485 455H287.926H369.921C371.195 455 372.227 453.971 372.227 452.702C372.227 451.433 371.195 450.405 369.921 450.405H292.603Z" fill="#FFCB3D"/>
<path d="M287.952 450.405H291.927C292.161 450.405 292.389 450.441 292.604 450.507H369.921C370.293 450.507 370.645 450.595 370.956 450.751L371.715 417.702L333.351 418.246L326.081 397.818L292.362 408C290.678 413.702 288.943 419.404 287.208 425.157C286.29 428.161 285.371 431.114 284.453 434.067C281.596 435.187 279.146 436.205 277.412 436.969C274.095 438.394 271.289 439.718 268.227 441.703C268.227 441.703 265.574 443.333 264.095 445.674C263.635 446.438 263.227 447.304 262.972 448.22C262.87 448.627 262.87 449.035 262.819 449.391C262.835 449.725 262.911 450.099 263.007 450.455C263.162 450.422 263.322 450.405 263.485 450.405H287.942C287.92 450.332 287.91 450.258 287.911 450.183C287.912 450.258 287.926 450.332 287.952 450.405Z" fill="#474961"/>
<path opacity="0.176986" d="M287.861 450.405C287.826 450.289 287.82 450.17 287.845 450.047C287.896 449.639 287.896 449.231 287.999 448.873C288.614 446.423 290.561 444.38 291.688 443.308C293.994 441.827 296.301 440.5 298.812 439.326C307.882 434.833 310.496 434.884 316.441 430.851C318.9 429.166 321.155 427.277 323.256 425.132L332.074 418.291L333.279 418.274L325.999 397.818L292.28 408C290.596 413.702 288.862 419.404 287.127 425.157C286.208 428.161 285.29 431.114 284.372 434.067C281.514 435.187 279.065 436.205 277.33 436.969C274.014 438.394 271.208 439.718 268.146 441.703C268.146 441.703 265.493 443.332 264.013 445.674C263.554 446.438 263.146 447.304 262.891 448.22C262.789 448.627 262.789 449.035 262.738 449.391C262.754 449.731 262.832 450.111 262.931 450.473C263.109 450.428 263.295 450.405 263.485 450.405H287.861Z" fill="#444444"/>
<path d="M321.76 383.827C321.577 388.184 321.33 391.806 320.975 394.466C320.915 395.131 320.949 400.024 321.867 401.761C324.717 407.081 340.517 405.517 354.589 405.908C368.661 406.298 376.418 407.668 380.606 404.441C382.901 402.682 383.242 399.524 383.378 398.422C384.006 392.809 384.737 387.123 385.508 381.408C403.047 388.341 414.078 392.453 418.601 393.744C423.075 395.021 428.034 395.365 432.543 395.575C470.971 409.481 491.66 387.044 493.84 381.714C502.163 361.358 499.584 344.608 492.519 332.721C487.963 325.056 453.03 306.498 387.72 277.048C386.255 276.388 383.038 274.759 378.068 272.163C372.27 269.072 364.628 267.346 355.142 266.983C352.951 266.9 350.758 267.058 348.602 267.454C334.91 269.975 327.536 274.836 326.478 282.036C326.463 282.123 326.455 282.167 326.439 282.255C325.972 285.349 325.561 288.61 325.2 291.998C322.814 291.496 320.551 290.967 318.411 290.412C318.404 290.407 318.397 290.402 318.39 290.397C312.758 286.528 291.946 283.335 281.776 287.737C269.204 293.179 261.82 306.309 263.726 319.833H263.726C266.447 339.142 268.004 349.61 268.396 351.235C268.981 353.727 276.092 381.9 278.688 392.24C279.258 394.587 281.757 396.367 284.962 396.688C288.492 397.064 310.044 388.667 321.76 383.827Z" fill="#A339FF"/>
<path opacity="0.176986" d="M321.563 383.906C322.423 361.749 321.803 321.791 324.987 292.023C322.637 291.527 320.407 291.005 318.296 290.458C318.289 290.453 318.282 290.448 318.275 290.443C312.643 286.574 291.831 283.38 281.661 287.783C269.089 293.225 261.705 306.355 263.611 319.879C266.332 339.188 267.889 349.655 268.281 351.281C268.867 353.772 275.977 381.945 278.573 392.285C279.143 394.632 281.642 396.413 284.847 396.734C288.369 397.108 309.83 388.752 321.563 383.906ZM385.3 381.417C402.894 388.372 413.956 392.496 418.486 393.789C422.754 395.008 427.462 395.377 431.801 395.59C431.061 395.317 430.315 395.031 429.561 394.731C413.181 388.201 399.183 378.279 387.568 364.964C386.813 370.449 386.038 375.946 385.3 381.417Z" fill="#444444"/>
<path d="M437.582 300.425C465.541 314.107 482.882 323.941 489.605 329.928L491.632 330.933C501.861 317.379 505.999 299.026 504.046 275.874C508.932 274.682 513.122 273.463 515.036 272.57C518.865 270.784 519.902 266.877 518.146 260.847C516.676 255.054 513.7 248.336 509.221 240.694C503.896 231.611 496.385 231.346 491.537 231.952C487.303 228.811 466.664 228.454 462.792 229.236C456.7 230.512 447.667 232.299 442.717 239.619C441.128 241.901 440.389 244.119 440.004 245.704C440.004 245.704 439.265 247.923 438.74 250.339C437.534 255.866 435.142 275.208 437.582 300.425Z" fill="#FFCB3D"/>
<path d="M377.109 227.7L428.142 273.478C429.299 274.516 429.392 276.292 428.35 277.444C427.309 278.597 425.527 278.69 424.37 277.652L373.337 231.874C372.18 230.836 372.087 229.06 373.129 227.908C374.17 226.755 375.952 226.662 377.109 227.7Z" fill="#474961"/>
<path d="M394.95 242.912L425.411 223.323C427.304 222.106 429.772 222.263 431.495 223.71L461.317 248.771C463.481 250.589 463.755 253.81 461.93 255.966C461.625 256.327 461.27 256.644 460.877 256.908L426.73 279.834L394.317 251.011C392.205 249.133 392.021 245.906 393.906 243.802C394.212 243.46 394.563 243.161 394.95 242.912Z" fill="#474BFF"/>
<path d="M479.056 210.587C480.589 208.609 481.962 206.749 482.691 205.219C483.772 202.992 483.209 196.496 481.165 193.905C479.121 191.314 462.912 179.329 462.708 179.314C460.98 179.04 451.248 177.902 445.731 184.785C445.228 185.364 444.772 185.998 444.357 186.788C443.458 188.619 442.957 190.631 442.967 192.679L443.047 201.795C443.085 202.719 443.174 203.646 443.317 204.526C444.35 211.047 446.384 216.46 448.708 219.949C450.424 222.576 452.369 224.145 454.155 224.32C454.662 224.407 457.427 224.548 460.715 223.805C460.93 223.75 460.873 223.796 462.211 223.323L461.937 229.33C457.501 230.255 451.757 231.53 447.136 234.886C453.733 238.383 461.038 239.957 469.053 239.607C472.5 239.456 476.135 238.996 479.958 238.225C482.795 234.879 486.251 232.909 488.181 232.591C489.061 232.447 490.253 232.206 491.65 232.046C491.625 232.026 491.601 232.005 491.576 231.984C489.89 230.601 485.045 229.742 479.755 229.275L479.426 210.471L479.056 210.587ZM435.829 283.757C435.71 283.757 435.591 283.75 435.473 283.737C435.588 283.742 435.702 283.741 435.816 283.735C435.82 283.743 435.825 283.75 435.829 283.757ZM428.974 278.177L426.8 279.618L424.781 277.828C424.715 277.779 424.65 277.726 424.587 277.669L423.38 276.587L394.549 251.027C394.148 250.672 393.816 250.268 393.554 249.831L384.836 242.01C380.887 240.066 377.824 239.298 376.802 240.73C376.802 240.73 392.086 257.243 400.159 265.911C402.271 271.426 405.401 278.479 409.55 287.071C419.884 291.885 429.257 296.35 437.667 300.466C437.125 295.085 436.807 289.968 436.653 285.191C446.693 302.326 462.213 316.805 483.212 328.63C510.066 343.753 514.443 292.195 515.14 272.291C515.041 272.34 514.941 272.387 514.838 272.433C509.331 274.889 483.791 280.551 479.059 279.785C478.923 279.769 478.792 279.737 478.665 279.691L479.47 292.06L449.674 270.976C449.668 270.968 449.662 270.96 449.656 270.952L434.827 252.043C433.695 250.598 431.601 250.342 430.151 251.471C429.697 251.824 429.36 252.272 429.146 252.764L428.717 252.13C427.688 250.611 425.618 250.21 424.093 251.235C423.087 251.911 422.57 253.038 422.629 254.163C421.829 254.086 420.999 254.296 420.307 254.816L420.298 254.823C418.892 255.878 418.611 257.869 419.671 259.27C419.699 259.307 419.728 259.344 419.757 259.38L419.975 259.643C418.927 259.395 417.778 259.658 416.931 260.445C415.585 261.695 415.512 263.795 416.767 265.135L428.974 278.177ZM319.975 384.347C310.979 388.031 297.501 393.287 289.924 395.518L292.361 408L321.172 399.299C320.949 397.781 320.958 396.244 320.995 395.828C321.318 393.405 321.547 390.161 321.716 386.274C321.743 385.51 321.773 384.712 321.807 383.881L319.975 384.347ZM371.702 406.51C367.475 406.572 361.924 406.111 354.589 405.908C349.353 405.762 343.878 405.888 338.92 405.828L332.908 417.002L333.351 418.246L371.667 417.702L371.702 406.51Z" fill="#F2A98A"/>
<path opacity="0.2" d="M436.797 284.814C436.593 284.461 436.391 284.107 436.191 283.752C435.238 283.805 434.27 283.452 433.568 282.702L429.255 278.094L426.957 279.618L424.938 277.828C424.871 277.779 424.807 277.726 424.744 277.669L423.537 276.587L394.706 251.027C394.304 250.672 393.972 250.267 393.711 249.831L384.992 242.01C381.044 240.066 377.981 239.298 376.958 240.73C376.958 240.73 392.229 257.228 400.304 265.899C402.413 271.443 405.538 278.554 409.612 287.027C419.984 291.857 429.388 296.337 437.823 300.466C437.268 294.943 436.947 289.698 436.797 284.814Z" fill="#8C2A00"/>
<path d="M462.21 223.34L469.339 220.939L461.968 229.316L462.21 223.34Z" fill="#482D1F"/>
<path d="M454.076 179.553C451.213 180.283 448.204 181.757 445.918 184.609C445.415 185.188 444.96 185.822 444.545 186.612C444.148 187.419 443.829 188.261 443.598 189.127L469.557 198.146L466.227 180.724C461.261 180.004 457.211 179.613 454.076 179.553Z" fill="#482D1F"/>
<path d="M452.067 180.649C461.157 189.517 466.945 195.31 469.432 198.03C469.524 198.162 469.616 198.299 469.709 198.439C469.819 197.977 470.246 196.472 471.418 195.019C471.527 194.925 472.475 193.865 473.843 193.397C476.31 192.648 479.405 193.938 480.989 196.249C482.672 198.618 482.461 201.623 481.329 203.848C480.197 206.072 478.23 207.01 477.544 207.269L474.785 207.793L474.506 207.667C476.535 211.943 478.384 215.792 479.568 216.07C481.72 216.577 485.039 211.998 487.382 209.78C488.871 208.37 492.449 203.758 493.519 197.335C493.837 195.21 495.018 188.003 490.576 182.326C489.025 180.353 487.184 179.321 486.427 178.872C483.852 177.505 473.966 176.724 466.37 176.31C467.817 174.076 468.697 169.448 469.009 162.425C469.02 162.194 468.951 161.967 468.814 161.78C468.482 161.324 467.841 161.223 467.383 161.554C461.09 166.112 457.085 169.423 455.368 171.488C454.108 169.489 450.43 167.161 444.334 164.503C444.119 164.409 443.88 164.392 443.654 164.453C443.108 164.601 442.785 165.162 442.934 165.706C445.462 174.974 447.386 179.842 448.705 180.312C449.43 180.57 450.551 180.682 452.067 180.649Z" fill="#DE3190"/>
<path d="M445.536 203.574C445.425 202.952 444.844 202.451 444.224 202.51C443.811 202.532 443.483 202.817 443.279 203.519C443.001 205.291 444.786 207.667 445.424 206.637C445.879 206.003 445.676 204.505 445.536 203.574ZM456.785 202.957C456.674 202.335 456.093 201.834 455.472 201.893C455.06 201.915 454.732 202.199 454.528 202.902C454.25 204.674 456.035 207.05 456.672 206.02C457.128 205.386 456.925 203.888 456.785 202.957Z" fill="#482D1F"/>
<path d="M449.349 204.235L448.94 209.325C448.939 209.344 449.011 209.427 449.035 209.429C449.315 209.448 449.602 209.45 450.051 209.438C450.139 209.435 450.23 209.433 450.361 209.429C450.527 209.423 450.617 209.42 450.704 209.418C451.001 209.409 451.248 209.403 451.51 209.398C451.793 209.393 452.027 209.618 452.031 209.9C452.036 210.182 451.811 210.414 451.528 210.419C451.27 210.423 451.028 210.43 450.735 210.438C450.649 210.441 450.559 210.444 450.393 210.449C450.261 210.453 450.168 210.456 450.079 210.458C449.599 210.471 449.283 210.469 448.964 210.447C448.375 210.406 447.877 209.835 447.918 209.248L448.327 204.154C448.349 203.873 448.596 203.663 448.879 203.685C449.161 203.708 449.371 203.954 449.349 204.235Z" fill="#482D1F"/>
<path d="M452.305 213.341C452.674 213.214 453.572 212.867 453.659 212.361C453.666 212.259 453.728 212.11 453.629 212.052C453.391 211.779 452.76 211.991 451.822 212.182C450.157 212.475 448.821 212.485 448.821 212.485C448.821 212.485 449.275 213.335 449.567 213.56C450.138 214.214 451.776 213.56 452.305 213.341Z" fill="#482D1F"/>
<path d="M464.731 201.581L467.791 200.875C468.204 200.779 468.462 200.368 468.366 199.956C468.27 199.544 467.857 199.287 467.444 199.382L464.153 200.142C463.015 198.005 460.829 196.482 458.228 196.301C454.219 196.022 450.741 199.033 450.461 203.028C450.454 203.123 450.449 203.218 450.447 203.313L448.888 203.394C448.42 200.078 445.678 197.423 442.19 197.18C438.18 196.901 434.703 199.912 434.423 203.906C434.142 207.901 437.165 211.365 441.174 211.644C445.181 211.924 448.657 208.916 448.941 204.925L450.561 204.841C451.144 208.021 453.826 210.53 457.213 210.766C461.222 211.045 464.699 208.033 464.98 204.039C465.039 203.187 464.949 202.359 464.731 201.581ZM463.081 201.486C463.372 202.242 463.506 203.071 463.446 203.932C463.225 207.083 460.482 209.458 457.32 209.238C454.158 209.018 451.774 206.285 451.995 203.135C452.216 199.984 454.959 197.609 458.121 197.829C460.292 197.98 462.096 199.316 462.943 201.158C462.945 201.174 462.948 201.19 462.952 201.206C462.976 201.31 463.021 201.405 463.081 201.486ZM447.422 204.376C447.423 204.52 447.418 204.665 447.408 204.811C447.186 207.962 444.444 210.337 441.282 210.117C438.119 209.896 435.735 207.164 435.956 204.013C436.177 200.863 438.92 198.488 442.082 198.708C444.993 198.911 447.245 201.243 447.412 204.07C447.403 204.124 447.399 204.181 447.402 204.239C447.405 204.286 447.411 204.332 447.422 204.376Z" fill="#482D1F"/>
<path d="M387.093 365.318L391.511 322.686C391.554 322.266 391.932 321.96 392.354 322.003C392.776 322.047 393.083 322.423 393.04 322.844L388.622 365.475C388.579 365.896 388.201 366.202 387.779 366.158C387.356 366.115 387.049 365.739 387.093 365.318Z" fill="#482D1F"/>
<path d="M475.559 267.665C475.559 267.665 475.101 276.282 478.534 279.45" stroke="#482D1F" stroke-width="3" stroke-linecap="round" stroke-linejoin="round"/>
<path d="M212.337 364.539H118.555C116.291 364.539 114.455 366.367 114.455 368.623V376.792C114.455 379.048 116.291 380.877 118.555 380.877H212.337C214.601 380.877 216.437 379.048 216.437 376.792V368.623C216.437 366.367 214.601 364.539 212.337 364.539ZM217.462 299.187H123.68C121.416 299.187 119.58 301.016 119.58 303.272V311.441C119.58 313.697 121.416 315.525 123.68 315.525H217.462C219.726 315.525 221.561 313.697 221.561 311.441V303.272C221.561 301.016 219.726 299.187 217.462 299.187ZM228.223 331.863H134.442C132.177 331.863 130.342 333.692 130.342 335.948V344.116C130.342 346.372 132.177 348.201 134.442 348.201H228.223C230.488 348.201 232.323 346.372 232.323 344.116V335.948C232.323 333.692 230.488 331.863 228.223 331.863Z" fill="#474BFF"/>
<path d="M203.113 348.201H109.331C107.066 348.201 105.231 350.03 105.231 352.285V360.454C105.231 362.71 107.066 364.539 109.331 364.539H203.113C205.377 364.539 207.212 362.71 207.212 360.454V352.285C207.212 350.03 205.377 348.201 203.113 348.201ZM200.038 315.525H106.256C103.992 315.525 102.156 317.354 102.156 319.61V327.779C102.156 330.034 103.992 331.863 106.256 331.863H200.038C202.302 331.863 204.138 330.034 204.138 327.779V319.61C204.138 317.354 202.302 315.525 200.038 315.525Z" fill="#474961"/>
<path d="M212.593 305.314H119.58V309.909H212.593C213.867 309.909 214.899 308.881 214.899 307.612C214.899 306.343 213.867 305.314 212.593 305.314ZM204.138 321.652H112.918V326.247H204.138V321.652ZM221.562 337.99H130.342V342.585H221.562V337.99ZM207.212 354.328H115.993V358.923H207.212V354.328ZM205.675 370.666H114.455V375.261H205.675V370.666Z" fill="#D8DEED"/>
</svg>
