<svg width="40" height="41" viewBox="0 0 40 41" fill="none" xmlns="http://www.w3.org/2000/svg">
<path d="M19.8748 40.1525C30.7562 40.1525 39.5773 31.3314 39.5773 20.45C39.5773 9.56865 30.7562 0.747559 19.8748 0.747559C8.99345 0.747559 0.172363 9.56865 0.172363 20.45C0.172363 31.3314 8.99345 40.1525 19.8748 40.1525Z" fill="white"/>
<path d="M15.8721 23.3867L15.6382 28.2214L20.9407 23.7246L15.8721 23.3867Z" fill="#158745"/>
<path d="M28.1146 11.8458L8.30819 19.3837C7.73636 19.5916 7.76235 20.3974 8.33419 20.5794L13.4288 22.2949L25.0735 14.783L15.8721 23.3866L23.046 28.819C23.7998 29.3909 24.8655 29.001 25.0995 28.0912L28.9724 12.5736C29.1023 12.0798 28.6085 11.6639 28.1146 11.8458Z" fill="#158745"/>
</svg>
