<svg width="40" height="40" viewBox="0 0 40 40" fill="none" xmlns="http://www.w3.org/2000/svg">
<path fill-rule="evenodd" clip-rule="evenodd" d="M24.4606 0.657065C35.0406 3.18973 41.5642 13.8196 39.0315 24.3996C36.4989 34.9795 25.869 41.5031 15.289 38.9705C4.70906 36.4378 -1.81456 25.8079 0.718101 15.228C3.25076 4.64803 13.8806 -1.8756 24.4606 0.657065ZM13.5381 29.5941L13.5381 29.5942C13.5244 29.7295 13.5105 29.8668 13.5105 30.0006C13.5105 30.1929 13.5019 30.3766 13.4932 30.5644C13.4841 30.7604 13.4747 30.9609 13.4747 31.18C13.5105 31.4659 13.5819 31.8232 13.7606 32.0734C14.1895 32.6452 14.9757 32.6095 15.5475 32.0377C15.8096 31.7637 16.0677 31.4897 16.3258 31.2157C16.842 30.6677 17.3582 30.1198 17.9062 29.5718C18.0491 29.4288 18.2993 29.3216 18.4779 29.3216C18.8352 29.3216 19.2015 29.3306 19.5677 29.3395L19.5679 29.3395L19.5682 29.3395C19.9344 29.3484 20.3006 29.3574 20.6579 29.3574C21.3012 29.3574 21.9445 29.3216 22.552 29.2501C22.7961 29.2196 23.0419 29.1907 23.2885 29.1617C24.1975 29.0549 25.119 28.9466 26.0185 28.7498C27.5195 28.4282 28.6988 27.5705 29.7352 26.4984C30.7358 25.4977 31.522 24.3899 31.7722 22.9604C31.9866 21.7096 32.1296 20.4945 32.2368 19.2437C32.4155 17.171 32.1653 15.1339 31.7365 13.0969C31.4506 11.7032 30.6286 10.5596 29.628 9.59466C28.5916 8.59402 27.4123 7.77206 25.9828 7.45042C25.1608 7.27174 24.3389 7.12879 23.5169 7.05731C22.2661 6.9501 21.0153 6.84289 19.7645 6.84289C18.5137 6.84289 17.2271 6.9501 15.9763 7.09305C15.0472 7.20026 14.118 7.34321 13.2246 7.62911C11.6879 8.12943 10.4728 9.16581 9.47216 10.4166C8.82889 11.2028 8.29283 12.0963 8.07841 13.1326C7.6853 14.9552 7.47087 16.8136 7.54235 18.6719C7.57809 19.5296 7.61382 20.3873 7.75677 21.245C7.77847 21.3752 7.79934 21.5062 7.82027 21.6375L7.82027 21.6376C7.93721 22.3715 8.05576 23.1155 8.32857 23.7823C9.07905 25.7836 10.5443 27.2131 12.4384 28.2138C12.5438 28.2665 12.6616 28.313 12.78 28.3597C13.0629 28.4713 13.3488 28.584 13.4747 28.7856C13.5977 29.0068 13.5684 29.2957 13.5381 29.5941ZM14.5111 29.9649V28.8928C14.5111 28.6889 14.5071 28.481 14.5031 28.2745C14.4952 27.8656 14.4874 27.4621 14.5111 27.1059C14.5111 26.7485 14.3682 26.6056 14.0465 26.4626C12.3311 25.7836 11.0446 24.64 10.4013 22.8889C10.1154 22.1384 10.0082 21.3165 9.97248 20.5303C9.86527 19.208 9.82953 17.85 9.90101 16.5277L9.90279 16.5018C9.97369 15.4734 10.0469 14.4111 10.4013 13.4543C11.1875 11.31 12.76 9.98777 15.0472 9.59466C17.1557 9.20155 19.3356 9.13008 21.4799 9.23729C22.8022 9.30876 24.0887 9.45171 25.3752 9.70187C26.6975 9.95203 27.6624 10.8455 28.5201 11.8104C29.3778 12.7753 29.6637 13.9189 29.7709 15.0982C29.7875 15.2696 29.805 15.4419 29.8225 15.6148L29.8225 15.6152L29.8226 15.6158C29.9182 16.5598 30.0155 17.5214 29.9853 18.4575C29.9139 19.8155 29.7709 21.1735 29.5208 22.4958C29.2706 23.8896 28.27 24.8187 27.1978 25.6764C26.3759 26.3197 25.4467 26.5699 24.4461 26.7128C22.7307 26.9272 21.0153 27.0702 19.2999 27.0702C19.0855 27.0702 18.8711 27.1774 18.7281 27.3203C17.547 28.5015 16.3996 29.6826 15.2204 30.8966L15.2202 30.8967L15.1186 31.0013C15.0933 31.0266 15.0725 31.0519 15.053 31.0756C15.0174 31.1189 14.9861 31.1569 14.94 31.18C14.8685 31.2514 14.7255 31.3586 14.6541 31.3229C14.5826 31.2872 14.5111 31.1442 14.5111 31.037V29.9649ZM21.0174 21.2282L21.0174 21.2281L21.0175 21.2281C21.1357 21.1724 21.2644 21.1117 21.3727 21.0305C21.462 20.959 21.5335 20.8697 21.6049 20.7804L21.6049 20.7804L21.605 20.7803L21.605 20.7803L21.605 20.7803C21.6764 20.691 21.7479 20.6017 21.8372 20.5302C22.1946 20.1728 22.6235 20.0299 23.0523 20.28L23.0523 20.28C23.8385 20.8161 24.6247 21.3522 25.3752 21.9597C25.6611 22.1741 25.7683 22.4957 25.5896 22.8531C25.1965 23.7465 24.6247 24.4613 23.6241 24.7472C23.4811 24.7829 23.3382 24.7829 23.1952 24.7472C19.8717 23.5679 17.0842 21.7095 15.2258 18.6361C14.7616 17.8881 14.3904 17.0843 14.0182 16.2783C13.8747 15.9676 13.7311 15.6566 13.5819 15.3483C13.296 14.8122 13.4032 14.3119 13.7249 13.8116C14.118 13.2398 14.6183 12.811 15.2258 12.5251C15.5832 12.3464 15.9763 12.3821 16.2265 12.7037C16.7983 13.4185 17.3343 14.169 17.8347 14.9552C18.192 15.527 18.0133 15.9916 17.513 16.4204C17.4594 16.4561 17.4148 16.4919 17.3701 16.5276C17.3254 16.5634 17.2807 16.5991 17.2271 16.6348C16.9055 16.885 16.834 17.2066 16.977 17.564C17.5845 19.2437 18.6924 20.4945 20.4077 21.1377C20.488 21.1779 20.5683 21.1955 20.6612 21.2158L20.6612 21.2158C20.7338 21.2317 20.8141 21.2493 20.9081 21.2807C20.9427 21.2633 20.9795 21.246 21.0173 21.2282L21.0174 21.2282ZM26.0765 18.1303C26.0654 18.0819 26.0545 18.0346 26.0545 17.9928C26.0724 17.9928 26.0813 17.9839 26.0858 17.9794C26.0869 17.9784 26.0877 17.9776 26.0883 17.9772L26.0902 17.9928C26.0902 17.9815 26.0902 17.9773 26.0891 17.977C26.089 17.9769 26.0888 17.977 26.0887 17.977C26.0885 17.977 26.0884 17.9771 26.0883 17.9772L26.0784 17.8975C26.0106 17.3539 25.9394 16.7819 25.8043 16.2417C25.0181 13.4185 22.6595 11.846 19.9077 11.7388C19.6575 11.7388 19.4074 11.8103 19.3716 12.1319C19.3716 12.4178 19.5503 12.4893 19.8005 12.525C19.8541 12.525 19.8988 12.534 19.9434 12.5429C19.9881 12.5518 20.0328 12.5608 20.0864 12.5608C20.2348 12.5836 20.3833 12.6028 20.5306 12.6219C20.8442 12.6624 21.1526 12.7023 21.4444 12.7752C23.4814 13.2755 25.0896 15.2768 25.2325 17.3853C25.2415 17.4747 25.2482 17.564 25.2549 17.6533C25.275 17.9214 25.2951 18.1894 25.3755 18.4574C25.4112 18.5646 25.6614 18.7791 25.7686 18.7433C25.9116 18.7076 26.0188 18.4932 26.0902 18.3502C26.112 18.2848 26.0939 18.2061 26.0765 18.1303ZM24.5175 17.5995C24.503 17.6285 24.5003 17.6691 24.4974 17.7121C24.4931 17.7751 24.4885 17.8429 24.446 17.8854C24.3388 17.9926 24.1958 18.1356 24.0529 18.1356C23.9457 18.1356 23.767 17.9569 23.767 17.8497C23.7134 17.6531 23.6866 17.4387 23.6598 17.2243C23.633 17.0098 23.6062 16.7954 23.5526 16.5989C23.1952 15.2408 22.0516 14.3117 20.6221 14.1687C20.5037 14.1687 20.4098 14.1442 20.2998 14.1155C20.277 14.1095 20.2535 14.1034 20.229 14.0972C20.0146 14.0615 19.8716 13.9186 19.9074 13.7041C19.9431 13.454 20.1218 13.3468 20.3362 13.3468C22.4447 13.4897 24.2316 14.812 24.4817 17.1349C24.4817 17.1817 24.4886 17.2421 24.4962 17.3102L24.4962 17.3102L24.4962 17.3103C24.5061 17.3982 24.5175 17.4988 24.5175 17.5995ZM22.9093 17.1709C22.9808 16.0273 22.0516 14.9909 20.8366 14.9552H20.7651C20.5149 14.9552 20.3363 15.0624 20.3005 15.3126C20.3005 15.5627 20.4792 15.7057 20.7294 15.7414C21.6943 15.9201 21.9444 16.1703 22.1231 17.0994C22.1231 17.1103 22.1198 17.1243 22.1163 17.1397C22.108 17.1752 22.0982 17.2175 22.1231 17.2424C22.1517 17.271 22.1803 17.301 22.2089 17.331C22.3232 17.4511 22.4376 17.5712 22.552 17.5998C22.8021 17.6355 22.9093 17.4211 22.9093 17.1709Z" fill="white"/>
</svg>
