<svg width="25" height="26" viewBox="0 0 25 26" fill="none" xmlns="http://www.w3.org/2000/svg">
<path d="M6.10913 22.7944C6.10913 22.385 6.24766 21.9415 6.0745 21.6344C5.90135 21.3615 5.41651 21.2591 5.07019 21.0885C3.23473 20.1332 1.81485 18.7685 1.08759 16.8579C0.775905 16.1073 0.672011 15.2544 0.533485 14.4355C0.39496 13.6167 0.360329 12.7979 0.325697 11.9791C0.256434 10.2049 0.464223 8.43079 0.845168 6.69078C1.05296 5.70136 1.57243 4.84842 2.19579 4.09782C3.16547 2.9037 4.34294 1.91428 5.83208 1.43663C6.69787 1.16369 7.59828 1.02721 8.4987 0.924861C9.7108 0.788389 10.9575 0.686035 12.1696 0.686035C13.3817 0.686035 14.5938 0.788389 15.8059 0.890743C16.6024 0.958978 17.399 1.09545 18.1955 1.26604C19.5807 1.5731 20.7236 2.35781 21.7279 3.31311C22.6976 4.23429 23.4941 5.32607 23.7711 6.65666C24.1867 8.60138 24.4291 10.5461 24.256 12.5249C24.1521 13.7191 24.0135 14.8791 23.8058 16.0732C23.5633 17.4379 22.8015 18.4956 21.8318 19.4509C20.8275 20.4744 19.6846 21.2932 18.2301 21.6003C17.1219 21.8391 15.9791 21.9415 14.8709 22.0779C14.2821 22.1462 13.6588 22.1803 13.0354 22.1803C12.3428 22.1803 11.6155 22.1462 10.9229 22.1462C10.7497 22.1462 10.5073 22.2485 10.3688 22.385C9.57227 23.1697 8.84501 23.9544 8.08312 24.7391C7.52902 25.285 6.76713 25.3191 6.35155 24.7733C6.1784 24.5344 6.10913 24.1933 6.0745 23.9203C6.0745 23.5109 6.10913 23.1697 6.10913 22.7944ZM7.07881 21.7368C7.07881 22.0779 7.07881 22.4191 7.07881 22.7603C7.07881 23.1015 7.07881 23.4427 7.07881 23.7838C7.07881 23.8862 7.14808 24.0227 7.21734 24.0568C7.2866 24.0909 7.42513 23.9886 7.49439 23.9203C7.56365 23.8862 7.59828 23.818 7.66755 23.7497C8.84501 22.5556 9.98785 21.3956 11.1653 20.2356C11.3038 20.0991 11.5116 19.9968 11.7194 19.9968C13.3817 19.9968 15.044 19.8603 16.7063 19.6556C17.676 19.5191 18.5764 19.2803 19.3729 18.6662C20.4119 17.8473 21.3816 16.9603 21.624 15.6297C21.8664 14.3673 22.0049 13.0708 22.0742 11.7743C22.1088 10.7167 21.9703 9.62492 21.8664 8.56727C21.7625 7.44138 21.4855 6.3496 20.6543 5.42842C19.8232 4.50724 18.8881 3.65429 17.6067 3.41547C16.36 3.17664 15.1133 3.04017 13.8319 2.97193C11.754 2.86958 9.64153 2.93782 7.59828 3.31311C5.38188 3.68841 3.8581 4.95077 3.09621 6.99784C2.74989 7.91903 2.68063 8.94256 2.61137 9.93198C2.5421 11.1943 2.57674 12.4908 2.68063 13.7532C2.71526 14.5038 2.81916 15.2885 3.09621 16.005C3.71957 17.6767 4.9663 18.7685 6.62861 19.4167C6.94029 19.5532 7.07881 19.6897 7.07881 20.0309C7.04418 20.5426 7.07881 21.1568 7.07881 21.7368Z" fill="white"/>
<path d="M13.2777 14.4682C13.4162 14.4 13.5894 14.3318 13.7279 14.2294C13.9011 14.0929 14.0049 13.8882 14.1781 13.7518C14.5244 13.4106 14.94 13.2741 15.3556 13.5129C16.1175 14.0247 16.8793 14.5365 17.6066 15.1165C17.8837 15.3212 17.9875 15.6282 17.8144 15.9694C17.4334 16.8223 16.8793 17.5047 15.9097 17.7776C15.7711 17.8118 15.6326 17.8118 15.4941 17.7776C12.2734 16.6518 9.57214 14.8776 7.77131 11.9435C7.14794 10.9541 6.69774 9.86238 6.17827 8.80474C5.90122 8.29298 6.00511 7.81533 6.31679 7.33769C6.69774 6.79181 7.18258 6.3824 7.77131 6.10946C8.11762 5.93887 8.49857 5.97299 8.74099 6.28005C9.29509 6.96239 9.81456 7.67886 10.2994 8.42945C10.6457 8.97533 10.4726 9.41885 9.98771 9.82826C9.88382 9.8965 9.81456 9.96473 9.71066 10.033C9.39898 10.2718 9.32972 10.5788 9.46824 10.92C10.057 12.5235 11.1305 13.7177 12.7929 14.3318C12.9314 14.4 13.0699 14.4 13.2777 14.4682Z" fill="white"/>
<path d="M18.2651 11.33C18.2651 11.4323 18.3344 11.5688 18.2998 11.6712C18.2305 11.8077 18.1266 12.0124 17.9881 12.0465C17.8842 12.0806 17.6418 11.8759 17.6071 11.7735C17.5032 11.4323 17.5032 11.0911 17.4686 10.7499C17.3301 8.73681 15.7717 6.82607 13.7977 6.34838C13.3821 6.24602 12.9319 6.2119 12.4817 6.14366C12.3778 6.14366 12.3085 6.10954 12.2046 6.10954C11.9622 6.07542 11.7891 6.00718 11.7891 5.73421C11.8237 5.42713 12.0661 5.35889 12.3085 5.35889C14.9751 5.46125 17.2608 6.96255 18.0227 9.65807C18.1612 10.204 18.2305 10.784 18.2998 11.33C18.2998 11.2959 18.2998 11.33 18.2651 11.33Z" fill="white"/>
<path d="M16.7755 10.9542C16.7408 11.0224 16.7755 11.1588 16.7062 11.227C16.6023 11.3294 16.4638 11.4658 16.3252 11.4658C16.2214 11.4658 16.0482 11.2953 16.0482 11.1929C15.9443 10.8177 15.9443 10.3743 15.8404 9.99907C15.4941 8.70287 14.3859 7.816 13.0007 7.67956C12.8621 7.67956 12.7582 7.64545 12.6197 7.61134C12.4119 7.57723 12.2734 7.44079 12.308 7.23612C12.3427 6.99735 12.5158 6.89502 12.7236 6.89502C14.7668 7.03146 16.4984 8.29355 16.7408 10.5107C16.7408 10.6131 16.7755 10.7836 16.7755 10.9542Z" fill="white"/>
<path d="M13.2084 8.43018C14.3859 8.4643 15.2863 9.45385 15.217 10.5458C15.217 10.7846 15.1131 10.9894 14.8707 10.9553C14.7322 10.9211 14.5937 10.7505 14.4551 10.614C14.4205 10.5799 14.4551 10.5117 14.4551 10.4775C14.282 9.59034 14.0396 9.35149 13.1045 9.18087C12.8621 9.14675 12.689 9.01026 12.689 8.7714C12.7236 8.53254 12.8968 8.43018 13.1392 8.43018C13.2084 8.43018 13.2431 8.43018 13.2084 8.43018Z" fill="white"/>
</svg>
