<svg width="40" height="40" viewBox="0 0 40 40" fill="none" xmlns="http://www.w3.org/2000/svg">
<path fill-rule="evenodd" clip-rule="evenodd" d="M38.9586 24.7624C41.4865 14.1824 34.9751 3.55252 24.415 1.01986C13.8549 -1.5128 3.24498 5.01082 0.717076 15.5908C-1.81083 26.1707 4.70054 36.8006 15.2606 39.3333C25.8207 41.8659 36.4306 35.3423 38.9586 24.7624ZM7.51494 32.8476L9.32241 25.9663C8.31022 24.083 7.73183 21.9824 7.73183 19.8818C7.73183 12.8556 13.4434 7.20569 20.3841 7.20569C27.3248 7.20569 33.0364 12.8556 33.0364 19.8818C33.0364 26.8355 27.3971 32.5578 20.3841 32.5578C18.2874 32.5578 16.2631 32.0508 14.3833 31.0367L7.51494 32.8476ZM14.7448 28.4291L15.1786 28.7188C16.7692 29.6605 18.5766 30.1675 20.3841 30.1675C26.0234 30.1675 30.6505 25.5317 30.6505 19.8818C30.6505 14.2319 26.0234 9.59604 20.3841 9.59604C14.7448 9.59604 10.1177 14.2319 10.1177 19.8818C10.1177 21.7651 10.6238 23.5759 11.636 25.1695L11.9252 25.6041L10.913 29.4432L14.7448 28.4291ZM23.2759 21.1859C23.8543 20.9686 24.5772 21.3307 25.0833 21.6205C25.1427 21.6545 25.2061 21.6895 25.2717 21.7257C25.7651 21.9982 26.3847 22.3404 26.3847 22.8519C26.457 23.1416 26.457 23.4313 26.3124 23.7211C25.8786 24.6627 24.9387 25.2422 23.9989 25.4595C23.1417 25.5917 22.4649 25.3623 21.6942 25.1011C21.6199 25.0759 21.5447 25.0504 21.4684 25.0249C20.7454 24.8076 19.9501 24.4454 19.2994 24.0108C17.9258 23.1416 16.769 22.0551 15.8291 20.7513C15.7447 20.6244 15.6603 20.5038 15.5777 20.3857C15.3773 20.0991 15.1874 19.8277 15.0338 19.5199C14.6723 19.0128 14.3831 18.4334 14.2385 17.7814C14.2385 17.6366 14.2205 17.5098 14.2024 17.383C14.1843 17.2563 14.1662 17.1295 14.1662 16.9847C14.1662 16.043 14.5277 15.0289 15.2507 14.4494C15.6845 14.0873 16.3352 13.9424 16.8413 14.2321C17.3681 14.496 17.655 15.1805 17.8658 15.6837C17.8865 15.7329 17.9064 15.7805 17.9258 15.8257C18.1427 16.2603 18.3596 16.8398 18.2873 17.2744C18.2258 17.7053 17.9555 18.0316 17.6982 18.3422C17.6527 18.397 17.6077 18.4514 17.5643 18.5058C17.3474 18.7231 17.3474 18.9404 17.492 19.1577C18.5042 20.7513 19.8778 21.9102 21.613 22.6346C21.8299 22.707 22.0468 22.707 22.1914 22.4897C22.2771 22.3823 22.3629 22.2431 22.4543 22.0946C22.6712 21.7425 22.9199 21.3387 23.2759 21.1859Z" fill="white"/>
</svg>
