<svg width="571" height="561" viewBox="0 0 571 561" fill="none" xmlns="http://www.w3.org/2000/svg">
<path d="M557.685 0H325.553C318.475 0 312.736 5.16011 312.736 11.5254V162.508C312.736 168.874 318.475 174.034 325.553 174.034H557.685C564.764 174.034 570.502 168.874 570.502 162.508V11.5254C570.502 5.16011 564.764 0 557.685 0Z" fill="#F2F6FB"/>
<path d="M351.493 160.494C338.608 160.494 328.163 151.007 328.163 139.303C328.163 127.599 338.608 118.111 351.493 118.111C364.378 118.111 374.824 127.599 374.824 139.303C374.824 151.007 364.378 160.494 351.493 160.494ZM351.544 139.214C353.266 139.214 354.661 137.963 354.661 136.419C354.661 134.875 353.266 133.624 351.544 133.624C349.822 133.624 348.427 134.875 348.427 136.419C348.427 137.963 349.822 139.214 351.544 139.214ZM351.544 140.612C348.424 140.612 345.894 142.88 345.894 145.678H357.194C357.194 142.88 354.665 140.612 351.544 140.612Z" fill="#D8DEED"/>
<path d="M328.162 38.1009C328.162 36.8252 329.307 35.7911 330.728 35.7911H494.304C495.721 35.7911 496.87 36.8269 496.87 38.1009V101.152C496.87 102.428 495.725 103.462 494.304 103.462H330.728C329.311 103.462 328.162 102.426 328.162 101.152V38.1009ZM391.557 135.355H520.315C522.898 135.355 524.991 137.237 524.991 139.56C524.991 141.882 522.898 143.764 520.315 143.764H391.557C388.975 143.764 386.881 141.882 386.881 139.56C386.881 137.237 388.975 135.355 391.557 135.355ZM391.557 149.02H543.724C546.306 149.02 548.4 150.903 548.4 153.225C548.4 155.547 546.306 157.429 543.724 157.429H391.557C388.975 157.429 386.881 155.547 386.881 153.225C386.881 150.903 388.975 149.02 391.557 149.02ZM391.557 121.69H487.544C490.126 121.69 492.219 123.572 492.219 125.894C492.219 128.216 490.126 130.099 487.544 130.099H391.557C388.975 130.099 386.881 128.216 386.881 125.894C386.881 123.572 388.975 121.69 391.557 121.69ZM312.736 9.84254C312.736 4.40666 317.636 0 323.679 0H560.058C566.101 0 571 4.40546 571 9.84254V19.6851H312.736V9.84254Z" fill="#E1E5F0"/>
<path d="M516.816 88.6589H547.218C551.763 88.6589 555.448 91.9726 555.448 96.0603C555.448 100.148 551.763 103.462 547.218 103.462H516.816C512.271 103.462 508.585 100.148 508.585 96.0603C508.585 91.9726 512.271 88.6589 516.816 88.6589Z" fill="#A339FF"/>
<path d="M327.416 14.3159C330.027 14.3159 332.144 12.413 332.144 10.0657C332.144 7.71833 330.027 5.81543 327.416 5.81543C324.805 5.81543 322.689 7.71833 322.689 10.0657C322.689 12.413 324.805 14.3159 327.416 14.3159Z" fill="#FF5645"/>
<path d="M342.842 14.3159C345.453 14.3159 347.57 12.413 347.57 10.0657C347.57 7.71833 345.453 5.81543 342.842 5.81543C340.231 5.81543 338.115 7.71833 338.115 10.0657C338.115 12.413 340.231 14.3159 342.842 14.3159Z" fill="#FFCB3D"/>
<path d="M358.766 14.3159C361.377 14.3159 363.493 12.413 363.493 10.0657C363.493 7.71833 361.377 5.81543 358.766 5.81543C356.155 5.81543 354.039 7.71833 354.039 10.0657C354.039 12.413 356.155 14.3159 358.766 14.3159Z" fill="#3ABF7C"/>
<path d="M538.299 417.566V376.132C538.299 351.006 538.299 325.939 538.299 300.871V262.434C538.299 261.051 511.703 259.898 479.725 259.898H473.06C441.145 259.898 414.486 261.051 414.486 262.434V417.681C414.486 419.064 441.081 420.217 473.06 420.217H479.725C511.639 420.274 538.299 419.064 538.299 417.566Z" fill="#D8DEED"/>
<path d="M349.183 560.079L349.439 560.194C350.785 560.828 352.515 560.482 353.156 559.387L428.2 435.431C428.905 434.278 428.328 432.838 426.982 432.204L426.726 432.089C425.38 431.455 423.65 431.8 423.009 432.895L404.424 463.553C392.312 483.607 380.2 503.604 368.024 523.658L347.965 556.736C347.26 557.889 347.837 559.387 349.183 560.079Z" fill="#D8DEED"/>
<path d="M535.542 430.072H488.568C460.114 430.072 431.66 430.072 403.27 430.072H359.692C358.154 430.072 356.809 431.224 356.809 432.607V432.895C356.809 434.278 358.09 435.431 359.692 435.431H535.671C537.209 435.431 538.554 434.278 538.554 432.895V432.607C538.554 431.224 537.209 430.072 535.542 430.072Z" fill="#D8DEED"/>
<path d="M558.421 556.734L538.362 523.656C526.25 503.602 514.138 483.606 501.962 463.551L483.377 432.894C482.736 431.799 481.006 431.395 479.66 432.087L479.404 432.202C478.058 432.836 477.481 434.334 478.186 435.429L553.23 559.385C553.871 560.48 555.601 560.883 556.947 560.192L557.203 560.077C558.549 559.385 559.126 557.887 558.421 556.734Z" fill="#D8DEED"/>
<path d="M238.336 412.924C242.943 414.982 244.516 417.02 244.761 418.802C245.12 421.8 244.341 424.209 242.484 428.171C238.888 436.095 235.832 444.127 233.375 452.372C232.655 452.232 231.937 452.086 231.221 451.931C232.723 457.079 232.67 461.016 232.67 461.016C165.338 461.016 132.233 461.016 133.356 461.016C135.04 461.016 147.216 431.368 190.182 428.355C191.416 428.267 192.615 428.211 193.778 428.185C194.041 427.202 194.493 426.314 195.312 424.972C193.512 421.004 192.126 411.704 191.656 407.832C191.656 407.673 191.716 407.513 191.776 407.354C192.018 406.93 192.683 406.718 193.226 406.93L206.827 412.924C209.15 412.16 211.607 411.465 214.198 410.771C216.652 410.096 219.107 409.521 221.415 408.993L226.284 397.617C226.463 397.181 227.062 396.909 227.541 397.127C227.721 397.181 227.84 397.29 227.96 397.453C230.48 400.65 236.671 408.802 238.336 412.924Z" fill="#FFCB3D"/>
<path d="M130.775 457.365C130.268 454.481 131.62 452.726 134.832 452.1C148.08 451.44 159.867 452.324 170.194 454.752C180.522 457.18 186.537 459.299 188.239 461.111H134.832C132.565 461.111 130.775 459.458 130.775 457.365ZM235.986 437.853C237.531 436.243 242.283 429.322 242.283 429.322C242.283 429.322 237.056 443.594 233.907 452.446C234.085 451.695 231.591 457.704 231.294 456.149V456.095C230.878 454.324 229.274 453.037 227.254 452.929C225.353 452.822 223.334 452.768 221.195 452.768C218.463 452.768 215.671 452.929 212.938 453.251L208.959 442.36C212.82 444.13 217.215 444.774 221.492 444.452C222.977 444.345 224.403 444.077 225.829 443.701C229.749 442.682 233.254 440.589 235.986 437.853ZM221.697 424.684C222.539 425.533 223.913 425.826 225.103 425.342C226.187 424.775 226.761 423.679 226.532 422.564C226.435 422.095 226.78 421.644 227.302 421.557C227.824 421.47 228.326 421.78 228.422 422.25C228.804 424.107 227.83 425.942 226.018 426.864L225.951 426.895C224.34 427.571 222.523 427.383 221.146 426.534C220.715 427.462 219.858 428.256 218.704 428.725C216.382 429.518 213.78 428.737 212.61 426.893C212.347 426.479 212.507 425.951 212.968 425.714C213.429 425.477 214.016 425.622 214.279 426.036C214.971 427.126 216.568 427.605 217.966 427.13C219.024 426.699 219.629 425.817 219.52 424.953C219.516 424.948 219.513 424.942 219.51 424.937C219.232 424.502 219.176 423.958 219.232 423.468C219.287 423.088 219.51 422.762 219.788 422.598C220.345 422.218 221.179 422.435 221.513 422.979C221.808 423.503 221.832 424.139 221.697 424.684ZM205.462 424.708C206.138 425.85 205.519 427.481 204.843 427.59C204.336 427.644 203.717 427.046 203.492 426.665C203.211 426.23 203.154 425.687 203.211 425.197C203.267 424.817 203.492 424.49 203.773 424.327C204.336 423.947 205.125 424.164 205.462 424.708ZM234.323 415.487C234.948 416.629 234.38 418.152 233.698 418.369C233.186 418.424 232.561 417.826 232.333 417.445C232.049 417.01 231.992 416.466 232.049 415.977C232.106 415.596 232.333 415.27 232.618 415.107C233.186 414.726 233.982 414.944 234.323 415.487Z" fill="#DE6903"/>
<path d="M314.37 555.801H415.122C416.63 555.801 417.853 556.901 417.853 558.257C417.853 559.614 416.63 560.713 415.122 560.713H314.37C312.861 560.713 311.639 559.614 311.639 558.257C311.639 556.901 312.861 555.801 314.37 555.801ZM427.377 555.801H491.078C492.586 555.801 493.809 556.901 493.809 558.257C493.809 559.614 492.586 560.713 491.078 560.713H427.377C425.869 560.713 424.646 559.614 424.646 558.257C424.646 556.901 425.869 555.801 427.377 555.801Z" fill="#FF5645"/>
<path d="M490.366 555.801H427.509L432.549 525.988H477.344L490.366 555.801ZM416.813 556.328C416.348 555.998 415.761 555.801 415.122 555.801H314.37C314.271 555.801 314.173 555.806 314.076 555.815C314.041 555.564 314.024 555.266 314.031 554.909C314.101 554.528 314.109 554.092 314.241 553.657C315.034 551.049 315.995 549.317 318.804 547.778C321.614 546.238 324.482 544.863 327.471 543.653C338.493 539.074 342.259 539.133 349.507 534.932C352.506 533.177 355.264 531.145 357.839 528.947C359.556 527.481 363.268 525.1 368.974 521.804L413.194 521.924L416.813 556.328Z" fill="#474961"/>
<path d="M489.849 427.51C489.747 454.214 488.727 489.69 488.375 501.894C488.313 503.593 488.56 508.192 484.855 511.092C483.805 511.942 482.755 512.292 480.779 513.042C479.235 513.642 472.319 515.441 458.486 516.441C457.622 516.491 456.696 516.541 455.769 516.491C441.504 516.041 437.985 515.241 432.489 513.842C428.845 512.942 426.19 510.142 425.819 506.843C424.09 492.295 419.335 452.652 418.965 449.153C418.471 444.704 418.038 439.655 417.668 433.906L417.471 431.214L400.382 425.157C407.519 449.725 414.442 475.171 420.632 500.469C420.941 501.709 421.497 504.498 419.891 507.132C416.927 512.143 409.208 511.885 390.744 513.847C369.007 516.172 359.929 518.6 354.989 513.641C353.322 512.04 352.766 510.387 352.581 509.612C348.073 489.518 325.718 431.201 317.011 389.361C317.011 389.258 316.949 389.206 316.949 389.103C314.17 375.621 324.607 362.914 340.106 361.21C345.232 360.641 349.863 360.094 354.989 359.526C356.542 359.363 358.091 359.316 359.624 359.377L436.137 358.184C481.516 357.829 475.268 353.093 489.458 358.963C498.918 362.877 505.359 374.019 508.781 392.39C510.006 406.358 503.696 418.064 489.849 427.51Z" fill="#A339FF"/>
<path opacity="0.176986" d="M489.927 427.457C489.932 426.062 489.935 424.691 489.935 423.349C489.935 412.95 489.996 404.002 490.12 398.253C490.243 393.704 491.17 368.708 479.19 363.509C478.14 363.059 477.09 362.709 474.99 362.059C473.323 361.559 464.678 358.96 453.562 359.36C446.337 359.61 435.469 360.009 426.515 366.258C414.164 374.907 414.473 388.555 414.596 390.754L417.552 431.243L400.472 425.189C395.714 408.809 390.86 392.819 386.067 377.523C382.792 367.113 371.845 359.908 359.838 359.374L436.137 358.184C481.517 357.829 475.268 353.093 489.458 358.963C498.918 362.877 505.359 374.019 508.781 392.39C510.004 406.332 503.719 418.021 489.927 427.457Z" fill="#444444"/>
<path d="M424.846 256.392C425.589 256.104 426.349 255.847 427.125 255.624L440.303 251.667C441.067 251.542 441.827 251.433 442.584 251.339C443.623 250.267 445.739 249.359 449.407 248.346C462.434 244.686 479.062 250.772 484.984 264.41C490.145 276.295 497.001 289.719 496.362 289.896C496.226 289.933 493.234 291.858 489.134 293.05C495.063 313.171 498.258 326.64 498.718 333.457C499.634 347.036 494.555 356.137 477.343 357.291C460.131 358.444 436.175 360.069 433.36 355.566C431.55 352.671 423.044 334.796 407.84 301.941C402.156 303.596 399.188 304.443 398.935 304.482C398.142 304.606 395.444 296.615 393.688 283.98C391.673 269.482 401.452 257.39 417.658 254.916C420.337 254.497 422.733 254.989 424.846 256.392Z" fill="#FF5645"/>
<path opacity="0.176986" d="M424.885 256.419C408.766 262.431 400.763 283.02 406.13 298.246C406.724 299.494 407.308 300.722 407.883 301.93C402.171 303.592 399.188 304.444 398.935 304.483C398.142 304.607 395.444 296.616 393.688 283.981C391.673 269.482 401.452 257.391 417.658 254.917C420.353 254.496 422.762 254.996 424.885 256.419Z" fill="#444444"/>
<path d="M398.278 258.114C398.278 258.114 397.104 262.262 403.341 261.115C409.578 259.969 411.369 259.424 411.369 259.424L409.764 255.658L398.278 258.114Z" fill="#482D1F"/>
<path d="M433.539 255.197L445.024 303.415L447.753 290.325C462.146 292.861 473.858 294.128 482.891 294.128C482.94 294.128 482.988 294.128 483.036 294.127C481.002 301.128 476.179 331.504 468.675 343.257C459.19 358.114 453.654 359.746 439.647 358.532C438.212 358.408 436.86 358.18 435.583 357.848C436.195 358.027 436.826 358.178 437.477 358.301L365.011 359.302L365.005 359.32L364.785 359.305L364.505 359.309C364.372 359.311 364.242 359.294 364.119 359.261L334.47 357.302C329.712 356.987 325.333 354.854 322.441 351.443L319.109 347.513C318.319 346.582 317.808 345.484 317.624 344.324C317.03 340.576 319.928 337.105 324.096 336.571L332.954 335.436C339.027 334.658 345.192 334.669 351.261 335.466L369.551 337.87C383.437 333.946 401.968 328.792 406.595 327.904L400.85 303.932L407.641 301.535C409.773 305.911 411.779 310.022 413.659 313.867C411.529 295.598 411.769 275.422 409.207 257.5L402.785 257.624C398.957 258.988 390.929 261.281 390.064 256.423C390.064 256.423 400.686 252.548 408.158 249.71L408.713 249.274C409.207 248.891 409.64 248.673 410.257 248.509C410.381 248.455 410.504 248.455 410.628 248.455L411.038 248.402C409.926 248.477 409.145 248.459 408.874 248.432C403.709 248.229 397.378 240.008 394.332 228.026C394.051 227.061 393.954 226.083 393.796 225.109L393.017 215.362C392.801 213.187 393.268 211.015 394.316 209.071C394.417 208.844 394.524 208.671 394.631 208.499C395.008 207.922 395.384 207.345 395.772 206.876C397.261 205.008 399.106 203.605 401.049 202.578C405.676 200.468 411.078 199.94 414.125 200.033C414.561 200.054 415.931 200.113 417.859 200.183C419.681 200.426 421.425 200.51 423.214 200.426C424.204 200.404 425.018 201.109 425.104 201.979L425.866 215.945C425.872 216.048 425.902 216.194 425.957 216.382C432.175 214.108 436.627 215.405 439.312 220.274C443.341 227.578 439.693 225.997 437.902 227.944C436.611 229.304 435.004 229.976 433.923 230.333C433.722 230.372 433.516 230.476 433.334 230.621L438.171 230.662L439.026 233.664L439.341 237.475L442.519 251.419C442.519 251.419 438.037 253.629 433.539 255.197ZM422.738 246.9L422.375 245.333C422.223 245.39 422.069 245.448 421.912 245.507C416.772 247.438 417.069 247.306 416.711 247.443C415.94 247.655 415.191 247.825 414.479 247.96L420.014 247.254L422.738 246.9ZM473.242 526.146H432.662L433.536 514.089C438.523 515.338 442.437 516.07 455.847 516.493C456.773 516.543 457.699 516.493 458.564 516.443C465.164 515.966 470.19 515.307 473.808 514.683L477.343 525.988L473.242 526.146ZM411.426 511.596L413.193 521.924H368.741L371.673 516.071C376.647 515.559 382.892 514.697 390.821 513.849C400.2 512.852 406.806 512.428 411.426 511.596Z" fill="#DB9E75"/>
<path d="M426.512 246.483L424.178 246.771L422.872 246.941C422.828 246.93 422.784 246.919 422.74 246.907L422.374 245.33L429.002 242.805C428.109 244.622 427.279 245.848 426.512 246.483Z" fill="#482D1F"/>
<path d="M398.245 226.846C398.465 227.815 398.867 229.373 398.445 230.118C397.758 231.321 395.347 228.878 395.533 227.001C395.642 226.225 396.041 225.866 396.533 225.828C397.327 225.712 398.052 226.149 398.245 226.846ZM411.369 224.79C411.589 225.759 411.991 227.317 411.569 228.062C410.882 229.266 408.471 226.822 408.657 224.945C408.766 224.17 409.165 223.81 409.657 223.772C410.451 223.656 411.176 224.093 411.369 224.79Z" fill="#482D1F"/>
<path d="M401.279 226.731L401.254 232.211C401.317 232.884 401.945 233.466 402.67 233.409C403.098 233.406 403.37 233.384 404.464 233.28C404.953 233.233 405.288 233.203 405.684 233.172C406.024 233.145 406.276 232.88 406.246 232.58C406.217 232.279 405.918 232.058 405.578 232.084C405.173 232.116 404.831 232.147 404.335 232.194C403.286 232.295 403.031 232.315 402.611 232.319C402.587 232.32 402.493 232.233 402.487 232.163L402.513 226.732C402.515 226.43 402.239 226.186 401.898 226.185C401.557 226.185 401.28 226.429 401.279 226.731Z" fill="#482D1F"/>
<path d="M406.925 236.254C407.345 236.112 408.353 235.651 408.422 235.098C408.412 234.989 408.457 234.821 408.39 234.772C408.117 234.519 407.339 234.798 406.248 235.047C404.306 235.471 402.645 235.599 402.645 235.599C402.645 235.599 403.29 236.481 403.625 236.729C404.366 237.329 406.27 236.524 406.925 236.254Z" fill="#482D1F"/>
<path d="M421.844 220.753L423.891 220.138C425.06 219.787 425.657 221.337 424.487 221.688L422.441 222.304L420.897 222.767C421.072 223.275 421.19 223.806 421.245 224.356C421.667 228.62 418.098 232.379 413.273 232.752C409.076 233.076 405.311 230.731 404.125 227.308L403.044 227.458L402.151 227.582C402.333 231.688 398.834 235.238 394.153 235.6C389.328 235.973 385.075 232.819 384.653 228.555C384.231 224.291 387.8 220.532 392.624 220.159C396.951 219.824 400.844 222.332 401.886 225.962L402.756 225.84L403.044 227.458C401.982 226.764 401.979 226.74 401.977 226.717L401.007 226.084L401.886 225.962C401.93 226.113 401.968 226.267 402.002 226.422C402.081 226.142 402.324 225.901 402.756 225.84L403.773 225.699C403.356 221.438 406.923 217.684 411.745 217.311C415.296 217.036 418.538 218.673 420.17 221.257L421.844 220.753ZM401.295 227.701C400.785 227.772 400.308 227.46 400.234 227.008C400.163 226.565 400.507 226.153 401.007 226.084L402.756 225.84L403.773 225.699C403.773 225.702 403.773 225.704 403.774 225.707C403.828 226.261 403.948 226.796 404.125 227.308L403.044 227.458L401.295 227.701ZM403.044 227.458C402.602 227.519 402.282 227.346 402.112 227.092L403.044 227.458ZM413.112 231.121C416.917 230.826 419.732 227.861 419.399 224.498C419.066 221.135 415.711 218.648 411.906 218.942C408.101 219.236 405.286 222.201 405.619 225.564C405.952 228.927 409.307 231.415 413.112 231.121ZM392.786 221.79C388.981 222.084 386.166 225.049 386.499 228.412C386.831 231.775 390.186 234.263 393.991 233.969C397.797 233.674 400.611 230.71 400.279 227.346C400.267 227.233 400.253 227.12 400.234 227.008C399.717 223.806 396.448 221.507 392.786 221.79Z" fill="#482D1F"/>
<path opacity="0.2" d="M437.442 358.301L364.976 359.302L364.97 359.32L364.75 359.306L364.47 359.309C364.337 359.311 364.207 359.295 364.084 359.262L334.435 357.302C329.677 356.988 325.298 354.855 322.406 351.443L319.074 347.514C318.284 346.582 317.773 345.484 317.589 344.324C316.995 340.576 319.893 337.105 324.061 336.571L332.919 335.437C338.992 334.659 345.157 334.669 351.226 335.467L369.516 337.871C383.402 333.946 401.933 328.792 406.559 327.904L400.814 303.932L407.606 301.535C409.862 306.167 411.978 310.501 413.952 314.538C414.297 316.94 414.695 319.331 415.162 321.708C419.722 343.15 425.007 355.965 437.442 358.301Z" fill="#8C2A00"/>
<path d="M444.383 303.702C444.238 303.268 444.518 302.813 445.008 302.684C445.499 302.556 446.014 302.803 446.159 303.237L452.273 321.465C452.418 321.899 452.139 322.354 451.648 322.483C451.158 322.611 450.642 322.364 450.497 321.931L444.383 303.702ZM483.074 294.796C482.562 294.793 482.151 294.424 482.155 293.971C482.159 293.519 482.576 293.156 483.088 293.159C485.666 293.176 488.085 292.844 490.349 292.164C490.834 292.018 491.36 292.247 491.525 292.675C491.689 293.103 491.43 293.568 490.946 293.714C488.481 294.454 485.856 294.815 483.074 294.796Z" fill="#482D1F"/>
<path d="M431.817 230.135C432.756 229.893 435.534 229.354 437.239 227.501C439.035 225.609 439.919 222.637 438.593 219.89C437.401 217.243 434.228 215.242 431.28 215.525C429.625 215.708 428.341 216.519 428.167 216.642C426.138 218.059 425.326 219.875 425.326 219.875L424.836 221.143C424.591 220.86 424.357 220.595 424.133 220.351C419.407 216.443 416.679 213.732 411.891 209.829C409.484 210.563 394.031 215.424 392.87 214.966C392.87 209.42 395.165 207.635 395.552 207.167C397.041 205.299 399.218 203.486 401.162 202.459C405.788 200.348 411.191 199.821 414.238 199.914C414.674 199.935 416.043 199.993 417.972 200.063C418.531 200.075 419.09 200.086 419.772 200.088C421.382 200.074 422.623 200.087 423.367 200.084C432.771 199.905 436.315 198.755 441.211 200.622C441.497 200.739 441.899 200.906 442.374 201.137C442.698 200.382 443.079 199.679 443.456 199.029C453.81 181.299 466.384 185.312 466.384 185.378C466.384 185.444 475.912 185.444 478.35 194.032C478.593 194.886 480.301 200.914 477.57 205.884C473.906 212.388 462.978 216.392 450.545 213.659C450.698 215.561 450.55 217.118 450.487 217.93C449.808 224.228 445.924 228.199 444.788 229.875C443.274 232.111 441.403 234.361 439.176 236.624C436.398 235.149 434.271 233.428 432.796 231.46C432.476 231.027 432.149 230.584 431.817 230.135Z" fill="#482D1F"/>
<path d="M308.71 344.454C315.686 338.326 329.92 333.517 353.424 345.6C357.009 347.382 355.697 352.992 351.721 352.985L310.754 352.762C307.675 352.782 306.384 346.516 308.71 344.454Z" fill="#474961"/>
<path d="M226.798 461.108H235.514C240.008 462.357 242.842 465.005 244.017 469.052C245.192 473.1 242.358 476.983 235.514 480.701L235.443 480.687L235.45 480.701H127.786C120.942 476.983 118.108 473.1 119.283 469.052C120.458 465.005 123.292 462.357 127.786 461.108H226.798Z" fill="#3ABF7C"/>
<path d="M269.992 219.676H74.1469C66.4566 219.676 60.1763 214.556 60.1763 208.288V103.131C60.1763 96.8625 66.4566 91.7432 74.1469 91.7432H269.992C277.682 91.7432 283.962 96.8625 283.962 103.131V208.235C283.962 214.556 277.682 219.676 269.992 219.676Z" fill="#F2F6FB"/>
<path d="M60.2402 91.0544C60.2402 84.6875 65.9795 79.5261 73.0582 79.5261H271.08C278.159 79.5261 283.898 84.6906 283.898 91.0544V104.306H60.2402V91.0544Z" fill="#E1E5F0"/>
<path d="M94.6859 150.982H119.359C121.394 150.982 123.044 152.466 123.044 154.296C123.044 156.126 121.394 157.609 119.359 157.609H94.6859C92.6508 157.609 91.001 156.126 91.001 154.296C91.001 152.466 92.6508 150.982 94.6859 150.982ZM94.6859 187.864H119.359C121.394 187.864 123.044 189.347 123.044 191.177C123.044 193.007 121.394 194.491 119.359 194.491H94.6859C92.6508 194.491 91.001 193.007 91.001 191.177C91.001 189.347 92.6508 187.864 94.6859 187.864ZM132.496 150.982H157.169C159.204 150.982 160.854 152.466 160.854 154.296C160.854 156.126 159.204 157.609 157.169 157.609H132.496C130.461 157.609 128.811 156.126 128.811 154.296C128.811 152.466 130.461 150.982 132.496 150.982ZM132.496 187.864H157.169C159.204 187.864 160.854 189.347 160.854 191.177C160.854 193.007 159.204 194.491 157.169 194.491H132.496C130.461 194.491 128.811 193.007 128.811 191.177C128.811 189.347 130.461 187.864 132.496 187.864ZM170.307 150.982H194.979C197.014 150.982 198.664 152.466 198.664 154.296C198.664 156.126 197.014 157.609 194.979 157.609H170.307C168.271 157.609 166.622 156.126 166.622 154.296C166.622 152.466 168.271 150.982 170.307 150.982ZM170.307 187.864H194.979C197.014 187.864 198.664 189.347 198.664 191.177C198.664 193.007 197.014 194.491 194.979 194.491H170.307C168.271 194.491 166.622 193.007 166.622 191.177C166.622 189.347 168.271 187.864 170.307 187.864ZM94.6859 132.542H140.507C142.542 132.542 144.192 134.025 144.192 135.855C144.192 137.685 142.542 139.169 140.507 139.169H94.6859C92.6508 139.169 91.001 137.685 91.001 135.855C91.001 134.025 92.6508 132.542 94.6859 132.542ZM198.504 132.542H250.093C252.128 132.542 253.778 134.025 253.778 135.855C253.778 137.685 252.128 139.169 250.093 139.169H198.504C196.469 139.169 194.819 137.685 194.819 135.855C194.819 134.025 196.469 132.542 198.504 132.542ZM198.504 169.423H250.093C252.128 169.423 253.778 170.907 253.778 172.737C253.778 174.567 252.128 176.05 250.093 176.05H198.504C196.469 176.05 194.819 174.567 194.819 172.737C194.819 170.907 196.469 169.423 198.504 169.423ZM153.644 169.423H162.937C164.972 169.423 166.622 170.907 166.622 172.737C166.622 174.567 164.972 176.05 162.937 176.05H153.644C151.609 176.05 149.959 174.567 149.959 172.737C149.959 170.907 151.609 169.423 153.644 169.423ZM176.074 132.542H185.367C187.402 132.542 189.051 134.025 189.051 135.855C189.051 137.685 187.402 139.169 185.367 139.169H176.074C174.039 139.169 172.389 137.685 172.389 135.855C172.389 134.025 174.039 132.542 176.074 132.542ZM208.117 150.982H250.093C252.128 150.982 253.778 152.466 253.778 154.296C253.778 156.126 252.128 157.609 250.093 157.609H208.117C206.082 157.609 204.432 156.126 204.432 154.296C204.432 152.466 206.082 150.982 208.117 150.982Z" fill="#E1E5F0"/>
<path d="M94.6859 169.423H140.507C142.542 169.423 144.192 170.907 144.192 172.737C144.192 174.567 142.542 176.05 140.507 176.05H94.6859C92.6508 176.05 91.001 174.567 91.001 172.737C91.001 170.907 92.6508 169.423 94.6859 169.423ZM176.074 169.423H185.367C187.402 169.423 189.052 170.907 189.052 172.737C189.052 174.567 187.402 176.05 185.367 176.05H176.074C174.039 176.05 172.389 174.567 172.389 172.737C172.389 170.907 174.039 169.423 176.074 169.423Z" fill="#A339FF"/>
<path d="M153.644 132.542H162.937C164.972 132.542 166.622 134.025 166.622 135.855C166.622 137.685 164.972 139.169 162.937 139.169H153.644C151.609 139.169 149.959 137.685 149.959 135.855C149.959 134.025 151.609 132.542 153.644 132.542ZM208.117 187.864H250.093C252.128 187.864 253.778 189.347 253.778 191.177C253.778 193.007 252.128 194.491 250.093 194.491H208.117C206.082 194.491 204.432 193.007 204.432 191.177C204.432 189.347 206.082 187.864 208.117 187.864Z" fill="#FF5645"/>
<path d="M92.9237 61.6606H12.8171C5.73839 61.6606 0 66.8208 0 73.1861V109.491C0 115.856 5.73839 121.017 12.8171 121.017H92.9237C100.002 121.017 105.741 115.856 105.741 109.491V73.1861C105.741 66.8208 100.002 61.6606 92.9237 61.6606Z" fill="#3ABF7C"/>
<path d="M34.1826 77.7976L12.8169 93.2562L35.2468 104.306" stroke="white" stroke-width="10" stroke-linecap="round" stroke-linejoin="round"/>
<path d="M69.5572 104.306L91.0011 91.0805L68.5713 77.7976" stroke="white" stroke-width="10" stroke-linecap="round" stroke-linejoin="round"/>
<path d="M46.7822 110.867L56.5439 72.2507" stroke="white" stroke-width="10" stroke-linecap="round" stroke-linejoin="round"/>
<path d="M116.315 479.466C116.421 479.46 116.527 479.456 116.635 479.456H244.165C246.642 479.456 248.651 481.262 248.651 483.49C248.651 485.718 246.642 487.524 244.165 487.524H116.635C116.527 487.524 116.421 487.521 116.315 487.514V556.964C116.315 559.192 114.306 560.998 111.829 560.998C109.351 560.998 107.343 559.192 107.343 556.964L107.343 356.999C107.343 355.058 108.868 353.437 110.899 353.052C111.474 352.811 112.114 352.677 112.79 352.677H494.098C496.575 352.677 498.583 354.483 498.583 356.711C498.583 358.939 496.575 360.745 494.098 360.745H116.315V479.466Z" fill="#D8DEED"/>
<path d="M204.864 344.036L211.027 321.676H164.764C159.958 321.676 155.984 318.391 155.984 314.415V251.083C155.92 247.049 159.83 243.764 164.7 243.764H305.495C310.302 243.764 314.275 247.049 314.275 251.025V314.415C314.275 318.391 310.302 321.676 305.495 321.676H249.116L246.572 344.036H263.264C265.827 344.036 267.814 345.88 267.814 348.127C267.814 350.433 265.763 352.219 263.264 352.219H191.809C189.245 352.219 187.259 350.375 187.259 348.127C187.131 345.88 189.245 344.036 191.809 344.036H204.864Z" fill="#474961"/>
<path fill-rule="evenodd" clip-rule="evenodd" d="M251.026 305.378L251.216 344.094H246.621L251.026 305.378Z" fill="white"/>
</svg>
